{
.appVersion = "3079";
classes = (
{
automatic = 1;

glyphs = (
{
color = 6;
glyphname = A;
lastChange = "2021-04-27 15:17:24 +0000";
layers = (
{
anchors = (
{
name = bottom;
position = "{671, 0}";
},
{
name = ogonek;
position = "{1173, 10}";
},
{
name = top;
position = "{969, 1400}";
}
);
layerId = "C350CEFC-842E-49B2-BD8E-B76FC625146E";
paths = (
{
closed = 1;
nodes = (
"263 0 LINE",
"351 412 LINE",
"1165 412 LINE",
"1077 0 LINE",
"1359 0 LINE",
"1613 1194 LINE",
"1451 1400 LINE",
"485 1400 LINE",
"235 1194 LINE",
"-19 0 LINE"
);
},
{
closed = 1;
nodes = (
"260 1183 LINE",
"490 1373 LINE",
"1434 1373 LINE",
"1585 1183 LINE",
"1339 27 LINE",
"1110 27 LINE",
"1197 438 LINE",
"329 438 LINE",
"242 27 LINE",
"14 27 LINE"
);
},
{
closed = 1;
nodes = (
"488 1056 LINE",
"562 1117 LINE",
"1254 1117 LINE",
"1302 1056 LINE",
"1225 694 LINE",
"411 694 LINE"
);
},
{
closed = 1;
nodes = (
"1246 667 LINE",
"1331 1067 LINE",
"1270 1144 LINE",
"556 1144 LINE",
"463 1067 LINE",
"378 667 LINE"
);
}
);
width = 1638;
},
{
anchors = (
{
name = bottom;
position = "{671, 0}";
},
{
name = ogonek;
position = "{1173, 10}";
},
{
name = top;
position = "{969, 1400}";
}
);
layerId = "D1E5EF0F-C706-422D-804F-EC15AC36D3BD";
paths = (
{
closed = 1;
nodes = (
"263 0 LINE",
"351 412 LINE",
"1165 412 LINE",
"1077 0 LINE",
"1359 0 LINE",
"1613 1194 LINE",
"1451 1400 LINE",
"485 1400 LINE",
"235 1194 LINE",
"-19 0 LINE"
);
},
{
closed = 1;
nodes = (
"355 1137 LINE",
"529 1281 LINE",
"1360 1281 LINE",
"1474 1137 LINE",
"1262 138 LINE",
"1234 138 LINE",
"1318 536 LINE",
"255 536 LINE",
"171 138 LINE",
"143 138 LINE"
);
},
{
closed = 1;
nodes = (
"488 1056 LINE",
"562 1117 LINE",
"1254 1117 LINE",
"1302 1056 LINE",
"1225 694 LINE",
"411 694 LINE"
);
},
{
closed = 1;
nodes = (
"1324 564 LINE",
"1444 1129 LINE",
"1345 1253 LINE",
"534 1253 LINE",
"381 1129 LINE",
"261 564 LINE"
);
}
);
width = 1638;
},
{
anchors = (
{
name = bottom;
position = "{671, 0}";
},
{
name = ogonek;
position = "{1173, 10}";
},
{
name = top;
position = "{969, 1400}";
}
);
layerId = "52369092-E1A4-4352-8107-384305BB14D9";
paths = (
{
closed = 1;
nodes = (
"263 0 LINE",
"351 412 LINE",
"1165 412 LINE",
"1077 0 LINE",
"1359 0 LINE",
"1613 1194 LINE",
"1451 1400 LINE",
"485 1400 LINE",
"235 1194 LINE",
"-19 0 LINE"
);
},
{
closed = 1;
nodes = (
"363 1135 LINE",
"515 1259 LINE",
"1365 1259 LINE",
"1463 1135 LINE",
"1252 142 LINE",
"1253 142 LINE",
"1340 549 LINE",
"238 549 LINE",
"151 142 LINE",
"152 142 LINE"
);
},
{
closed = 1;
nodes = (
"488 1056 LINE",
"562 1117 LINE",
"1254 1117 LINE",
"1302 1056 LINE",
"1225 694 LINE",
"411 694 LINE"
);
},
{
closed = 1;
nodes = (
"1340 548 LINE",
"1464 1135 LINE",
"1365 1260 LINE",
"515 1260 LINE",
"362 1135 LINE",
"238 548 LINE"
);
}
);
width = 1638;
},
{
anchors = (
{
name = bottom;
position = "{321, 0}";
},
{
name = ogonek;
position = "{823, 10}";
},
{
name = top;
position = "{619, 1400}";
}
);
layerId = "688D45B5-F54A-49EF-A5DE-FF449873800E";
paths = (
{
closed = 1;
nodes = (
"233 0 LINE",
"321 412 LINE",
"495 412 LINE",
"407 0 LINE",
"689 0 LINE",
"943 1194 LINE",
"781 1400 LINE",
"455 1400 LINE",
"205 1194 LINE",
"-49 0 LINE"
);
},
{
closed = 1;
nodes = (
"230 1183 LINE",
"460 1373 LINE",
"764 1373 LINE",
"915 1183 LINE",
"669 27 LINE",
"440 27 LINE",
"527 438 LINE",
"299 438 LINE",
"212 27 LINE",
"-16 27 LINE"
);
},
{
closed = 1;
nodes = (
"458 1056 LINE",
"532 1117 LINE",
"584 1117 LINE",
"632 1056 LINE",
"555 694 LINE",
"381 694 LINE"
);
},
{
closed = 1;
nodes = (
"576 667 LINE",
"661 1067 LINE",
"600 1144 LINE",
"526 1144 LINE",
"433 1067 LINE",
"348 667 LINE"
);
}
);
width = 938;
},
{
anchors = (
{
name = bottom;
position = "{321, 0}";
},
{
name = ogonek;
position = "{823, 10}";
},
{
name = top;
position = "{619, 1400}";
}
);
layerId = "890EBC54-9394-463B-B2A5-6ADD509C07AA";
paths = (
{
closed = 1;
nodes = (
"233 0 LINE",
"321 412 LINE",
"495 412 LINE",
"407 0 LINE",
"689 0 LINE",
"943 1194 LINE",
"781 1400 LINE",
"455 1400 LINE",
"205 1194 LINE",
"-49 0 LINE"
);
},
{
closed = 1;
nodes = (
"325 1137 LINE",
"499 1281 LINE",
"690 1281 LINE",
"804 1137 LINE",
"592 138 LINE",
"564 138 LINE",
"648 536 LINE",
"225 536 LINE",
"141 138 LINE",
"113 138 LINE"
);
},
{
closed = 1;
nodes = (
"458 1056 LINE",
"532 1117 LINE",
"584 1117 LINE",
"632 1056 LINE",
"555 694 LINE",
"381 694 LINE"
);
},
{
closed = 1;
nodes = (
"654 564 LINE",
"774 1129 LINE",
"675 1253 LINE",
"504 1253 LINE",
"351 1129 LINE",
"231 564 LINE"
);
}
);
width = 938;
},
{
anchors = (
{
name = bottom;
position = "{321, 0}";
},
{
name = ogonek;
position = "{821, 0}";
},
{
name = top;
position = "{619, 1400}";
}
);
layerId = "E606EEE5-03C7-423E-87C5-22C033DDF210";
paths = (
{
closed = 1;
nodes = (
"233 0 LINE",
"321 412 LINE",
"495 412 LINE",
"407 0 LINE",
"689 0 LINE",
"943 1194 LINE",
"781 1400 LINE",
"455 1400 LINE",
"205 1194 LINE",
"-49 0 LINE"
);
},
{
closed = 1;
nodes = (
"333 1135 LINE",
"485 1259 LINE",
"695 1259 LINE",
"793 1135 LINE",
"582 142 LINE",
"583 142 LINE",
"670 549 LINE",
"208 549 LINE",
"121 142 LINE",
"122 142 LINE"
);
},
{
closed = 1;
nodes = (
"458 1056 LINE",
"532 1117 LINE",
"584 1117 LINE",
"632 1056 LINE",
"555 694 LINE",
"381 694 LINE"
);
},
{
closed = 1;
nodes = (
"670 548 LINE",
"794 1135 LINE",
"695 1260 LINE",
"485 1260 LINE",
"332 1135 LINE",
"208 548 LINE"
);
}
);
width = 938;
}
);
leftKerningGroup = H;
leftMetricsKey = O;
rightKerningGroup = H;
rightMetricsKey = O;
unicode = 0041;
},
{
color = 6;
glyphname = A.ss01;
lastChange = "2021-04-27 15:17:24 +0000";
layers = (
{
anchors = (
{
name = bottom;
position = "{708, 0}";
},
{
name = ogonek;
position = "{1368, 10}";
},
{
name = top;
position = "{1006, 1400}";
}
);
layerId = "C350CEFC-842E-49B2-BD8E-B76FC625146E";
paths = (
{
closed = 1;
nodes = (
"220 0 LINE",
"397 296 LINE",
"1136 296 LINE",
"1188 0 LINE",
"1517 0 LINE",
"1261 1400 LINE",
"743 1400 LINE",
"-109 0 LINE"
);
},
{
closed = 1;
nodes = (
"757 1373 LINE",
"1235 1373 LINE",
"1483 27 LINE",
"1215 27 LINE",
"1163 324 LINE",
"382 324 LINE",
"205 27 LINE",
"-63 27 LINE"
);
},
{
closed = 1;
nodes = (
"1130 524 LINE",
"1022 1145 LINE",
"870 1145 LINE",
"501 524 LINE"
);
},
{
closed = 1;
nodes = (
"882 1116 LINE",
"996 1116 LINE",
"1095 552 LINE",
"548 552 LINE"
);
}
);
width = 1646;
},
{
anchors = (
{
name = bottom;
position = "{708, 0}";
},
{
name = ogonek;
position = "{1368, 10}";
},
{
name = top;
position = "{1006, 1400}";
}
);
layerId = "D1E5EF0F-C706-422D-804F-EC15AC36D3BD";
paths = (
{
closed = 1;
nodes = (
"220 0 LINE",
"397 296 LINE",
"1136 296 LINE",
"1188 0 LINE",
"1517 0 LINE",
"1261 1400 LINE",
"743 1400 LINE",
"-109 0 LINE"
);
},
{
closed = 1;
nodes = (
"815 1273 LINE",
"1135 1273 LINE",
"1360 121 LINE",
"1330 121 LINE",
"1274 412 LINE",
"322 412 LINE",
"145 121 LINE",
"115 121 LINE"
);
},
{
closed = 1;
nodes = (
"1269 440 LINE",
"1111 1246 LINE",
"827 1246 LINE",
"339 440 LINE"
);
},
{
closed = 1;
nodes = (
"882 1116 LINE",
"996 1116 LINE",
"1095 552 LINE",
"548 552 LINE"
);
}
);
width = 1646;
},
{
anchors = (
{
name = bottom;
position = "{708, 0}";
},
{
name = ogonek;
position = "{1368, 10}";
},
{
name = top;
position = "{1006, 1400}";
}
);
layerId = "52369092-E1A4-4352-8107-384305BB14D9";
paths = (
{
closed = 1;
nodes = (
"220 0 LINE",
"397 296 LINE",
"1136 296 LINE",
"1188 0 LINE",
"1517 0 LINE",
"1261 1400 LINE",
"743 1400 LINE",
"-109 0 LINE"
);
},
{
closed = 1;
nodes = (
"825 1260 LINE",
"1118 1260 LINE",
"1346 121 LINE",
"1346 121 LINE",
"1287 427 LINE",
"314 427 LINE",
"128 121 LINE",
"128 121 LINE"
);
},
{
closed = 1;
nodes = (
"1287 427 LINE",
"1118 1260 LINE",
"825 1260 LINE",
"314 427 LINE"
);
},
{
closed = 1;
nodes = (
"882 1116 LINE",
"996 1116 LINE",
"1095 552 LINE",
"548 552 LINE"
);
}
);
width = 1646;
},
{
anchors = (
{
name = bottom;
position = "{367, 0}";
},
{
name = ogonek;
position = "{901, 10}";
},
{
name = top;
position = "{652, 1400}";
}
);
layerId = "688D45B5-F54A-49EF-A5DE-FF449873800E";
paths = (
{
closed = 1;
nodes = (
"243 0 LINE",
"335 296 LINE",
"508 296 LINE",
"475 0 LINE",
"797 0 LINE",
"901 1400 LINE",
"403 1400 LINE",
"-79 0 LINE"
);
},
{
closed = 1;
nodes = (
"421 1373 LINE",
"871 1373 LINE",
"767 27 LINE",
"510 27 LINE",
"541 324 LINE",
"313 324 LINE",
"220 27 LINE",
"-37 27 LINE"
);
},
{
closed = 1;
nodes = (
"574 524 LINE",
"640 1145 LINE",
"552 1145 LINE",
"367 524 LINE"
);
},
{
closed = 1;
nodes = (
"569 1116 LINE",
"609 1116 LINE",
"547 552 LINE",
"405 552 LINE"
);
}
);
width = 976;
},
{
anchors = (
{
name = bottom;
position = "{367, 0}";
},
{
name = ogonek;
position = "{901, 10}";
},
{
name = top;
position = "{652, 1400}";
}
);
layerId = "890EBC54-9394-463B-B2A5-6ADD509C07AA";
paths = (
{
closed = 1;
nodes = (
"243 0 LINE",
"335 296 LINE",
"508 296 LINE",
"475 0 LINE",
"797 0 LINE",
"901 1400 LINE",
"403 1400 LINE",
"-79 0 LINE"
);
},
{
closed = 1;
nodes = (
"484 1272 LINE",
"770 1272 LINE",
"659 121 LINE",
"630 121 LINE",
"658 412 LINE",
"231 412 LINE",
"134 121 LINE",
"105 121 LINE"
);
},
{
closed = 1;
nodes = (
"661 440 LINE",
"739 1245 LINE",
"503 1245 LINE",
"240 440 LINE"
);
},
{
closed = 1;
nodes = (
"569 1116 LINE",
"609 1116 LINE",
"547 552 LINE",
"405 552 LINE"
);
}
);
width = 976;
},
{
anchors = (
{
name = bottom;
position = "{367, 0}";
},
{
name = ogonek;
position = "{901, 10}";
},
{
name = top;
position = "{652, 1400}";
}
);
layerId = "E606EEE5-03C7-423E-87C5-22C033DDF210";
paths = (
{
closed = 1;
nodes = (
"243 0 LINE",
"335 296 LINE",
"508 296 LINE",
"475 0 LINE",
"797 0 LINE",
"901 1400 LINE",
"403 1400 LINE",
"-79 0 LINE"
);
},
{
closed = 1;
nodes = (
"494 1259 LINE",
"754 1259 LINE",
"646 121 LINE",
"646 121 LINE",
"675 412 LINE",
"214 412 LINE",
"118 121 LINE",
"118 121 LINE"
);
},
{
closed = 1;
nodes = (
"675 412 LINE",
"754 1259 LINE",
"494 1259 LINE",
"214 412 LINE"
);
},
{
closed = 1;
nodes = (
"569 1116 LINE",
"609 1116 LINE",
"547 552 LINE",
"405 552 LINE"
);
}
);
width = 976;
}
);
leftKerningGroup = A;
rightKerningGroup = A;
},
{
color = 6;
glyphname = Aogonek;
lastChange = "2021-04-27 15:17:23 +0000";
layers = (
{
layerId = "C350CEFC-842E-49B2-BD8E-B76FC625146E";
paths = (
{
closed = 1;
nodes = (
"986 -369 LINE",
"1019 -212 LINE",
"784 -212 LINE",
"761 -180 LINE",
"979 0 LINE",
"1031 0 LINE",
"1025 1400 LINE",
"527 1400 LINE",
"-75 0 LINE",
"224 0 LINE",
"346 296 LINE",
"735 296 LINE",
"732 0 LINE",
"758 0 LINE",
"558 -180 LINE",
"681 -369 LINE"
);
},
{
closed = 1;
nodes = (
"595 -180 LINE",
"827 27 LINE",
"763 27 LINE",
"765 324 LINE",
"327 324 LINE",
"205 27 LINE",
"-33 27 LINE",
"541 1373 LINE",
"999 1373 LINE",
"1001 27 LINE",
"973 27 LINE",
"721 -180 LINE",
"766 -239 LINE",
"988 -239 LINE",
"966 -342 LINE",
"703 -342 LINE"
);
},
{
closed = 1;
nodes = (
"768 524 LINE",
"774 1145 LINE",
"666 1145 LINE",
"411 524 LINE"
);
},
{
closed = 1;
nodes = (
"684 1116 LINE",
"744 1116 LINE",
"738 552 LINE",
"452 552 LINE"
);
}
);
width = 1194;
},
{
layerId = "D1E5EF0F-C706-422D-804F-EC15AC36D3BD";
paths = (
{
closed = 1;
nodes = (
"986 -369 LINE",
"1019 -212 LINE",
"784 -212 LINE",
"761 -180 LINE",
"979 0 LINE",
"1031 0 LINE",
"1025 1400 LINE",
"527 1400 LINE",
"-75 0 LINE",
"224 0 LINE",
"346 296 LINE",
"735 296 LINE",
"732 0 LINE",
"758 0 LINE",
"558 -180 LINE",
"681 -369 LINE"
);
},
{
closed = 1;
nodes = (
"644 -180 LINE",
"873 17 LINE",
"873 17 LINE",
"876 412 LINE",
"260 412 LINE",
"138 121 LINE",
"108 121 LINE",
"604 1285 LINE",
"904 1285 LINE",
"904 14 LINE",
"904 14 LINE",
"680 -180 LINE",
"747 -277 LINE",
"946 -277 LINE",
"940 -304 LINE",
"728 -304 LINE"
);
},
{
closed = 1;
nodes = (
"876 440 LINE",
"879 1263 LINE",
"619 1263 LINE",
"272 440 LINE"
);
},
{
closed = 1;
nodes = (
"684 1116 LINE",
"744 1116 LINE",
"738 552 LINE",
"452 552 LINE"
);
}
);
width = 1194;
},
{
layerId = "52369092-E1A4-4352-8107-384305BB14D9";
paths = (
{
closed = 1;
nodes = (
"986 -369 LINE",
"1019 -212 LINE",
"784 -212 LINE",
"761 -180 LINE",
"979 0 LINE",
"1031 0 LINE",
"1025 1400 LINE",
"527 1400 LINE",
"-75 0 LINE",
"224 0 LINE",
"346 296 LINE",
"735 296 LINE",
"732 0 LINE",
"758 0 LINE",
"558 -180 LINE",
"681 -369 LINE"
);
},
{
closed = 1;
nodes = (
"659 -180 LINE",
"888 15 LINE",
"888 15 LINE",
"890 426 LINE",
"248 426 LINE",
"119 121 LINE",
"119 121 LINE",
"612 1273 LINE",
"887 1273 LINE",
"888 15 LINE",
"888 15 LINE",
"659 -180 LINE",
"740 -294 LINE",
"922 -294 LINE",
"922 -294 LINE",
"740 -294 LINE"
);
},
{
closed = 1;
nodes = (
"890 426 LINE",
"887 1273 LINE",
"612 1273 LINE",
"248 426 LINE"
);
},
{
closed = 1;
nodes = (
"684 1116 LINE",
"744 1116 LINE",
"738 552 LINE",
"452 552 LINE"
);
}
);
width = 1194;
},
{
layerId = "688D45B5-F54A-49EF-A5DE-FF449873800E";
paths = (
{
closed = 1;
nodes = (
"956 -369 LINE",
"989 -212 LINE",
"754 -212 LINE",
"731 -180 LINE",
"949 0 LINE",
"1001 0 LINE",
"995 1400 LINE",
"497 1400 LINE",
"-105 0 LINE",
"194 0 LINE",
"316 296 LINE",
"705 296 LINE",
"702 0 LINE",
"728 0 LINE",
"528 -180 LINE",
"651 -369 LINE"
);
},
{
closed = 1;
nodes = (
"565 -180 LINE",
"797 27 LINE",
"733 27 LINE",
"735 324 LINE",
"297 324 LINE",
"175 27 LINE",
"-63 27 LINE",
"511 1373 LINE",
"969 1373 LINE",
"971 27 LINE",
"943 27 LINE",
"691 -180 LINE",
"736 -239 LINE",
"958 -239 LINE",
"936 -342 LINE",
"673 -342 LINE"
);
},
{
closed = 1;
nodes = (
"738 524 LINE",
"744 1145 LINE",
"636 1145 LINE",
"381 524 LINE"
);
},
{
closed = 1;
nodes = (
"654 1116 LINE",
"714 1116 LINE",
"708 552 LINE",
"422 552 LINE"
);
}
);
width = 1134;
},
{
layerId = "890EBC54-9394-463B-B2A5-6ADD509C07AA";
paths = (
{
closed = 1;
nodes = (
"956 -369 LINE",
"989 -212 LINE",
"754 -212 LINE",
"731 -180 LINE",
"949 0 LINE",
"1001 0 LINE",
"995 1400 LINE",
"497 1400 LINE",
"-105 0 LINE",
"194 0 LINE",
"316 296 LINE",
"705 296 LINE",
"702 0 LINE",
"728 0 LINE",
"528 -180 LINE",
"651 -369 LINE"
);
},
{
closed = 1;
nodes = (
"614 -180 LINE",
"843 17 LINE",
"843 17 LINE",
"846 412 LINE",
"230 412 LINE",
"108 121 LINE",
"78 121 LINE",
"574 1285 LINE",
"874 1285 LINE",
"874 14 LINE",
"874 14 LINE",
"650 -180 LINE",
"717 -277 LINE",
"916 -277 LINE",
"910 -304 LINE",
"698 -304 LINE"
);
},
{
closed = 1;
nodes = (
"846 440 LINE",
"849 1263 LINE",
"589 1263 LINE",
"242 440 LINE"
);
},
{
closed = 1;
nodes = (
"654 1116 LINE",
"714 1116 LINE",
"708 552 LINE",
"422 552 LINE"
);
}
);
width = 1134;
},
{
layerId = "E606EEE5-03C7-423E-87C5-22C033DDF210";
paths = (
{
closed = 1;
nodes = (
"956 -369 LINE",
"989 -212 LINE",
"754 -212 LINE",
"731 -180 LINE",
"949 0 LINE",
"1001 0 LINE",
"995 1400 LINE",
"497 1400 LINE",
"-105 0 LINE",
"194 0 LINE",
"316 296 LINE",
"705 296 LINE",
"702 0 LINE",
"728 0 LINE",
"528 -180 LINE",
"651 -369 LINE"
);
},
{
closed = 1;
nodes = (
"629 -180 LINE",
"858 15 LINE",
"858 15 LINE",
"860 426 LINE",
"218 426 LINE",
"89 121 LINE",
"89 121 LINE",
"582 1273 LINE",
"857 1273 LINE",
"858 15 LINE",
"858 15 LINE",
"629 -180 LINE",
"710 -294 LINE",
"892 -294 LINE",
"892 -294 LINE",
"710 -294 LINE"
);
},
{
closed = 1;
nodes = (
"860 426 LINE",
"857 1273 LINE",
"582 1273 LINE",
"218 426 LINE"
);
},
{
closed = 1;
nodes = (
"654 1116 LINE",
"714 1116 LINE",
"708 552 LINE",
"422 552 LINE"
);
}
);
width = 1134;
}
);
unicode = 0104;
},
{
color = 6;
glyphname = AE;
lastChange = "2021-04-27 15:17:25 +0000";
layers = (
{
anchors = (
{
name = bottom;
position = "{833, 0}";
},
{
name = top;
position = "{1131, 1400}";
}
);
layerId = "C350CEFC-842E-49B2-BD8E-B76FC625146E";
paths = (
{
closed = 1;
nodes = (
"203 0 LINE",
"464 412 LINE",
"893 412 LINE",
"805 0 LINE",
"1638 0 LINE",
"1698 283 LINE",
"1148 283 LINE",
"1208 565 LINE",
"1720 565 LINE",
"1780 848 LINE",
"1268 848 LINE",
"1326 1117 LINE",
"1876 1117 LINE",
"1936 1400 LINE",
"789 1400 LINE",
"-104 0 LINE"
);
},
{
closed = 1;
nodes = (
"801 1373 LINE",
"1903 1373 LINE",
"1854 1144 LINE",
"1304 1144 LINE",
"1236 821 LINE",
"1748 821 LINE",
"1699 592 LINE",
"1187 592 LINE",
"1116 256 LINE",
"1666 256 LINE",
"1617 27 LINE",
"838 27 LINE",
"925 438 LINE",
"450 438 LINE",
"190 27 LINE",
"-58 27 LINE"
);
},
{
closed = 1;
nodes = (
"974 667 LINE",
"1075 1144 LINE",
"897 1144 LINE",
"594 667 LINE"
);
},
{
closed = 1;
nodes = (
"910 1117 LINE",
"1043 1117 LINE",
"953 694 LINE",
"640 694 LINE"
);
}
);
width = 1964;
},
{
anchors = (
{
name = bottom;
position = "{833, 0}";
},
{
name = top;
position = "{1131, 1400}";
}
);
layerId = "D1E5EF0F-C706-422D-804F-EC15AC36D3BD";
paths = (
{
closed = 1;
nodes = (
"203 0 LINE",
"464 412 LINE",
"893 412 LINE",
"805 0 LINE",
"1638 0 LINE",
"1698 283 LINE",
"1148 283 LINE",
"1208 565 LINE",
"1720 565 LINE",
"1780 848 LINE",
"1268 848 LINE",
"1326 1117 LINE",
"1876 1117 LINE",
"1936 1400 LINE",
"789 1400 LINE",
"-104 0 LINE"
);
},
{
closed = 1;
nodes = (
"853 1296 LINE",
"1817 1296 LINE",
"1811 1268 LINE",
"1232 1268 LINE",
"1116 724 LINE",
"1655 724 LINE",
"1649 696 LINE",
"1110 696 LINE",
"992 140 LINE",
"1571 140 LINE",
"1565 112 LINE",
"958 112 LINE",
"1047 532 LINE",
"383 532 LINE",
"109 112 LINE",
"79 112 LINE"
);
},
{
closed = 1;
nodes = (
"1053 560 LINE",
"1204 1268 LINE",
"865 1268 LINE",
"402 560 LINE"
);
},
{
closed = 1;
nodes = (
"910 1117 LINE",
"1043 1117 LINE",
"953 694 LINE",
"640 694 LINE"
);
}
);
width = 1964;
},
{
anchors = (
{
name = bottom;
position = "{833, 0}";
},
{
name = top;
position = "{1131, 1400}";
}
);
layerId = "52369092-E1A4-4352-8107-384305BB14D9";
paths = (
{
closed = 1;
nodes = (
"203 0 LINE",
"464 412 LINE",
"893 412 LINE",
"805 0 LINE",
"1638 0 LINE",
"1698 283 LINE",
"1148 283 LINE",
"1208 565 LINE",
"1720 565 LINE",
"1780 848 LINE",
"1268 848 LINE",
"1326 1117 LINE",
"1876 1117 LINE",
"1936 1400 LINE",
"789 1400 LINE",
"-104 0 LINE"
);
},
{
closed = 1;
nodes = (
"854 1274 LINE",
"1812 1274 LINE",
"1812 1275 LINE",
"1229 1275 LINE",
"1110 713 LINE",
"1653 713 LINE",
"1653 714 LINE",
"1110 714 LINE",
"985 126 LINE",
"1568 126 LINE",
"1568 127 LINE",
"986 127 LINE",
"1075 547 LINE",
"376 547 LINE",
"93 112 LINE",
"94 112 LINE"
);
},
{
closed = 1;
nodes = (
"1075 546 LINE",
"1230 1275 LINE",
"855 1275 LINE",
"377 546 LINE"
);
},
{
closed = 1;
nodes = (
"910 1117 LINE",
"1043 1117 LINE",
"953 694 LINE",
"640 694 LINE"
);
}
);
width = 1964;
},
{
anchors = (
{
name = bottom;
position = "{803, 0}";
},
{
name = top;
position = "{1101, 1400}";
}
);
layerId = "688D45B5-F54A-49EF-A5DE-FF449873800E";
paths = (
{
closed = 1;
nodes = (
"173 0 LINE",
"434 412 LINE",
"863 412 LINE",
"775 0 LINE",
"1608 0 LINE",
"1668 283 LINE",
"1118 283 LINE",
"1178 565 LINE",
"1690 565 LINE",
"1750 848 LINE",
"1238 848 LINE",
"1296 1117 LINE",
"1846 1117 LINE",
"1906 1400 LINE",
"759 1400 LINE",
"-134 0 LINE"
);
},
{
closed = 1;
nodes = (
"771 1373 LINE",
"1873 1373 LINE",
"1824 1144 LINE",
"1274 1144 LINE",
"1206 821 LINE",
"1718 821 LINE",
"1669 592 LINE",
"1157 592 LINE",
"1086 256 LINE",
"1636 256 LINE",
"1587 27 LINE",
"808 27 LINE",
"895 438 LINE",
"420 438 LINE",
"160 27 LINE",
"-88 27 LINE"
);
},
{
closed = 1;
nodes = (
"944 667 LINE",
"1045 1144 LINE",
"867 1144 LINE",
"564 667 LINE"
);
},
{
closed = 1;
nodes = (
"880 1117 LINE",
"1013 1117 LINE",
"923 694 LINE",
"610 694 LINE"
);
}
);
width = 1904;
},
{
anchors = (
{
name = bottom;
position = "{803, 0}";
},
{
name = top;
position = "{1101, 1400}";
}
);
layerId = "890EBC54-9394-463B-B2A5-6ADD509C07AA";
paths = (
{
closed = 1;
nodes = (
"173 0 LINE",
"434 412 LINE",
"863 412 LINE",
"775 0 LINE",
"1608 0 LINE",
"1668 283 LINE",
"1118 283 LINE",
"1178 565 LINE",
"1690 565 LINE",
"1750 848 LINE",
"1238 848 LINE",
"1296 1117 LINE",
"1846 1117 LINE",
"1906 1400 LINE",
"759 1400 LINE",
"-134 0 LINE"
);
},
{
closed = 1;
nodes = (
"823 1296 LINE",
"1787 1296 LINE",
"1781 1268 LINE",
"1202 1268 LINE",
"1086 724 LINE",
"1625 724 LINE",
"1619 696 LINE",
"1080 696 LINE",
"962 140 LINE",
"1541 140 LINE",
"1535 112 LINE",
"928 112 LINE",
"1017 532 LINE",
"353 532 LINE",
"79 112 LINE",
"49 112 LINE"
);
},
{
closed = 1;
nodes = (
"1023 560 LINE",
"1174 1268 LINE",
"835 1268 LINE",
"372 560 LINE"
);
},
{
closed = 1;
nodes = (
"880 1117 LINE",
"1013 1117 LINE",
"923 694 LINE",
"610 694 LINE"
);
}
);
width = 1904;
},
{
anchors = (
{
name = bottom;
position = "{803, 0}";
},
{
name = top;
position = "{1101, 1400}";
}
);
layerId = "E606EEE5-03C7-423E-87C5-22C033DDF210";
paths = (
{
closed = 1;
nodes = (
"173 0 LINE",
"434 412 LINE",
"863 412 LINE",
"775 0 LINE",
"1608 0 LINE",
"1668 283 LINE",
"1118 283 LINE",
"1178 565 LINE",
"1690 565 LINE",
"1750 848 LINE",
"1238 848 LINE",
"1296 1117 LINE",
"1846 1117 LINE",
"1906 1400 LINE",
"759 1400 LINE",
"-134 0 LINE"
);
},
{
closed = 1;
nodes = (
"824 1274 LINE",
"1782 1274 LINE",
"1782 1275 LINE",
"1199 1275 LINE",
"1080 713 LINE",
"1623 713 LINE",
"1623 714 LINE",
"1080 714 LINE",
"955 126 LINE",
"1538 126 LINE",
"1538 127 LINE",
"956 127 LINE",
"1045 547 LINE",
"346 547 LINE",
"63 112 LINE",
"64 112 LINE"
);
},
{
closed = 1;
nodes = (
"1045 546 LINE",
"1200 1275 LINE",
"825 1275 LINE",
"347 546 LINE"
);
},
{
closed = 1;
nodes = (
"880 1117 LINE",
"1013 1117 LINE",
"923 694 LINE",
"610 694 LINE"
);
}
);
width = 1904;
}
);
leftKerningGroup = A;
rightKerningGroup = E;
unicode = 00C6;
},
{
color = 6;
glyphname = B;
lastChange = "2021-04-27 15:17:24 +0000";
layers = (
{
anchors = (
{
name = bottom;
position = "{667, 0}";
},
{
name = top;
position = "{965, 1400}";
}
);
layerId = "C350CEFC-842E-49B2-BD8E-B76FC625146E";
paths = (
{
closed = 1;
nodes = (
"1084 0 LINE",
"1334 206 LINE",
"1421 613 LINE",
"1315 748 LINE",
"1423 837 LINE",
"1499 1194 LINE",
"1337 1400 LINE",
"289 1400 LINE",
"-9 0 LINE"
);
},
{
closed = 1;
nodes = (
"310 1373 LINE",
"1320 1373 LINE",
"1471 1183 LINE",
"1399 848 LINE",
"1278 748 LINE",
"1278 748 LINE",
"1391 602 LINE",
"1309 217 LINE",
"1078 27 LINE",
"24 27 LINE"
);
},
{
closed = 1;
nodes = (
"1012 256 LINE",
"1105 333 LINE",
"1140 496 LINE",
"1058 600 LINE",
"375 600 LINE",
"302 256 LINE"
);
},
{
closed = 1;
nodes = (
"1050 829 LINE",
"1191 944 LINE",
"1217 1067 LINE",
"1156 1144 LINE",
"490 1144 LINE",
"423 829 LINE"
);
},
{
closed = 1;
nodes = (
"396 573 LINE",
"1041 573 LINE",
"1110 485 LINE",
"1080 344 LINE",
"1006 283 LINE",
"334 283 LINE"
);
},
{
closed = 1;
nodes = (
"512 1117 LINE",
"1140 1117 LINE",
"1188 1056 LINE",
"1166 955 LINE",
"1045 856 LINE",
"456 856 LINE"
);
}
);
width = 1569;
},
{
anchors = (
{
name = bottom;
position = "{667, 0}";
},
{
name = top;
position = "{965, 1400}";
}
);
layerId = "D1E5EF0F-C706-422D-804F-EC15AC36D3BD";
paths = (
{
closed = 1;
nodes = (
"1084 0 LINE",
"1334 206 LINE",
"1421 613 LINE",
"1315 748 LINE",
"1423 837 LINE",
"1499 1194 LINE",
"1337 1400 LINE",
"289 1400 LINE",
"-9 0 LINE"
);
},
{
closed = 1;
nodes = (
"397 1280 LINE",
"1243 1280 LINE",
"1357 1136 LINE",
"1304 886 LINE",
"1117 732 LINE",
"1153 732 LINE",
"1284 566 LINE",
"1221 272 LINE",
"1042 124 LINE",
"152 124 LINE"
);
},
{
closed = 1;
nodes = (
"1038 152 LINE",
"1195 280 LINE",
"1254 558 LINE",
"1137 704 LINE",
"303 704 LINE",
"186 152 LINE"
);
},
{
closed = 1;
nodes = (
"1079 732 LINE",
"1277 894 LINE",
"1327 1128 LINE",
"1227 1252 LINE",
"419 1252 LINE",
"309 732 LINE"
);
},
{
closed = 1;
nodes = (
"396 573 LINE",
"1041 573 LINE",
"1110 485 LINE",
"1080 344 LINE",
"1006 283 LINE",
"334 283 LINE"
);
},
{
closed = 1;
nodes = (
"512 1117 LINE",
"1140 1117 LINE",
"1188 1056 LINE",
"1166 955 LINE",
"1045 856 LINE",
"456 856 LINE"
);
}
);
width = 1569;
},
{
anchors = (
{
name = bottom;
position = "{667, 0}";
},
{
name = top;
position = "{965, 1400}";
}
);
layerId = "52369092-E1A4-4352-8107-384305BB14D9";
paths = (
{
closed = 1;
nodes = (
"1084 0 LINE",
"1334 206 LINE",
"1421 613 LINE",
"1315 748 LINE",
"1423 837 LINE",
"1499 1194 LINE",
"1337 1400 LINE",
"289 1400 LINE",
"-9 0 LINE"
);
},
{
closed = 1;
nodes = (
"404 1263 LINE",
"1244 1263 LINE",
"1342 1119 LINE",
"1298 914 LINE",
"1076 712 LINE",
"1143 712 LINE",
"1265 556 LINE",
"1208 286 LINE",
"1029 138 LINE",
"165 138 LINE"
);
},
{
closed = 1;
nodes = (
"1029 138 LINE",
"1208 286 LINE",
"1265 556 LINE",
"1143 712 LINE",
"287 712 LINE",
"165 138 LINE"
);
},
{
closed = 1;
nodes = (
"1076 712 LINE",
"1298 914 LINE",
"1342 1119 LINE",
"1244 1263 LINE",
"404 1263 LINE",
"287 712 LINE"
);
},
{
closed = 1;
nodes = (
"396 573 LINE",
"1041 573 LINE",
"1110 485 LINE",
"1080 344 LINE",
"1006 283 LINE",
"334 283 LINE"
);
},
{
closed = 1;
nodes = (
"512 1117 LINE",
"1140 1117 LINE",
"1188 1056 LINE",
"1166 955 LINE",
"1045 856 LINE",
"456 856 LINE"
);
}
);
width = 1569;
},
{
anchors = (
{
name = bottom;
position = "{317, 0}";
},
{
name = top;
position = "{615, 1400}";
}
);
layerId = "688D45B5-F54A-49EF-A5DE-FF449873800E";
paths = (
{
closed = 1;
nodes = (
"521 0 LINE",
"771 206 LINE",
"858 613 LINE",
"752 748 LINE",
"860 837 LINE",
"936 1194 LINE",
"774 1400 LINE",
"259 1400 LINE",
"-39 0 LINE"
);
},
{
closed = 1;
nodes = (
"280 1373 LINE",
"757 1373 LINE",
"908 1183 LINE",
"836 848 LINE",
"715 748 LINE",
"715 748 LINE",
"828 602 LINE",
"746 217 LINE",
"515 27 LINE",
"-6 27 LINE"
);
},
{
closed = 1;
nodes = (
"449 256 LINE",
"542 333 LINE",
"577 496 LINE",
"495 600 LINE",
"345 600 LINE",
"272 256 LINE"
);
},
{
closed = 1;
nodes = (
"487 829 LINE",
"628 944 LINE",
"654 1067 LINE",
"593 1144 LINE",
"460 1144 LINE",
"393 829 LINE"
);
},
{
closed = 1;
nodes = (
"366 573 LINE",
"478 573 LINE",
"547 485 LINE",
"517 344 LINE",
"443 283 LINE",
"304 283 LINE"
);
},
{
closed = 1;
nodes = (
"482 1117 LINE",
"577 1117 LINE",
"625 1056 LINE",
"603 955 LINE",
"482 856 LINE",
"426 856 LINE"
);
}
);
width = 976;
},
{
anchors = (
{
name = bottom;
position = "{317, 0}";
},
{
name = top;
position = "{615, 1400}";
}
);
layerId = "890EBC54-9394-463B-B2A5-6ADD509C07AA";
paths = (
{
closed = 1;
nodes = (
"521 0 LINE",
"771 206 LINE",
"858 613 LINE",
"752 748 LINE",
"860 837 LINE",
"936 1194 LINE",
"774 1400 LINE",
"259 1400 LINE",
"-39 0 LINE"
);
},
{
closed = 1;
nodes = (
"367 1280 LINE",
"680 1280 LINE",
"794 1136 LINE",
"741 886 LINE",
"554 732 LINE",
"590 732 LINE",
"721 566 LINE",
"658 272 LINE",
"479 124 LINE",
"122 124 LINE"
);
},
{
closed = 1;
nodes = (
"475 152 LINE",
"632 280 LINE",
"691 558 LINE",
"574 704 LINE",
"273 704 LINE",
"156 152 LINE"
);
},
{
closed = 1;
nodes = (
"516 732 LINE",
"714 894 LINE",
"764 1128 LINE",
"664 1252 LINE",
"389 1252 LINE",
"279 732 LINE"
);
},
{
closed = 1;
nodes = (
"366 573 LINE",
"478 573 LINE",
"547 485 LINE",
"517 344 LINE",
"443 283 LINE",
"304 283 LINE"
);
},
{
closed = 1;
nodes = (
"482 1117 LINE",
"577 1117 LINE",
"625 1056 LINE",
"603 955 LINE",
"482 856 LINE",
"426 856 LINE"
);
}
);
width = 976;
},
{
anchors = (
{
name = bottom;
position = "{317, 0}";
},
{
name = top;
position = "{615, 1400}";
}
);
layerId = "E606EEE5-03C7-423E-87C5-22C033DDF210";
paths = (
{
closed = 1;
nodes = (
"521 0 LINE",
"771 206 LINE",
"858 613 LINE",
"752 748 LINE",
"860 837 LINE",
"936 1194 LINE",
"774 1400 LINE",
"259 1400 LINE",
"-39 0 LINE"
);
},
{
closed = 1;
nodes = (
"374 1263 LINE",
"681 1263 LINE",
"779 1119 LINE",
"735 914 LINE",
"513 712 LINE",
"580 712 LINE",
"702 556 LINE",
"645 286 LINE",
"466 138 LINE",
"135 138 LINE"
);
},
{
closed = 1;
nodes = (
"466 138 LINE",
"645 286 LINE",
"702 556 LINE",
"580 712 LINE",
"257 712 LINE",
"135 138 LINE"
);
},
{
closed = 1;
nodes = (
"513 712 LINE",
"735 914 LINE",
"779 1119 LINE",
"681 1263 LINE",
"374 1263 LINE",
"257 712 LINE"
);
},
{
closed = 1;
nodes = (
"366 573 LINE",
"478 573 LINE",
"547 485 LINE",
"517 344 LINE",
"443 283 LINE",
"304 283 LINE"
);
},
{
closed = 1;
nodes = (
"482 1117 LINE",
"577 1117 LINE",
"625 1056 LINE",
"603 955 LINE",
"482 856 LINE",
"426 856 LINE"
);
}
);
width = 976;
}
);
leftKerningGroup = H;
leftMetricsKey = D;
rightKerningGroup = B;
rightMetricsKey = O;
unicode = 0042;
},
{
color = 6;
glyphname = C;
lastChange = "2021-04-27 15:17:25 +0000";
layers = (
{
anchors = (
{
name = bottom;
position = "{652, 0}";
},
{
name = top;
position = "{950, 1400}";
}
);
layerId = "C350CEFC-842E-49B2-BD8E-B76FC625146E";
paths = (
{
closed = 1;
nodes = (
"1091 0 LINE",
"1342 206 LINE",
"1410 528 LINE",
"1127 528 LINE",
"1088 344 LINE",
"1014 283 LINE",
"375 283 LINE",
"327 344 LINE",
"479 1056 LINE",
"553 1117 LINE",
"1192 1117 LINE",
"1240 1056 LINE",
"1201 872 LINE",
"1484 872 LINE",
"1552 1194 LINE",
"1389 1400 LINE",
"475 1400 LINE",
"225 1194 LINE",
"15 206 LINE",
"177 0 LINE"
);
},
{
closed = 1;
nodes = (
"44 217 LINE",
"250 1183 LINE",
"480 1373 LINE",
"1372 1373 LINE",
"1523 1183 LINE",
"1462 899 LINE",
"1233 899 LINE",
"1269 1067 LINE",
"1208 1144 LINE",
"547 1144 LINE",
"454 1067 LINE",
"298 333 LINE",
"359 256 LINE",
"1020 256 LINE",
"1113 333 LINE",
"1149 501 LINE",
"1378 501 LINE",
"1317 217 LINE",
"1086 27 LINE",
"194 27 LINE"
);
}
);
width = 1567;
},
{
anchors = (
{
name = bottom;
position = "{652, 0}";
},
{
name = top;
position = "{950, 1400}";
}
);
layerId = "D1E5EF0F-C706-422D-804F-EC15AC36D3BD";
paths = (
{
closed = 1;
nodes = (
"1091 0 LINE",
"1342 206 LINE",
"1410 528 LINE",
"1127 528 LINE",
"1088 344 LINE",
"1014 283 LINE",
"375 283 LINE",
"327 344 LINE",
"479 1056 LINE",
"553 1117 LINE",
"1192 1117 LINE",
"1240 1056 LINE",
"1201 872 LINE",
"1484 872 LINE",
"1552 1194 LINE",
"1389 1400 LINE",
"475 1400 LINE",
"225 1194 LINE",
"15 206 LINE",
"177 0 LINE"
);
},
{
closed = 1;
nodes = (
"155 272 LINE",
"338 1132 LINE",
"512 1276 LINE",
"1298 1276 LINE",
"1412 1132 LINE",
"1381 988 LINE",
"1353 988 LINE",
"1382 1124 LINE",
"1282 1248 LINE",
"516 1248 LINE",
"364 1124 LINE",
"185 280 LINE",
"284 156 LINE",
"1050 156 LINE",
"1203 280 LINE",
"1232 416 LINE",
"1260 416 LINE",
"1229 272 LINE",
"1054 128 LINE",
"268 128 LINE"
);
}
);
width = 1567;
},
{
anchors = (
{
name = bottom;
position = "{652, 0}";
},
{
name = top;
position = "{950, 1400}";
}
);
layerId = "52369092-E1A4-4352-8107-384305BB14D9";
paths = (
{
closed = 1;
nodes = (
"1091 0 LINE",
"1342 206 LINE",
"1410 528 LINE",
"1127 528 LINE",
"1088 344 LINE",
"1014 283 LINE",
"375 283 LINE",
"327 344 LINE",
"479 1056 LINE",
"553 1117 LINE",
"1192 1117 LINE",
"1240 1056 LINE",
"1201 872 LINE",
"1484 872 LINE",
"1552 1194 LINE",
"1389 1400 LINE",
"475 1400 LINE",
"225 1194 LINE",
"15 206 LINE",
"177 0 LINE"
);
},
{
closed = 1;
nodes = (
"171 281 LINE",
"351 1129 LINE",
"520 1268 LINE",
"1285 1268 LINE",
"1395 1129 LINE",
"1369 1008 LINE",
"1369 1008 LINE",
"1395 1129 LINE",
"1285 1268 LINE",
"520 1268 LINE",
"351 1129 LINE",
"171 281 LINE",
"280 142 LINE",
"1051 142 LINE",
"1214 276 LINE",
"1239 396 LINE",
"1239 396 LINE",
"1214 276 LINE",
"1051 142 LINE",
"280 142 LINE"
);
}
);
width = 1567;
},
{
anchors = (
{
name = bottom;
position = "{302, 0}";
},
{
name = top;
position = "{600, 1400}";
}
);
layerId = "688D45B5-F54A-49EF-A5DE-FF449873800E";
paths = (
{
closed = 1;
nodes = (
"474 0 LINE",
"725 206 LINE",
"793 528 LINE",
"510 528 LINE",
"471 344 LINE",
"397 283 LINE",
"345 283 LINE",
"297 344 LINE",
"449 1056 LINE",
"523 1117 LINE",
"575 1117 LINE",
"623 1056 LINE",
"584 872 LINE",
"867 872 LINE",
"935 1194 LINE",
"772 1400 LINE",
"445 1400 LINE",
"195 1194 LINE",
"-15 206 LINE",
"147 0 LINE"
);
},
{
closed = 1;
nodes = (
"14 217 LINE",
"220 1183 LINE",
"450 1373 LINE",
"755 1373 LINE",
"906 1183 LINE",
"845 899 LINE",
"616 899 LINE",
"652 1067 LINE",
"591 1144 LINE",
"517 1144 LINE",
"424 1067 LINE",
"268 333 LINE",
"329 256 LINE",
"403 256 LINE",
"496 333 LINE",
"532 501 LINE",
"761 501 LINE",
"700 217 LINE",
"469 27 LINE",
"164 27 LINE"
);
}
);
width = 920;
},
{
anchors = (
{
name = bottom;
position = "{302, 0}";
},
{
name = top;
position = "{600, 1400}";
}
);
layerId = "890EBC54-9394-463B-B2A5-6ADD509C07AA";
paths = (
{
closed = 1;
nodes = (
"474 0 LINE",
"725 206 LINE",
"793 528 LINE",
"510 528 LINE",
"471 344 LINE",
"397 283 LINE",
"345 283 LINE",
"297 344 LINE",
"449 1056 LINE",
"523 1117 LINE",
"575 1117 LINE",
"623 1056 LINE",
"584 872 LINE",
"867 872 LINE",
"935 1194 LINE",
"772 1400 LINE",
"445 1400 LINE",
"195 1194 LINE",
"-15 206 LINE",
"147 0 LINE"
);
},
{
closed = 1;
nodes = (
"125 272 LINE",
"308 1132 LINE",
"482 1276 LINE",
"681 1276 LINE",
"795 1132 LINE",
"764 988 LINE",
"736 988 LINE",
"765 1124 LINE",
"665 1248 LINE",
"486 1248 LINE",
"334 1124 LINE",
"155 280 LINE",
"254 156 LINE",
"433 156 LINE",
"586 280 LINE",
"615 416 LINE",
"643 416 LINE",
"612 272 LINE",
"437 128 LINE",
"238 128 LINE"
);
}
);
width = 920;
},
{
anchors = (
{
name = bottom;
position = "{302, 0}";
},
{
name = top;
position = "{600, 1400}";
}
);
layerId = "E606EEE5-03C7-423E-87C5-22C033DDF210";
paths = (
{
closed = 1;
nodes = (
"474 0 LINE",
"725 206 LINE",
"793 528 LINE",
"510 528 LINE",
"471 344 LINE",
"397 283 LINE",
"345 283 LINE",
"297 344 LINE",
"449 1056 LINE",
"523 1117 LINE",
"575 1117 LINE",
"623 1056 LINE",
"584 872 LINE",
"867 872 LINE",
"935 1194 LINE",
"772 1400 LINE",
"445 1400 LINE",
"195 1194 LINE",
"-15 206 LINE",
"147 0 LINE"
);
},
{
closed = 1;
nodes = (
"141 281 LINE",
"321 1129 LINE",
"490 1268 LINE",
"668 1268 LINE",
"778 1129 LINE",
"752 1008 LINE",
"752 1008 LINE",
"778 1129 LINE",
"668 1268 LINE",
"490 1268 LINE",
"321 1129 LINE",
"141 281 LINE",
"250 142 LINE",
"434 142 LINE",
"597 276 LINE",
"622 396 LINE",
"622 396 LINE",
"597 276 LINE",
"434 142 LINE",
"250 142 LINE"
);
}
);
width = 920;
}
);
leftKerningGroup = O;
rightKerningGroup = C;
unicode = 0043;
},
{
color = 6;
glyphname = Ccedilla;
lastChange = "2021-04-27 15:17:25 +0000";
layers = (
{
layerId = "C350CEFC-842E-49B2-BD8E-B76FC625146E";
paths = (
{
closed = 1;
nodes = (
"561 -349 LINE",
"764 -160 LINE",
"659 0 LINE",
"781 0 LINE",
"1032 206 LINE",
"1101 528 LINE",
"818 528 LINE",
"778 344 LINE",
"704 283 LINE",
"432 283 LINE",
"384 344 LINE",
"536 1056 LINE",
"610 1117 LINE",
"882 1117 LINE",
"930 1056 LINE",
"891 872 LINE",
"1174 872 LINE",
"1242 1194 LINE",
"1079 1400 LINE",
"532 1400 LINE",
"282 1194 LINE",
"72 206 LINE",
"234 0 LINE",
"391 0 LINE",
"364 -130 LINE",
"498 -130 LINE",
"521 -160 LINE",
"484 -192 LINE",
"279 -192 LINE",
"246 -349 LINE"
);
},
{
closed = 1;
nodes = (
"300 -219 LINE",
"489 -219 LINE",
"554 -160 LINE",
"513 -103 LINE",
"396 -103 LINE",
"424 27 LINE",
"251 27 LINE",
"101 217 LINE",
"307 1183 LINE",
"537 1373 LINE",
"1062 1373 LINE",
"1213 1183 LINE",
"1152 899 LINE",
"923 899 LINE",
"959 1067 LINE",
"898 1144 LINE",
"604 1144 LINE",
"511 1067 LINE",
"355 333 LINE",
"416 256 LINE",
"710 256 LINE",
"803 333 LINE",
"839 501 LINE",
"1068 501 LINE",
"1007 217 LINE",
"776 27 LINE",
"624 27 LINE",
"618 0 LINE",
"619 0 LINE",
"727 -160 LINE",
"550 -322 LINE",
"278 -322 LINE"
);
}
);
width = 1241;
},
{
layerId = "D1E5EF0F-C706-422D-804F-EC15AC36D3BD";
paths = (
{
closed = 1;
nodes = (
"561 -349 LINE",
"764 -160 LINE",
"659 0 LINE",
"781 0 LINE",
"1032 206 LINE",
"1101 528 LINE",
"818 528 LINE",
"778 344 LINE",
"704 283 LINE",
"432 283 LINE",
"384 344 LINE",
"536 1056 LINE",
"610 1117 LINE",
"882 1117 LINE",
"930 1056 LINE",
"891 872 LINE",
"1174 872 LINE",
"1242 1194 LINE",
"1079 1400 LINE",
"532 1400 LINE",
"282 1194 LINE",
"72 206 LINE",
"234 0 LINE",
"391 0 LINE",
"364 -130 LINE",
"498 -130 LINE",
"521 -160 LINE",
"484 -192 LINE",
"279 -192 LINE",
"246 -349 LINE"
);
},
{
closed = 1;
nodes = (
"352 -257 LINE",
"521 -257 LINE",
"628 -160 LINE",
"561 -65 LINE",
"464 -65 LINE",
"506 128 LINE",
"326 128 LINE",
"212 272 LINE",
"395 1132 LINE",
"570 1276 LINE",
"989 1276 LINE",
"1102 1132 LINE",
"1071 988 LINE",
"1043 988 LINE",
"1072 1124 LINE",
"973 1248 LINE",
"574 1248 LINE",
"421 1124 LINE",
"242 280 LINE",
"341 156 LINE",
"740 156 LINE",
"893 280 LINE",
"922 416 LINE",
"950 416 LINE",
"919 272 LINE",
"745 128 LINE",
"534 128 LINE",
"498 -38 LINE",
"580 -38 LINE",
"664 -160 LINE",
"528 -284 LINE",
"346 -284 LINE"
);
}
);
width = 1241;
},
{
layerId = "52369092-E1A4-4352-8107-384305BB14D9";
paths = (
{
closed = 1;
nodes = (
"561 -349 LINE",
"764 -160 LINE",
"659 0 LINE",
"781 0 LINE",
"1032 206 LINE",
"1101 528 LINE",
"818 528 LINE",
"778 344 LINE",
"704 283 LINE",
"432 283 LINE",
"384 344 LINE",
"536 1056 LINE",
"610 1117 LINE",
"882 1117 LINE",
"930 1056 LINE",
"891 872 LINE",
"1174 872 LINE",
"1242 1194 LINE",
"1079 1400 LINE",
"532 1400 LINE",
"282 1194 LINE",
"72 206 LINE",
"234 0 LINE",
"391 0 LINE",
"364 -130 LINE",
"498 -130 LINE",
"521 -160 LINE",
"484 -192 LINE",
"279 -192 LINE",
"246 -349 LINE"
);
},
{
closed = 1;
nodes = (
"363 -270 LINE",
"531 -270 LINE",
"650 -160 LINE",
"577 -52 LINE",
"481 -52 LINE",
"522 142 LINE",
"328 142 LINE",
"226 272 LINE",
"409 1132 LINE",
"567 1262 LINE",
"986 1262 LINE",
"1088 1132 LINE",
"1057 988 LINE",
"1057 988 LINE",
"1088 1132 LINE",
"986 1262 LINE",
"567 1262 LINE",
"409 1132 LINE",
"226 272 LINE",
"328 142 LINE",
"747 142 LINE",
"905 272 LINE",
"936 416 LINE",
"936 416 LINE",
"905 272 LINE",
"747 142 LINE",
"522 142 LINE",
"481 -52 LINE",
"577 -52 LINE",
"650 -160 LINE",
"531 -270 LINE",
"363 -270 LINE"
);
}
);
width = 1241;
},
{
layerId = "688D45B5-F54A-49EF-A5DE-FF449873800E";
paths = (
{
closed = 1;
nodes = (
"531 -349 LINE",
"734 -160 LINE",
"629 0 LINE",
"751 0 LINE",
"1002 206 LINE",
"1071 528 LINE",
"788 528 LINE",
"748 344 LINE",
"674 283 LINE",
"402 283 LINE",
"354 344 LINE",
"506 1056 LINE",
"580 1117 LINE",
"852 1117 LINE",
"900 1056 LINE",
"861 872 LINE",
"1144 872 LINE",
"1212 1194 LINE",
"1049 1400 LINE",
"502 1400 LINE",
"252 1194 LINE",
"42 206 LINE",
"204 0 LINE",
"361 0 LINE",
"334 -130 LINE",
"468 -130 LINE",
"491 -160 LINE",
"454 -192 LINE",
"249 -192 LINE",
"216 -349 LINE"
);
},
{
closed = 1;
nodes = (
"270 -219 LINE",
"459 -219 LINE",
"524 -160 LINE",
"483 -103 LINE",
"366 -103 LINE",
"394 27 LINE",
"221 27 LINE",
"71 217 LINE",
"277 1183 LINE",
"507 1373 LINE",
"1032 1373 LINE",
"1183 1183 LINE",
"1122 899 LINE",
"893 899 LINE",
"929 1067 LINE",
"868 1144 LINE",
"574 1144 LINE",
"481 1067 LINE",
"325 333 LINE",
"386 256 LINE",
"680 256 LINE",
"773 333 LINE",
"809 501 LINE",
"1038 501 LINE",
"977 217 LINE",
"746 27 LINE",
"594 27 LINE",
"588 0 LINE",
"589 0 LINE",
"697 -160 LINE",
"520 -322 LINE",
"248 -322 LINE"
);
}
);
width = 1181;
},
{
layerId = "890EBC54-9394-463B-B2A5-6ADD509C07AA";
paths = (
{
closed = 1;
nodes = (
"531 -349 LINE",
"734 -160 LINE",
"629 0 LINE",
"751 0 LINE",
"1002 206 LINE",
"1071 528 LINE",
"788 528 LINE",
"748 344 LINE",
"674 283 LINE",
"402 283 LINE",
"354 344 LINE",
"506 1056 LINE",
"580 1117 LINE",
"852 1117 LINE",
"900 1056 LINE",
"861 872 LINE",
"1144 872 LINE",
"1212 1194 LINE",
"1049 1400 LINE",
"502 1400 LINE",
"252 1194 LINE",
"42 206 LINE",
"204 0 LINE",
"361 0 LINE",
"334 -130 LINE",
"468 -130 LINE",
"491 -160 LINE",
"454 -192 LINE",
"249 -192 LINE",
"216 -349 LINE"
);
},
{
closed = 1;
nodes = (
"322 -257 LINE",
"491 -257 LINE",
"598 -160 LINE",
"531 -65 LINE",
"434 -65 LINE",
"476 128 LINE",
"296 128 LINE",
"182 272 LINE",
"365 1132 LINE",
"540 1276 LINE",
"959 1276 LINE",
"1072 1132 LINE",
"1041 988 LINE",
"1013 988 LINE",
"1042 1124 LINE",
"943 1248 LINE",
"544 1248 LINE",
"391 1124 LINE",
"212 280 LINE",
"311 156 LINE",
"710 156 LINE",
"863 280 LINE",
"892 416 LINE",
"920 416 LINE",
"889 272 LINE",
"715 128 LINE",
"504 128 LINE",
"468 -38 LINE",
"550 -38 LINE",
"634 -160 LINE",
"498 -284 LINE",
"316 -284 LINE"
);
}
);
width = 1181;
},
{
layerId = "E606EEE5-03C7-423E-87C5-22C033DDF210";
paths = (
{
closed = 1;
nodes = (
"531 -349 LINE",
"734 -160 LINE",
"629 0 LINE",
"751 0 LINE",
"1002 206 LINE",
"1071 528 LINE",
"788 528 LINE",
"748 344 LINE",
"674 283 LINE",
"402 283 LINE",
"354 344 LINE",
"506 1056 LINE",
"580 1117 LINE",
"852 1117 LINE",
"900 1056 LINE",
"861 872 LINE",
"1144 872 LINE",
"1212 1194 LINE",
"1049 1400 LINE",
"502 1400 LINE",
"252 1194 LINE",
"42 206 LINE",
"204 0 LINE",
"361 0 LINE",
"334 -130 LINE",
"468 -130 LINE",
"491 -160 LINE",
"454 -192 LINE",
"249 -192 LINE",
"216 -349 LINE"
);
},
{
closed = 1;
nodes = (
"333 -270 LINE",
"501 -270 LINE",
"620 -160 LINE",
"547 -52 LINE",
"451 -52 LINE",
"492 142 LINE",
"298 142 LINE",
"196 272 LINE",
"379 1132 LINE",
"537 1262 LINE",
"956 1262 LINE",
"1058 1132 LINE",
"1027 988 LINE",
"1027 988 LINE",
"1058 1132 LINE",
"956 1262 LINE",
"537 1262 LINE",
"379 1132 LINE",
"196 272 LINE",
"298 142 LINE",
"717 142 LINE",
"875 272 LINE",
"906 416 LINE",
"906 416 LINE",
"875 272 LINE",
"717 142 LINE",
"492 142 LINE",
"451 -52 LINE",
"547 -52 LINE",
"620 -160 LINE",
"501 -270 LINE",
"333 -270 LINE"
);
}
);
width = 1181;
}
);
unicode = 00C7;
},
{
color = 6;
glyphname = D;
lastChange = "2021-04-27 15:17:23 +0000";
layers = (
{
anchors = (
{
name = bottom;
position = "{657, 0}";
},
{
name = center;
position = "{798, 700}";
},
{
name = top;
position = "{955, 1400}";
}
);
layerId = "C350CEFC-842E-49B2-BD8E-B76FC625146E";
paths = (
{
closed = 1;
nodes = (
"1117 0 LINE",
"1367 206 LINE",
"1577 1194 LINE",
"1415 1400 LINE",
"289 1400 LINE",
"-9 0 LINE"
);
},
{
closed = 1;
nodes = (
"512 1117 LINE",
"1218 1117 LINE",
"1266 1056 LINE",
"1114 344 LINE",
"1040 283 LINE",
"334 283 LINE"
);
},
{
closed = 1;
nodes = (
"310 1373 LINE",
"1398 1373 LINE",
"1548 1183 LINE",
"1342 217 LINE",
"1112 27 LINE",
"24 27 LINE"
);
},
{
closed = 1;
nodes = (
"1046 256 LINE",
"1139 333 LINE",
"1295 1067 LINE",
"1234 1144 LINE",
"490 1144 LINE",
"302 256 LINE"
);
}
);
width = 1612;
},
{
anchors = (
{
name = bottom;
position = "{657, 0}";
},
{
name = center;
position = "{806, 700}";
},
{
name = top;
position = "{955, 1400}";
}
);
layerId = "D1E5EF0F-C706-422D-804F-EC15AC36D3BD";
paths = (
{
closed = 1;
nodes = (
"1117 0 LINE",
"1367 206 LINE",
"1577 1194 LINE",
"1415 1400 LINE",
"289 1400 LINE",
"-9 0 LINE"
);
},
{
closed = 1;
nodes = (
"512 1117 LINE",
"1218 1117 LINE",
"1266 1056 LINE",
"1114 344 LINE",
"1040 283 LINE",
"334 283 LINE"
);
},
{
closed = 1;
nodes = (
"390 1271 LINE",
"1319 1271 LINE",
"1433 1127 LINE",
"1251 271 LINE",
"1076 127 LINE",
"147 127 LINE"
);
},
{
closed = 1;
nodes = (
"1072 155 LINE",
"1225 279 LINE",
"1403 1119 LINE",
"1303 1243 LINE",
"412 1243 LINE",
"181 155 LINE"
);
}
);
width = 1612;
},
{
anchors = (
{
name = bottom;
position = "{657, 0}";
},
{
name = center;
position = "{798, 700}";
},
{
name = top;
position = "{955, 1400}";
}
);
layerId = "52369092-E1A4-4352-8107-384305BB14D9";
paths = (
{
closed = 1;
nodes = (
"1117 0 LINE",
"1367 206 LINE",
"1577 1194 LINE",
"1415 1400 LINE",
"289 1400 LINE",
"-9 0 LINE"
);
},
{
closed = 1;
nodes = (
"512 1117 LINE",
"1218 1117 LINE",
"1266 1056 LINE",
"1114 344 LINE",
"1040 283 LINE",
"334 283 LINE"
);
},
{
closed = 1;
nodes = (
"405 1259 LINE",
"1308 1259 LINE",
"1421 1115 LINE",
"1245 286 LINE",
"1070 142 LINE",
"167 142 LINE"
);
},
{
closed = 1;
nodes = (
"1070 142 LINE",
"1245 286 LINE",
"1421 1115 LINE",
"1308 1259 LINE",
"405 1259 LINE",
"167 142 LINE"
);
}
);
width = 1612;
},
{
anchors = (
{
name = bottom;
position = "{334, 0}";
},
{
name = center;
position = "{475, 700}";
},
{
name = top;
position = "{632, 1400}";
}
);
layerId = "688D45B5-F54A-49EF-A5DE-FF449873800E";
paths = (
{
closed = 1;
nodes = (
"500 0 LINE",
"750 206 LINE",
"960 1194 LINE",
"798 1400 LINE",
"259 1400 LINE",
"-39 0 LINE"
);
},
{
closed = 1;
nodes = (
"482 1117 LINE",
"601 1117 LINE",
"649 1056 LINE",
"497 344 LINE",
"423 283 LINE",
"304 283 LINE"
);
},
{
closed = 1;
nodes = (
"280 1373 LINE",
"781 1373 LINE",
"931 1183 LINE",
"725 217 LINE",
"495 27 LINE",
"-6 27 LINE"
);
},
{
closed = 1;
nodes = (
"429 256 LINE",
"522 333 LINE",
"678 1067 LINE",
"617 1144 LINE",
"460 1144 LINE",
"272 256 LINE"
);
}
);
width = 965;
},
{
anchors = (
{
name = bottom;
position = "{334, 0}";
},
{
name = center;
position = "{483, 700}";
},
{
name = top;
position = "{632, 1400}";
}
);
layerId = "890EBC54-9394-463B-B2A5-6ADD509C07AA";
paths = (
{
closed = 1;
nodes = (
"500 0 LINE",
"750 206 LINE",
"960 1194 LINE",
"798 1400 LINE",
"259 1400 LINE",
"-39 0 LINE"
);
},
{
closed = 1;
nodes = (
"482 1117 LINE",
"601 1117 LINE",
"649 1056 LINE",
"497 344 LINE",
"423 283 LINE",
"304 283 LINE"
);
},
{
closed = 1;
nodes = (
"360 1271 LINE",
"702 1271 LINE",
"816 1127 LINE",
"634 271 LINE",
"459 127 LINE",
"117 127 LINE"
);
},
{
closed = 1;
nodes = (
"455 155 LINE",
"608 279 LINE",
"786 1119 LINE",
"686 1243 LINE",
"382 1243 LINE",
"151 155 LINE"
);
}
);
width = 965;
},
{
anchors = (
{
name = bottom;
position = "{334, 0}";
},
{
name = center;
position = "{475, 700}";
},
{
name = top;
position = "{632, 1400}";
}
);
layerId = "E606EEE5-03C7-423E-87C5-22C033DDF210";
paths = (
{
closed = 1;
nodes = (
"500 0 LINE",
"750 206 LINE",
"960 1194 LINE",
"798 1400 LINE",
"259 1400 LINE",
"-39 0 LINE"
);
},
{
closed = 1;
nodes = (
"482 1117 LINE",
"601 1117 LINE",
"649 1056 LINE",
"497 344 LINE",
"423 283 LINE",
"304 283 LINE"
);
},
{
closed = 1;
nodes = (
"375 1259 LINE",
"691 1259 LINE",
"804 1115 LINE",
"628 286 LINE",
"453 142 LINE",
"137 142 LINE"
);
},
{
closed = 1;
nodes = (
"453 142 LINE",
"628 286 LINE",
"804 1115 LINE",
"691 1259 LINE",
"375 1259 LINE",
"137 142 LINE"
);
}
);
width = 965;
}
);
leftKerningGroup = H;
rightKerningGroup = O;
unicode = 0044;
},
{
color = 6;
glyphname = Dcroat;
lastChange = "2021-04-27 15:17:25 +0000";
layers = (
{
layerId = "C350CEFC-842E-49B2-BD8E-B76FC625146E";
paths = (
{
closed = 1;
nodes = (
"803 0 LINE",
"1053 206 LINE",
"1263 1194 LINE",
"1101 1400 LINE",
"342 1400 LINE",
"218 818 LINE",
"45 818 LINE",
"-9 562 LINE",
"164 562 LINE",
"44 0 LINE"
);
},
{
closed = 1;
nodes = (
"196 589 LINE",
"23 589 LINE",
"66 791 LINE",
"239 791 LINE",
"363 1373 LINE",
"1084 1373 LINE",
"1234 1183 LINE",
"1028 217 LINE",
"798 27 LINE",
"77 27 LINE"
);
},
{
closed = 1;
nodes = (
"732 256 LINE",
"825 333 LINE",
"981 1067 LINE",
"920 1144 LINE",
"543 1144 LINE",
"468 791 LINE",
"724 791 LINE",
"681 589 LINE",
"425 589 LINE",
"355 256 LINE"
);
},
{
closed = 1;
nodes = (
"447 562 LINE",
"703 562 LINE",
"757 818 LINE",
"501 818 LINE",
"565 1117 LINE",
"904 1117 LINE",
"952 1056 LINE",
"800 344 LINE",
"726 283 LINE",
"387 283 LINE"
);
}
);
width = 1253;
},
{
layerId = "D1E5EF0F-C706-422D-804F-EC15AC36D3BD";
paths = (
{
closed = 1;
nodes = (
"803 0 LINE",
"1053 206 LINE",
"1263 1194 LINE",
"1101 1400 LINE",
"342 1400 LINE",
"218 818 LINE",
"45 818 LINE",
"-9 562 LINE",
"164 562 LINE",
"44 0 LINE"
);
},
{
closed = 1;
nodes = (
"316 672 LINE",
"144 672 LINE",
"150 700 LINE",
"322 700 LINE",
"443 1271 LINE",
"1005 1271 LINE",
"1119 1127 LINE",
"937 271 LINE",
"762 127 LINE",
"200 127 LINE"
);
},
{
closed = 1;
nodes = (
"758 155 LINE",
"911 279 LINE",
"1089 1119 LINE",
"989 1243 LINE",
"465 1243 LINE",
"350 700 LINE",
"614 700 LINE",
"608 672 LINE",
"344 672 LINE",
"234 155 LINE"
);
},
{
closed = 1;
nodes = (
"447 562 LINE",
"703 562 LINE",
"757 818 LINE",
"501 818 LINE",
"565 1117 LINE",
"904 1117 LINE",
"952 1056 LINE",
"800 344 LINE",
"726 283 LINE",
"387 283 LINE"
);
}
);
width = 1253;
},
{
layerId = "52369092-E1A4-4352-8107-384305BB14D9";
paths = (
{
closed = 1;
nodes = (
"803 0 LINE",
"1053 206 LINE",
"1263 1194 LINE",
"1101 1400 LINE",
"342 1400 LINE",
"218 818 LINE",
"45 818 LINE",
"-9 562 LINE",
"164 562 LINE",
"44 0 LINE"
);
},
{
closed = 1;
nodes = (
"333 687 LINE",
"157 687 LINE",
"157 687 LINE",
"333 687 LINE",
"455 1259 LINE",
"1003 1259 LINE",
"1103 1122 LINE",
"923 276 LINE",
"765 142 LINE",
"217 142 LINE"
);
},
{
closed = 1;
nodes = (
"765 142 LINE",
"923 276 LINE",
"1103 1122 LINE",
"1003 1259 LINE",
"455 1259 LINE",
"333 687 LINE",
"601 687 LINE",
"601 687 LINE",
"333 687 LINE",
"217 142 LINE"
);
},
{
closed = 1;
nodes = (
"447 562 LINE",
"703 562 LINE",
"757 818 LINE",
"501 818 LINE",
"565 1117 LINE",
"904 1117 LINE",
"952 1056 LINE",
"800 344 LINE",
"726 283 LINE",
"387 283 LINE"
);
}
);
width = 1253;
},
{
layerId = "688D45B5-F54A-49EF-A5DE-FF449873800E";
paths = (
{
closed = 1;
nodes = (
"773 0 LINE",
"1023 206 LINE",
"1233 1194 LINE",
"1071 1400 LINE",
"312 1400 LINE",
"188 818 LINE",
"15 818 LINE",
"-39 562 LINE",
"134 562 LINE",
"14 0 LINE"
);
},
{
closed = 1;
nodes = (
"166 589 LINE",
"-7 589 LINE",
"36 791 LINE",
"209 791 LINE",
"333 1373 LINE",
"1054 1373 LINE",
"1204 1183 LINE",
"998 217 LINE",
"768 27 LINE",
"47 27 LINE"
);
},
{
closed = 1;
nodes = (
"702 256 LINE",
"795 333 LINE",
"951 1067 LINE",
"890 1144 LINE",
"513 1144 LINE",
"438 791 LINE",
"694 791 LINE",
"651 589 LINE",
"395 589 LINE",
"325 256 LINE"
);
},
{
closed = 1;
nodes = (
"417 562 LINE",
"673 562 LINE",
"727 818 LINE",
"471 818 LINE",
"535 1117 LINE",
"874 1117 LINE",
"922 1056 LINE",
"770 344 LINE",
"696 283 LINE",
"357 283 LINE"
);
}
);
width = 1193;
},
{
layerId = "890EBC54-9394-463B-B2A5-6ADD509C07AA";
paths = (
{
closed = 1;
nodes = (
"773 0 LINE",
"1023 206 LINE",
"1233 1194 LINE",
"1071 1400 LINE",
"312 1400 LINE",
"188 818 LINE",
"15 818 LINE",
"-39 562 LINE",
"134 562 LINE",
"14 0 LINE"
);
},
{
closed = 1;
nodes = (
"286 672 LINE",
"114 672 LINE",
"120 700 LINE",
"292 700 LINE",
"413 1271 LINE",
"975 1271 LINE",
"1089 1127 LINE",
"907 271 LINE",
"732 127 LINE",
"170 127 LINE"
);
},
{
closed = 1;
nodes = (
"728 155 LINE",
"881 279 LINE",
"1059 1119 LINE",
"959 1243 LINE",
"435 1243 LINE",
"320 700 LINE",
"584 700 LINE",
"578 672 LINE",
"314 672 LINE",
"204 155 LINE"
);
},
{
closed = 1;
nodes = (
"417 562 LINE",
"673 562 LINE",
"727 818 LINE",
"471 818 LINE",
"535 1117 LINE",
"874 1117 LINE",
"922 1056 LINE",
"770 344 LINE",
"696 283 LINE",
"357 283 LINE"
);
}
);
width = 1193;
},
{
layerId = "E606EEE5-03C7-423E-87C5-22C033DDF210";
paths = (
{
closed = 1;
nodes = (
"773 0 LINE",
"1023 206 LINE",
"1233 1194 LINE",
"1071 1400 LINE",
"312 1400 LINE",
"188 818 LINE",
"15 818 LINE",
"-39 562 LINE",
"134 562 LINE",
"14 0 LINE"
);
},
{
closed = 1;
nodes = (
"303 687 LINE",
"127 687 LINE",
"127 687 LINE",
"303 687 LINE",
"425 1259 LINE",
"973 1259 LINE",
"1073 1122 LINE",
"893 276 LINE",
"735 142 LINE",
"187 142 LINE"
);
},
{
closed = 1;
nodes = (
"735 142 LINE",
"893 276 LINE",
"1073 1122 LINE",
"973 1259 LINE",
"425 1259 LINE",
"303 687 LINE",
"571 687 LINE",
"571 687 LINE",
"303 687 LINE",
"187 142 LINE"
);
},
{
closed = 1;
nodes = (
"417 562 LINE",
"673 562 LINE",
"727 818 LINE",
"471 818 LINE",
"535 1117 LINE",
"874 1117 LINE",
"922 1056 LINE",
"770 344 LINE",
"696 283 LINE",
"357 283 LINE"
);
}
);
width = 1193;
}
);
rightKerningGroup = D;
unicode = 0110;
},
{
color = 6;
glyphname = E;
lastChange = "2021-04-27 15:17:25 +0000";
layers = (
{
anchors = (
{
name = bottom;
position = "{548, 0}";
},
{
name = ogonek;
position = "{1492, 10}";
},
{
name = top;
position = "{846, 1400}";
},
{
name = topleft;
position = "{42, 1400}";
}
);
layerId = "C350CEFC-842E-49B2-BD8E-B76FC625146E";
paths = (
{
closed = 1;
nodes = (
"1197 0 LINE",
"1257 283 LINE",
"324 283 LINE",
"384 565 LINE",
"1248 565 LINE",
"1308 848 LINE",
"444 848 LINE",
"502 1117 LINE",
"1435 1117 LINE",
"1495 1400 LINE",
"279 1400 LINE",
"-19 0 LINE"
);
},
{
closed = 1;
nodes = (
"300 1373 LINE",
"1462 1373 LINE",
"1413 1144 LINE",
"480 1144 LINE",
"412 821 LINE",
"1276 821 LINE",
"1227 592 LINE",
"363 592 LINE",
"292 256 LINE",
"1225 256 LINE",
"1176 27 LINE",
"14 27 LINE"
);
}
);
width = 1476;
},
{
anchors = (
{
name = bottom;
position = "{548, 0}";
},
{
name = ogonek;
position = "{1492, 10}";
},
{
name = top;
position = "{846, 1400}";
},
{
name = topleft;
position = "{42, 1400}";
}
);
layerId = "D1E5EF0F-C706-422D-804F-EC15AC36D3BD";
paths = (
{
closed = 1;
nodes = (
"1197 0 LINE",
"1257 283 LINE",
"324 283 LINE",
"384 565 LINE",
"1248 565 LINE",
"1308 848 LINE",
"444 848 LINE",
"502 1117 LINE",
"1435 1117 LINE",
"1495 1400 LINE",
"279 1400 LINE",
"-19 0 LINE"
);
},
{
closed = 1;
nodes = (
"383 1276 LINE",
"1358 1276 LINE",
"1352 1248 LINE",
"405 1248 LINE",
"293 721 LINE",
"1170 721 LINE",
"1165 693 LINE",
"288 693 LINE",
"174 160 LINE",
"1121 160 LINE",
"1115 132 LINE",
"140 132 LINE"
);
}
);
width = 1476;
},
{
anchors = (
{
name = bottom;
position = "{548, 0}";
},
{
name = ogonek;
position = "{1492, 10}";
},
{
name = top;
position = "{846, 1400}";
},
{
name = topleft;
position = "{42, 1400}";
}
);
layerId = "52369092-E1A4-4352-8107-384305BB14D9";
paths = (
{
closed = 1;
nodes = (
"1197 0 LINE",
"1257 283 LINE",
"324 283 LINE",
"384 565 LINE",
"1248 565 LINE",
"1308 848 LINE",
"444 848 LINE",
"502 1117 LINE",
"1435 1117 LINE",
"1495 1400 LINE",
"279 1400 LINE",
"-19 0 LINE"
);
},
{
closed = 1;
nodes = (
"394 1259 LINE",
"1335 1259 LINE",
"1335 1259 LINE",
"394 1259 LINE",
"276 707 LINE",
"1147 707 LINE",
"1147 707 LINE",
"276 707 LINE",
"156 142 LINE",
"1097 142 LINE",
"1097 142 LINE",
"156 142 LINE"
);
}
);
width = 1476;
},
{
anchors = (
{
name = bottom;
position = "{278, 0}";
},
{
name = ogonek;
position = "{414, 10}";
},
{
name = top;
position = "{576, 1400}";
},
{
name = topleft;
position = "{249, 1400}";
}
);
layerId = "688D45B5-F54A-49EF-A5DE-FF449873800E";
paths = (
{
closed = 1;
nodes = (
"554 0 LINE",
"614 283 LINE",
"294 283 LINE",
"354 565 LINE",
"605 565 LINE",
"665 848 LINE",
"414 848 LINE",
"472 1117 LINE",
"792 1117 LINE",
"852 1400 LINE",
"249 1400 LINE",
"-49 0 LINE"
);
},
{
closed = 1;
nodes = (
"270 1373 LINE",
"819 1373 LINE",
"770 1144 LINE",
"450 1144 LINE",
"382 821 LINE",
"633 821 LINE",
"584 592 LINE",
"333 592 LINE",
"262 256 LINE",
"582 256 LINE",
"533 27 LINE",
"-16 27 LINE"
);
}
);
width = 803;
},
{
anchors = (
{
name = bottom;
position = "{278, 0}";
},
{
name = ogonek;
position = "{414, 10}";
},
{
name = top;
position = "{576, 1400}";
},
{
name = topleft;
position = "{249, 1400}";
}
);
layerId = "890EBC54-9394-463B-B2A5-6ADD509C07AA";
paths = (
{
closed = 1;
nodes = (
"554 0 LINE",
"614 283 LINE",
"294 283 LINE",
"354 565 LINE",
"605 565 LINE",
"665 848 LINE",
"414 848 LINE",
"472 1117 LINE",
"792 1117 LINE",
"852 1400 LINE",
"249 1400 LINE",
"-49 0 LINE"
);
},
{
closed = 1;
nodes = (
"353 1276 LINE",
"715 1276 LINE",
"709 1248 LINE",
"375 1248 LINE",
"263 721 LINE",
"527 721 LINE",
"522 693 LINE",
"258 693 LINE",
"144 160 LINE",
"478 160 LINE",
"472 132 LINE",
"110 132 LINE"
);
}
);
width = 803;
},
{
anchors = (
{
name = bottom;
position = "{278, 0}";
},
{
name = ogonek;
position = "{414, 10}";
},
{
name = top;
position = "{576, 1400}";
},
{
name = topleft;
position = "{249, 1400}";
}
);
layerId = "E606EEE5-03C7-423E-87C5-22C033DDF210";
paths = (
{
closed = 1;
nodes = (
"554 0 LINE",
"614 283 LINE",
"294 283 LINE",
"354 565 LINE",
"605 565 LINE",
"665 848 LINE",
"414 848 LINE",
"472 1117 LINE",
"792 1117 LINE",
"852 1400 LINE",
"249 1400 LINE",
"-49 0 LINE"
);
},
{
closed = 1;
nodes = (
"364 1259 LINE",
"692 1259 LINE",
"692 1259 LINE",
"364 1259 LINE",
"246 707 LINE",
"504 707 LINE",
"504 707 LINE",
"246 707 LINE",
"126 142 LINE",
"454 142 LINE",
"454 142 LINE",
"126 142 LINE"
);
}
);
width = 803;
}
);
leftKerningGroup = H;
leftMetricsKey = O;
rightKerningGroup = E;
rightMetricsKey = O;
unicode = 0045;
},
{
color = 6;
glyphname = Eogonek;
lastChange = "2021-04-27 15:17:24 +0000";
layers = (
{
layerId = "C350CEFC-842E-49B2-BD8E-B76FC625146E";
paths = (
{
closed = 1;
nodes = (
"727 -369 LINE",
"760 -212 LINE",
"525 -212 LINE",
"502 -180 LINE",
"720 0 LINE",
"853 0 LINE",
"914 283 LINE",
"364 283 LINE",
"424 565 LINE",
"905 565 LINE",
"965 848 LINE",
"484 848 LINE",
"541 1117 LINE",
"1091 1117 LINE",
"1151 1400 LINE",
"318 1400 LINE",
"20 0 LINE",
"499 0 LINE",
"299 -180 LINE",
"422 -369 LINE"
);
},
{
closed = 1;
nodes = (
"336 -180 LINE",
"537 0 LINE",
"543 27 LINE",
"53 27 LINE",
"339 1373 LINE",
"1118 1373 LINE",
"1070 1144 LINE",
"520 1144 LINE",
"451 821 LINE",
"932 821 LINE",
"883 592 LINE",
"402 592 LINE",
"331 256 LINE",
"881 256 LINE",
"832 27 LINE",
"713 27 LINE",
"462 -180 LINE",
"507 -239 LINE",
"729 -239 LINE",
"707 -342 LINE",
"444 -342 LINE"
);
}
);
width = 1093;
},
{
layerId = "D1E5EF0F-C706-422D-804F-EC15AC36D3BD";
paths = (
{
closed = 1;
nodes = (
"727 -369 LINE",
"760 -212 LINE",
"525 -212 LINE",
"502 -180 LINE",
"720 0 LINE",
"853 0 LINE",
"914 283 LINE",
"364 283 LINE",
"424 565 LINE",
"905 565 LINE",
"965 848 LINE",
"484 848 LINE",
"541 1117 LINE",
"1091 1117 LINE",
"1151 1400 LINE",
"318 1400 LINE",
"20 0 LINE",
"499 0 LINE",
"299 -180 LINE",
"422 -369 LINE"
);
},
{
closed = 1;
nodes = (
"378 -180 LINE",
"739 132 LINE",
"739 132 LINE",
"179 132 LINE",
"423 1276 LINE",
"1015 1276 LINE",
"1009 1248 LINE",
"445 1248 LINE",
"333 721 LINE",
"827 721 LINE",
"821 693 LINE",
"327 693 LINE",
"213 160 LINE",
"777 160 LINE",
"771 132 LINE",
"771 132 LINE",
"414 -180 LINE",
"481 -277 LINE",
"680 -277 LINE",
"674 -304 LINE",
"462 -304 LINE"
);
}
);
width = 1093;
},
{
layerId = "52369092-E1A4-4352-8107-384305BB14D9";
paths = (
{
closed = 1;
nodes = (
"727 -369 LINE",
"760 -212 LINE",
"525 -212 LINE",
"502 -180 LINE",
"720 0 LINE",
"853 0 LINE",
"914 283 LINE",
"364 283 LINE",
"424 565 LINE",
"905 565 LINE",
"965 848 LINE",
"484 848 LINE",
"541 1117 LINE",
"1091 1117 LINE",
"1151 1400 LINE",
"318 1400 LINE",
"20 0 LINE",
"499 0 LINE",
"299 -180 LINE",
"422 -369 LINE"
);
},
{
closed = 1;
nodes = (
"396 -180 LINE",
"764 142 LINE",
"764 142 LINE",
"196 142 LINE",
"433 1259 LINE",
"997 1259 LINE",
"997 1259 LINE",
"433 1259 LINE",
"316 707 LINE",
"804 707 LINE",
"804 707 LINE",
"316 707 LINE",
"196 142 LINE",
"764 142 LINE",
"764 142 LINE",
"764 142 LINE",
"396 -180 LINE",
"470 -290 LINE",
"657 -290 LINE",
"657 -290 LINE",
"470 -290 LINE"
);
}
);
width = 1093;
},
{
layerId = "688D45B5-F54A-49EF-A5DE-FF449873800E";
paths = (
{
closed = 1;
nodes = (
"697 -369 LINE",
"730 -212 LINE",
"495 -212 LINE",
"472 -180 LINE",
"690 0 LINE",
"823 0 LINE",
"884 283 LINE",
"334 283 LINE",
"394 565 LINE",
"875 565 LINE",
"935 848 LINE",
"454 848 LINE",
"511 1117 LINE",
"1061 1117 LINE",
"1121 1400 LINE",
"288 1400 LINE",
"-10 0 LINE",
"469 0 LINE",
"269 -180 LINE",
"392 -369 LINE"
);
},
{
closed = 1;
nodes = (
"306 -180 LINE",
"507 0 LINE",
"513 27 LINE",
"23 27 LINE",
"309 1373 LINE",
"1088 1373 LINE",
"1040 1144 LINE",
"490 1144 LINE",
"421 821 LINE",
"902 821 LINE",
"853 592 LINE",
"372 592 LINE",
"301 256 LINE",
"851 256 LINE",
"802 27 LINE",
"683 27 LINE",
"432 -180 LINE",
"477 -239 LINE",
"699 -239 LINE",
"677 -342 LINE",
"414 -342 LINE"
);
}
);
width = 1033;
},
{
layerId = "890EBC54-9394-463B-B2A5-6ADD509C07AA";
paths = (
{
closed = 1;
nodes = (
"697 -369 LINE",
"730 -212 LINE",
"495 -212 LINE",
"472 -180 LINE",
"690 0 LINE",
"823 0 LINE",
"884 283 LINE",
"334 283 LINE",
"394 565 LINE",
"875 565 LINE",
"935 848 LINE",
"454 848 LINE",
"511 1117 LINE",
"1061 1117 LINE",
"1121 1400 LINE",
"288 1400 LINE",
"-10 0 LINE",
"469 0 LINE",
"269 -180 LINE",
"392 -369 LINE"
);
},
{
closed = 1;
nodes = (
"348 -180 LINE",
"709 132 LINE",
"709 132 LINE",
"149 132 LINE",
"393 1276 LINE",
"985 1276 LINE",
"979 1248 LINE",
"415 1248 LINE",
"303 721 LINE",
"797 721 LINE",
"791 693 LINE",
"297 693 LINE",
"183 160 LINE",
"747 160 LINE",
"741 132 LINE",
"741 132 LINE",
"384 -180 LINE",
"451 -277 LINE",
"650 -277 LINE",
"644 -304 LINE",
"432 -304 LINE"
);
}
);
width = 1033;
},
{
layerId = "E606EEE5-03C7-423E-87C5-22C033DDF210";
paths = (
{
closed = 1;
nodes = (
"697 -369 LINE",
"730 -212 LINE",
"495 -212 LINE",
"472 -180 LINE",
"690 0 LINE",
"823 0 LINE",
"884 283 LINE",
"334 283 LINE",
"394 565 LINE",
"875 565 LINE",
"935 848 LINE",
"454 848 LINE",
"511 1117 LINE",
"1061 1117 LINE",
"1121 1400 LINE",
"288 1400 LINE",
"-10 0 LINE",
"469 0 LINE",
"269 -180 LINE",
"392 -369 LINE"
);
},
{
closed = 1;
nodes = (
"366 -180 LINE",
"734 142 LINE",
"734 142 LINE",
"166 142 LINE",
"403 1259 LINE",
"967 1259 LINE",
"967 1259 LINE",
"403 1259 LINE",
"286 707 LINE",
"774 707 LINE",
"774 707 LINE",
"286 707 LINE",
"166 142 LINE",
"734 142 LINE",
"734 142 LINE",
"734 142 LINE",
"366 -180 LINE",
"440 -290 LINE",
"627 -290 LINE",
"627 -290 LINE",
"440 -290 LINE"
);
}
);
width = 1033;
}
);
unicode = 0118;
},
{
color = 6;
glyphname = F;
lastChange = "2021-04-27 15:17:23 +0000";
layers = (
{
anchors = (
{
name = bottom;
position = "{604, 0}";
},
{
name = top;
position = "{902, 1400}";
}
);
layerId = "C350CEFC-842E-49B2-BD8E-B76FC625146E";
paths = (
{
closed = 1;
nodes = (
"264 0 LINE",
"384 565 LINE",
"1259 565 LINE",
"1319 848 LINE",
"444 848 LINE",
"502 1117 LINE",
"1415 1117 LINE",
"1475 1400 LINE",
"279 1400 LINE",
"-19 0 LINE"
);
},
{
closed = 1;
nodes = (
"300 1373 LINE",
"1443 1373 LINE",
"1394 1144 LINE",
"480 1144 LINE",
"412 821 LINE",
"1287 821 LINE",
"1238 592 LINE",
"363 592 LINE",
"243 27 LINE",
"14 27 LINE"
);
}
);
width = 1416;
},
{
anchors = (
{
name = bottom;
position = "{604, 0}";
},
{
name = top;
position = "{902, 1400}";
}
);
layerId = "D1E5EF0F-C706-422D-804F-EC15AC36D3BD";
paths = (
{
closed = 1;
nodes = (
"264 0 LINE",
"384 565 LINE",
"1259 565 LINE",
"1319 848 LINE",
"444 848 LINE",
"502 1117 LINE",
"1415 1117 LINE",
"1475 1400 LINE",
"279 1400 LINE",
"-19 0 LINE"
);
},
{
closed = 1;
nodes = (
"379 1276 LINE",
"1323 1276 LINE",
"1317 1248 LINE",
"401 1248 LINE",
"290 724 LINE",
"1166 724 LINE",
"1160 696 LINE",
"284 696 LINE",
"162 122 LINE",
"134 122 LINE"
);
}
);
width = 1416;
},
{
anchors = (
{
name = bottom;
position = "{604, 0}";
},
{
name = top;
position = "{902, 1400}";
}
);
layerId = "52369092-E1A4-4352-8107-384305BB14D9";
paths = (
{
closed = 1;
nodes = (
"264 0 LINE",
"384 565 LINE",
"1259 565 LINE",
"1319 848 LINE",
"444 848 LINE",
"502 1117 LINE",
"1415 1117 LINE",
"1475 1400 LINE",
"279 1400 LINE",
"-19 0 LINE"
);
},
{
closed = 1;
nodes = (
"390 1258 LINE",
"1300 1258 LINE",
"1300 1259 LINE",
"389 1259 LINE",
"272 710 LINE",
"1143 710 LINE",
"1143 711 LINE",
"272 711 LINE",
"151 142 LINE",
"152 142 LINE"
);
}
);
width = 1416;
},
{
anchors = (
{
name = bottom;
position = "{227, 0}";
},
{
name = top;
position = "{525, 1400}";
}
);
layerId = "688D45B5-F54A-49EF-A5DE-FF449873800E";
paths = (
{
closed = 1;
nodes = (
"234 0 LINE",
"354 565 LINE",
"616 565 LINE",
"676 848 LINE",
"414 848 LINE",
"472 1117 LINE",
"772 1117 LINE",
"832 1400 LINE",
"249 1400 LINE",
"-49 0 LINE"
);
},
{
closed = 1;
nodes = (
"270 1373 LINE",
"800 1373 LINE",
"751 1144 LINE",
"450 1144 LINE",
"382 821 LINE",
"644 821 LINE",
"595 592 LINE",
"333 592 LINE",
"213 27 LINE",
"-16 27 LINE"
);
}
);
width = 743;
},
{
anchors = (
{
name = bottom;
position = "{227, 0}";
},
{
name = top;
position = "{525, 1400}";
}
);
layerId = "890EBC54-9394-463B-B2A5-6ADD509C07AA";
paths = (
{
closed = 1;
nodes = (
"234 0 LINE",
"354 565 LINE",
"616 565 LINE",
"676 848 LINE",
"414 848 LINE",
"472 1117 LINE",
"772 1117 LINE",
"832 1400 LINE",
"249 1400 LINE",
"-49 0 LINE"
);
},
{
closed = 1;
nodes = (
"349 1276 LINE",
"680 1276 LINE",
"674 1248 LINE",
"371 1248 LINE",
"260 724 LINE",
"523 724 LINE",
"517 696 LINE",
"254 696 LINE",
"132 122 LINE",
"104 122 LINE"
);
}
);
width = 743;
},
{
anchors = (
{
name = bottom;
position = "{227, 0}";
},
{
name = top;
position = "{525, 1400}";
}
);
layerId = "E606EEE5-03C7-423E-87C5-22C033DDF210";
paths = (
{
closed = 1;
nodes = (
"234 0 LINE",
"354 565 LINE",
"616 565 LINE",
"676 848 LINE",
"414 848 LINE",
"472 1117 LINE",
"772 1117 LINE",
"832 1400 LINE",
"249 1400 LINE",
"-49 0 LINE"
);
},
{
closed = 1;
nodes = (
"360 1258 LINE",
"657 1258 LINE",
"657 1259 LINE",
"359 1259 LINE",
"242 710 LINE",
"500 710 LINE",
"500 711 LINE",
"242 711 LINE",
"121 142 LINE",
"122 142 LINE"
);
}
);
width = 743;
}
);
leftKerningGroup = H;
leftMetricsKey = O;
rightKerningGroup = F;
rightMetricsKey = T;
unicode = 0046;
},
{
color = 6;
glyphname = G;
lastChange = "2021-04-27 15:17:23 +0000";
layers = (
{
anchors = (
{
name = bottom;
position = "{638, 0}";
},
{
name = top;
position = "{936, 1400}";
}
);
layerId = "C350CEFC-842E-49B2-BD8E-B76FC625146E";
paths = (
{
closed = 1;
nodes = (
"1103 0 LINE",
"1353 206 LINE",
"1472 764 LINE",
"766 764 LINE",
"706 482 LINE",
"1130 482 LINE",
"1100 344 LINE",
"1026 283 LINE",
"383 283 LINE",
"336 343 LINE",
"487 1054 LINE",
"561 1117 LINE",
"1204 1117 LINE",
"1252 1056 LINE",
"1227 942 LINE",
"1509 942 LINE",
"1563 1194 LINE",
"1401 1400 LINE",
"485 1400 LINE",
"235 1194 LINE",
"25 206 LINE",
"187 0 LINE"
);
},
{
closed = 1;
nodes = (
"54 217 LINE",
"260 1183 LINE",
"490 1373 LINE",
"1384 1373 LINE",
"1535 1183 LINE",
"1489 969 LINE",
"1260 969 LINE",
"1281 1067 LINE",
"1220 1144 LINE",
"556 1144 LINE",
"463 1067 LINE",
"306 330 LINE",
"369 256 LINE",
"1032 256 LINE",
"1125 333 LINE",
"1162 508 LINE",
"738 508 LINE",
"787 737 LINE",
"1440 737 LINE",
"1329 217 LINE",
"1098 27 LINE",
"204 27 LINE"
);
}
);
width = 1588;
},
{
anchors = (
{
name = bottom;
position = "{638, 0}";
},
{
name = top;
position = "{936, 1400}";
}
);
layerId = "D1E5EF0F-C706-422D-804F-EC15AC36D3BD";
paths = (
{
closed = 1;
nodes = (
"1103 0 LINE",
"1353 206 LINE",
"1472 764 LINE",
"766 764 LINE",
"706 482 LINE",
"1130 482 LINE",
"1100 344 LINE",
"1026 283 LINE",
"383 283 LINE",
"336 343 LINE",
"487 1054 LINE",
"561 1117 LINE",
"1204 1117 LINE",
"1252 1056 LINE",
"1227 942 LINE",
"1509 942 LINE",
"1563 1194 LINE",
"1401 1400 LINE",
"485 1400 LINE",
"235 1194 LINE",
"25 206 LINE",
"187 0 LINE"
);
},
{
closed = 1;
nodes = (
"169 276 LINE",
"351 1132 LINE",
"525 1276 LINE",
"1309 1276 LINE",
"1423 1132 LINE",
"1408 1062 LINE",
"1380 1062 LINE",
"1393 1124 LINE",
"1293 1248 LINE",
"529 1248 LINE",
"377 1124 LINE",
"199 284 LINE",
"298 160 LINE",
"1062 160 LINE",
"1215 284 LINE",
"1283 606 LINE",
"860 606 LINE",
"866 634 LINE",
"1317 634 LINE",
"1241 276 LINE",
"1066 132 LINE",
"282 132 LINE"
);
}
);
width = 1588;
},
{
anchors = (
{
name = bottom;
position = "{638, 0}";
},
{
name = top;
position = "{936, 1400}";
}
);
layerId = "52369092-E1A4-4352-8107-384305BB14D9";
paths = (
{
closed = 1;
nodes = (
"1103 0 LINE",
"1353 206 LINE",
"1472 764 LINE",
"766 764 LINE",
"706 482 LINE",
"1130 482 LINE",
"1100 344 LINE",
"1026 283 LINE",
"383 283 LINE",
"336 343 LINE",
"487 1054 LINE",
"561 1117 LINE",
"1204 1117 LINE",
"1252 1056 LINE",
"1227 942 LINE",
"1509 942 LINE",
"1563 1194 LINE",
"1401 1400 LINE",
"485 1400 LINE",
"235 1194 LINE",
"25 206 LINE",
"187 0 LINE"
);
},
{
closed = 1;
nodes = (
"183 282 LINE",
"362 1125 LINE",
"525 1259 LINE",
"1306 1259 LINE",
"1407 1125 LINE",
"1396 1072 LINE",
"1396 1072 LINE",
"1407 1125 LINE",
"1306 1259 LINE",
"525 1259 LINE",
"362 1125 LINE",
"183 282 LINE",
"293 142 LINE",
"1058 142 LINE",
"1228 282 LINE",
"1300 620 LINE",
"884 620 LINE",
"884 620 LINE",
"1300 620 LINE",
"1228 282 LINE",
"1058 142 LINE",
"293 142 LINE"
);
}
);
width = 1588;
},
{
anchors = (
{
name = bottom;
position = "{341, 0}";
},
{
name = top;
position = "{639, 1400}";
}
);
layerId = "688D45B5-F54A-49EF-A5DE-FF449873800E";
paths = (
{
closed = 1;
nodes = (
"513 0 LINE",
"763 206 LINE",
"882 764 LINE",
"469 764 LINE",
"409 482 LINE",
"540 482 LINE",
"510 344 LINE",
"436 283 LINE",
"353 283 LINE",
"306 343 LINE",
"457 1054 LINE",
"531 1117 LINE",
"614 1117 LINE",
"662 1056 LINE",
"637 942 LINE",
"919 942 LINE",
"973 1194 LINE",
"811 1400 LINE",
"455 1400 LINE",
"205 1194 LINE",
"-5 206 LINE",
"157 0 LINE"
);
},
{
closed = 1;
nodes = (
"24 217 LINE",
"230 1183 LINE",
"460 1373 LINE",
"794 1373 LINE",
"945 1183 LINE",
"899 969 LINE",
"670 969 LINE",
"691 1067 LINE",
"630 1144 LINE",
"526 1144 LINE",
"433 1067 LINE",
"276 330 LINE",
"339 256 LINE",
"442 256 LINE",
"535 333 LINE",
"572 508 LINE",
"441 508 LINE",
"490 737 LINE",
"850 737 LINE",
"739 217 LINE",
"508 27 LINE",
"174 27 LINE"
);
}
);
width = 968;
},
{
anchors = (
{
name = bottom;
position = "{341, 0}";
},
{
name = top;
position = "{639, 1400}";
}
);
layerId = "890EBC54-9394-463B-B2A5-6ADD509C07AA";
paths = (
{
closed = 1;
nodes = (
"513 0 LINE",
"763 206 LINE",
"882 764 LINE",
"469 764 LINE",
"409 482 LINE",
"540 482 LINE",
"510 344 LINE",
"436 283 LINE",
"353 283 LINE",
"306 343 LINE",
"457 1054 LINE",
"531 1117 LINE",
"614 1117 LINE",
"662 1056 LINE",
"637 942 LINE",
"919 942 LINE",
"973 1194 LINE",
"811 1400 LINE",
"455 1400 LINE",
"205 1194 LINE",
"-5 206 LINE",
"157 0 LINE"
);
},
{
closed = 1;
nodes = (
"139 276 LINE",
"321 1132 LINE",
"495 1276 LINE",
"719 1276 LINE",
"833 1132 LINE",
"818 1062 LINE",
"790 1062 LINE",
"803 1124 LINE",
"703 1248 LINE",
"499 1248 LINE",
"347 1124 LINE",
"169 284 LINE",
"268 160 LINE",
"472 160 LINE",
"625 284 LINE",
"693 606 LINE",
"563 606 LINE",
"569 634 LINE",
"727 634 LINE",
"651 276 LINE",
"476 132 LINE",
"252 132 LINE"
);
}
);
width = 968;
},
{
anchors = (
{
name = bottom;
position = "{341, 0}";
},
{
name = top;
position = "{639, 1400}";
}
);
layerId = "E606EEE5-03C7-423E-87C5-22C033DDF210";
paths = (
{
closed = 1;
nodes = (
"513 0 LINE",
"763 206 LINE",
"882 764 LINE",
"469 764 LINE",
"409 482 LINE",
"540 482 LINE",
"510 344 LINE",
"436 283 LINE",
"353 283 LINE",
"306 343 LINE",
"457 1054 LINE",
"531 1117 LINE",
"614 1117 LINE",
"662 1056 LINE",
"637 942 LINE",
"919 942 LINE",
"973 1194 LINE",
"811 1400 LINE",
"455 1400 LINE",
"205 1194 LINE",
"-5 206 LINE",
"157 0 LINE"
);
},
{
closed = 1;
nodes = (
"153 282 LINE",
"332 1125 LINE",
"495 1259 LINE",
"716 1259 LINE",
"817 1125 LINE",
"806 1072 LINE",
"806 1072 LINE",
"817 1125 LINE",
"716 1259 LINE",
"495 1259 LINE",
"332 1125 LINE",
"153 282 LINE",
"263 142 LINE",
"468 142 LINE",
"638 282 LINE",
"710 620 LINE",
"587 620 LINE",
"587 620 LINE",
"710 620 LINE",
"638 282 LINE",
"468 142 LINE",
"263 142 LINE"
);
}
);
width = 968;
}
);
leftKerningGroup = O;
leftMetricsKey = O;
rightKerningGroup = G;
rightMetricsKey = O;
unicode = 0047;
},
{
color = 6;
glyphname = H;
lastChange = "2021-04-27 15:17:24 +0000";
layers = (
{
anchors = (
{
name = bottom;
position = "{676, 0}";
},
{
name = center;
position = "{1098, 1867}";
},
{
name = top;
position = "{972, 1400}";
},
{
name = topleft;
position = "{57, 1400}";
}
);
layerId = "C350CEFC-842E-49B2-BD8E-B76FC625146E";
paths = (
{
closed = 1;
nodes = (
"274 0 LINE",
"394 565 LINE",
"1194 565 LINE",
"1074 0 LINE",
"1356 0 LINE",
"1654 1400 LINE",
"1372 1400 LINE",
"1254 848 LINE",
"454 848 LINE",
"572 1400 LINE",
"289 1400 LINE",
"-9 0 LINE"
);
},
{
closed = 1;
nodes = (
"310 1373 LINE",
"539 1373 LINE",
"422 821 LINE",
"1276 821 LINE",
"1393 1373 LINE",
"1621 1373 LINE",
"1335 27 LINE",
"1107 27 LINE",
"1227 592 LINE",
"373 592 LINE",
"253 27 LINE",
"24 27 LINE"
);
}
);
width = 1645;
},
{
anchors = (
{
name = bottom;
position = "{676, 0}";
},
{
name = center;
position = "{1098, 1867}";
},
{
name = top;
position = "{972, 1400}";
},
{
name = topleft;
position = "{402, 1400}";
}
);
layerId = "D1E5EF0F-C706-422D-804F-EC15AC36D3BD";
paths = (
{
closed = 1;
nodes = (
"274 0 LINE",
"394 565 LINE",
"1194 565 LINE",
"1074 0 LINE",
"1356 0 LINE",
"1654 1400 LINE",
"1372 1400 LINE",
"1254 848 LINE",
"454 848 LINE",
"572 1400 LINE",
"289 1400 LINE",
"-9 0 LINE"
);
},
{
closed = 1;
nodes = (
"390 1276 LINE",
"418 1276 LINE",
"301 724 LINE",
"1356 724 LINE",
"1473 1276 LINE",
"1501 1276 LINE",
"1257 124 LINE",
"1229 124 LINE",
"1350 696 LINE",
"295 696 LINE",
"174 124 LINE",
"146 124 LINE"
);
}
);
width = 1645;
},
{
anchors = (
{
name = bottom;
position = "{676, 0}";
},
{
name = center;
position = "{1098, 1867}";
},
{
name = top;
position = "{972, 1400}";
},
{
name = topleft;
position = "{57, 1400}";
}
);
layerId = "52369092-E1A4-4352-8107-384305BB14D9";
paths = (
{
closed = 1;
nodes = (
"274 0 LINE",
"394 565 LINE",
"1194 565 LINE",
"1074 0 LINE",
"1356 0 LINE",
"1654 1400 LINE",
"1372 1400 LINE",
"1254 848 LINE",
"454 848 LINE",
"572 1400 LINE",
"289 1400 LINE",
"-9 0 LINE"
);
},
{
closed = 1;
nodes = (
"400 1259 LINE",
"399 1259 LINE",
"281 707 LINE",
"1367 707 LINE",
"1485 1259 LINE",
"1484 1259 LINE",
"1246 142 LINE",
"1247 142 LINE",
"1367 707 LINE",
"281 707 LINE",
"161 142 LINE",
"162 142 LINE"
);
}
);
width = 1645;
},
{
anchors = (
{
name = bottom;
position = "{324, 0}";
},
{
name = center;
position = "{483, 700}";
},
{
name = top;
position = "{622, 1400}";
},
{
name = topleft;
position = "{259, 1400}";
}
);
layerId = "688D45B5-F54A-49EF-A5DE-FF449873800E";
paths = (
{
closed = 1;
nodes = (
"244 0 LINE",
"364 565 LINE",
"524 565 LINE",
"404 0 LINE",
"686 0 LINE",
"984 1400 LINE",
"702 1400 LINE",
"584 848 LINE",
"424 848 LINE",
"542 1400 LINE",
"259 1400 LINE",
"-39 0 LINE"
);
},
{
closed = 1;
nodes = (
"280 1373 LINE",
"509 1373 LINE",
"392 821 LINE",
"606 821 LINE",
"723 1373 LINE",
"951 1373 LINE",
"665 27 LINE",
"437 27 LINE",
"557 592 LINE",
"343 592 LINE",
"223 27 LINE",
"-6 27 LINE"
);
}
);
width = 945;
},
{
anchors = (
{
name = bottom;
position = "{324, 0}";
},
{
name = center;
position = "{483, 700}";
},
{
name = top;
position = "{622, 1400}";
},
{
name = topleft;
position = "{52, 1400}";
}
);
layerId = "890EBC54-9394-463B-B2A5-6ADD509C07AA";
paths = (
{
closed = 1;
nodes = (
"244 0 LINE",
"364 565 LINE",
"524 565 LINE",
"404 0 LINE",
"686 0 LINE",
"984 1400 LINE",
"702 1400 LINE",
"584 848 LINE",
"424 848 LINE",
"542 1400 LINE",
"259 1400 LINE",
"-39 0 LINE"
);
},
{
closed = 1;
nodes = (
"360 1276 LINE",
"388 1276 LINE",
"271 724 LINE",
"686 724 LINE",
"803 1276 LINE",
"831 1276 LINE",
"587 124 LINE",
"559 124 LINE",
"680 696 LINE",
"265 696 LINE",
"144 124 LINE",
"116 124 LINE"
);
}
);
width = 945;
},
{
anchors = (
{
name = bottom;
position = "{324, 0}";
},
{
name = center;
position = "{483, 700}";
},
{
name = top;
position = "{622, 1400}";
},
{
name = topleft;
position = "{259, 1400}";
}
);
layerId = "E606EEE5-03C7-423E-87C5-22C033DDF210";
paths = (
{
closed = 1;
nodes = (
"244 0 LINE",
"364 565 LINE",
"524 565 LINE",
"404 0 LINE",
"686 0 LINE",
"984 1400 LINE",
"702 1400 LINE",
"584 848 LINE",
"424 848 LINE",
"542 1400 LINE",
"259 1400 LINE",
"-39 0 LINE"
);
},
{
closed = 1;
nodes = (
"370 1259 LINE",
"369 1259 LINE",
"251 707 LINE",
"697 707 LINE",
"815 1259 LINE",
"814 1259 LINE",
"576 142 LINE",
"577 142 LINE",
"697 707 LINE",
"251 707 LINE",
"131 142 LINE",
"132 142 LINE"
);
}
);
width = 945;
}
);
leftKerningGroup = H;
rightKerningGroup = H;
unicode = 0048;
},
{
color = 6;
glyphname = Hbar;
lastChange = "2021-04-27 15:17:23 +0000";
layers = (
{
layerId = "C350CEFC-842E-49B2-BD8E-B76FC625146E";
paths = (
{
closed = 1;
nodes = (
"291 0 LINE",
"411 565 LINE",
"811 565 LINE",
"691 0 LINE",
"974 0 LINE",
"1182 979 LINE",
"1282 979 LINE",
"1335 1225 LINE",
"1235 1225 LINE",
"1272 1400 LINE",
"989 1400 LINE",
"952 1225 LINE",
"552 1225 LINE",
"589 1400 LINE",
"306 1400 LINE",
"269 1225 LINE",
"160 1225 LINE",
"107 979 LINE",
"216 979 LINE",
"8 0 LINE"
);
},
{
closed = 1;
nodes = (
"249 1006 LINE",
"139 1006 LINE",
"180 1198 LINE",
"290 1198 LINE",
"327 1373 LINE",
"556 1373 LINE",
"519 1198 LINE",
"973 1198 LINE",
"1010 1373 LINE",
"1239 1373 LINE",
"1202 1198 LINE",
"1302 1198 LINE",
"1261 1006 LINE",
"1161 1006 LINE",
"953 27 LINE",
"724 27 LINE",
"844 592 LINE",
"390 592 LINE",
"270 27 LINE",
"41 27 LINE"
);
},
{
closed = 1;
nodes = (
"893 821 LINE",
"932 1006 LINE",
"478 1006 LINE",
"439 821 LINE"
);
},
{
closed = 1;
nodes = (
"499 979 LINE",
"899 979 LINE",
"871 848 LINE",
"471 848 LINE"
);
}
);
width = 1300;
},
{
layerId = "D1E5EF0F-C706-422D-804F-EC15AC36D3BD";
paths = (
{
closed = 1;
nodes = (
"291 0 LINE",
"411 565 LINE",
"811 565 LINE",
"691 0 LINE",
"974 0 LINE",
"1182 979 LINE",
"1282 979 LINE",
"1335 1225 LINE",
"1235 1225 LINE",
"1272 1400 LINE",
"989 1400 LINE",
"952 1225 LINE",
"552 1225 LINE",
"589 1400 LINE",
"306 1400 LINE",
"269 1225 LINE",
"160 1225 LINE",
"107 979 LINE",
"216 979 LINE",
"8 0 LINE"
);
},
{
closed = 1;
nodes = (
"370 1101 LINE",
"241 1101 LINE",
"247 1129 LINE",
"376 1129 LINE",
"410 1286 LINE",
"438 1286 LINE",
"404 1129 LINE",
"1058 1129 LINE",
"1092 1286 LINE",
"1120 1286 LINE",
"1086 1129 LINE",
"1215 1129 LINE",
"1209 1101 LINE",
"1080 1101 LINE",
"872 122 LINE",
"844 122 LINE",
"966 696 LINE",
"312 696 LINE",
"190 122 LINE",
"162 122 LINE"
);
},
{
closed = 1;
nodes = (
"972 724 LINE",
"1052 1101 LINE",
"398 1101 LINE",
"318 724 LINE"
);
},
{
closed = 1;
nodes = (
"499 979 LINE",
"899 979 LINE",
"871 848 LINE",
"471 848 LINE"
);
}
);
width = 1300;
},
{
layerId = "52369092-E1A4-4352-8107-384305BB14D9";
paths = (
{
closed = 1;
nodes = (
"291 0 LINE",
"411 565 LINE",
"811 565 LINE",
"691 0 LINE",
"974 0 LINE",
"1182 979 LINE",
"1282 979 LINE",
"1335 1225 LINE",
"1235 1225 LINE",
"1272 1400 LINE",
"989 1400 LINE",
"952 1225 LINE",
"552 1225 LINE",
"589 1400 LINE",
"306 1400 LINE",
"269 1225 LINE",
"160 1225 LINE",
"107 979 LINE",
"216 979 LINE",
"8 0 LINE"
);
},
{
closed = 1;
nodes = (
"388 1115 LINE",
"264 1115 LINE",
"264 1115 LINE",
"387 1115 LINE",
"418 1259 LINE",
"418 1259 LINE",
"387 1114 LINE",
"1069 1114 LINE",
"1100 1259 LINE",
"1100 1259 LINE",
"1069 1115 LINE",
"1192 1115 LINE",
"1192 1115 LINE",
"1068 1115 LINE",
"861 142 LINE",
"862 142 LINE",
"983 711 LINE",
"301 711 LINE",
"180 142 LINE",
"181 142 LINE"
);
},
{
closed = 1;
nodes = (
"983 710 LINE",
"1069 1115 LINE",
"387 1115 LINE",
"301 710 LINE"
);
},
{
closed = 1;
nodes = (
"499 979 LINE",
"899 979 LINE",
"871 848 LINE",
"471 848 LINE"
);
}
);
width = 1300;
},
{
layerId = "688D45B5-F54A-49EF-A5DE-FF449873800E";
paths = (
{
closed = 1;
nodes = (
"261 0 LINE",
"381 565 LINE",
"781 565 LINE",
"661 0 LINE",
"944 0 LINE",
"1152 979 LINE",
"1252 979 LINE",
"1305 1225 LINE",
"1205 1225 LINE",
"1242 1400 LINE",
"959 1400 LINE",
"922 1225 LINE",
"522 1225 LINE",
"559 1400 LINE",
"276 1400 LINE",
"239 1225 LINE",
"130 1225 LINE",
"77 979 LINE",
"186 979 LINE",
"-22 0 LINE"
);
},
{
closed = 1;
nodes = (
"219 1006 LINE",
"109 1006 LINE",
"150 1198 LINE",
"260 1198 LINE",
"297 1373 LINE",
"526 1373 LINE",
"489 1198 LINE",
"943 1198 LINE",
"980 1373 LINE",
"1209 1373 LINE",
"1172 1198 LINE",
"1272 1198 LINE",
"1231 1006 LINE",
"1131 1006 LINE",
"923 27 LINE",
"694 27 LINE",
"814 592 LINE",
"360 592 LINE",
"240 27 LINE",
"11 27 LINE"
);
},
{
closed = 1;
nodes = (
"863 821 LINE",
"902 1006 LINE",
"448 1006 LINE",
"409 821 LINE"
);
},
{
closed = 1;
nodes = (
"469 979 LINE",
"869 979 LINE",
"841 848 LINE",
"441 848 LINE"
);
}
);
width = 1240;
},
{
layerId = "890EBC54-9394-463B-B2A5-6ADD509C07AA";
paths = (
{
closed = 1;
nodes = (
"261 0 LINE",
"381 565 LINE",
"781 565 LINE",
"661 0 LINE",
"944 0 LINE",
"1152 979 LINE",
"1252 979 LINE",
"1305 1225 LINE",
"1205 1225 LINE",
"1242 1400 LINE",
"959 1400 LINE",
"922 1225 LINE",
"522 1225 LINE",
"559 1400 LINE",
"276 1400 LINE",
"239 1225 LINE",
"130 1225 LINE",
"77 979 LINE",
"186 979 LINE",
"-22 0 LINE"
);
},
{
closed = 1;
nodes = (
"340 1101 LINE",
"211 1101 LINE",
"217 1129 LINE",
"346 1129 LINE",
"380 1286 LINE",
"408 1286 LINE",
"374 1129 LINE",
"1028 1129 LINE",
"1062 1286 LINE",
"1090 1286 LINE",
"1056 1129 LINE",
"1185 1129 LINE",
"1179 1101 LINE",
"1050 1101 LINE",
"842 122 LINE",
"814 122 LINE",
"936 696 LINE",
"282 696 LINE",
"160 122 LINE",
"132 122 LINE"
);
},
{
closed = 1;
nodes = (
"942 724 LINE",
"1022 1101 LINE",
"368 1101 LINE",
"288 724 LINE"
);
},
{
closed = 1;
nodes = (
"469 979 LINE",
"869 979 LINE",
"841 848 LINE",
"441 848 LINE"
);
}
);
width = 1240;
},
{
layerId = "E606EEE5-03C7-423E-87C5-22C033DDF210";
paths = (
{
closed = 1;
nodes = (
"261 0 LINE",
"381 565 LINE",
"781 565 LINE",
"661 0 LINE",
"944 0 LINE",
"1152 979 LINE",
"1252 979 LINE",
"1305 1225 LINE",
"1205 1225 LINE",
"1242 1400 LINE",
"959 1400 LINE",
"922 1225 LINE",
"522 1225 LINE",
"559 1400 LINE",
"276 1400 LINE",
"239 1225 LINE",
"130 1225 LINE",
"77 979 LINE",
"186 979 LINE",
"-22 0 LINE"
);
},
{
closed = 1;
nodes = (
"358 1115 LINE",
"234 1115 LINE",
"234 1115 LINE",
"357 1115 LINE",
"388 1259 LINE",
"388 1259 LINE",
"357 1114 LINE",
"1039 1114 LINE",
"1070 1259 LINE",
"1070 1259 LINE",
"1039 1115 LINE",
"1162 1115 LINE",
"1162 1115 LINE",
"1038 1115 LINE",
"831 142 LINE",
"832 142 LINE",
"953 711 LINE",
"271 711 LINE",
"150 142 LINE",
"151 142 LINE"
);
},
{
closed = 1;
nodes = (
"953 710 LINE",
"1039 1115 LINE",
"357 1115 LINE",
"271 710 LINE"
);
},
{
closed = 1;
nodes = (
"469 979 LINE",
"869 979 LINE",
"841 848 LINE",
"441 848 LINE"
);
}
);
width = 1240;
}
);
leftKerningGroup = H;
rightKerningGroup = H;
unicode = 0126;
},
{
color = 6;
glyphname = I;
lastChange = "2021-04-27 15:17:23 +0000";
layers = (
{
anchors = (
{
name = bottom;
position = "{529, 0}";
},
{
name = ogonek;
position = "{1350, 10}";
},
{
name = top;
position = "{827, 1400}";
},
{
name = topleft;
position = "{122, 1400}";
}
);
layerId = "C350CEFC-842E-49B2-BD8E-B76FC625146E";
paths = (
{
closed = 1;
nodes = (
"1076 0 LINE",
"1136 283 LINE",
"730 283 LINE",
"908 1117 LINE",
"1314 1117 LINE",
"1374 1400 LINE",
"279 1400 LINE",
"219 1117 LINE",
"626 1117 LINE",
"448 283 LINE",
"41 283 LINE",
"-19 0 LINE"
);
},
{
closed = 1;
nodes = (
"63 256 LINE",
"470 256 LINE",
"658 1144 LINE",
"251 1144 LINE",
"300 1373 LINE",
"1341 1373 LINE",
"1292 1144 LINE",
"886 1144 LINE",
"698 256 LINE",
"1104 256 LINE",
"1055 27 LINE",
"14 27 LINE"
);
}
);
width = 1355;
},
{
anchors = (
{
name = bottom;
position = "{529, 0}";
},
{
name = ogonek;
position = "{1350, 10}";
},
{
name = top;
position = "{827, 1400}";
},
{
name = topleft;
position = "{122, 1400}";
}
);
layerId = "D1E5EF0F-C706-422D-804F-EC15AC36D3BD";
paths = (
{
closed = 1;
nodes = (
"1076 0 LINE",
"1136 283 LINE",
"730 283 LINE",
"908 1117 LINE",
"1314 1117 LINE",
"1374 1400 LINE",
"279 1400 LINE",
"219 1117 LINE",
"626 1117 LINE",
"448 283 LINE",
"41 283 LINE",
"-19 0 LINE"
);
},
{
closed = 1;
nodes = (
"140 154 LINE",
"538 154 LINE",
"770 1248 LINE",
"372 1248 LINE",
"378 1276 LINE",
"1222 1276 LINE",
"1216 1248 LINE",
"798 1248 LINE",
"566 154 LINE",
"984 154 LINE",
"978 126 LINE",
"134 126 LINE"
);
}
);
width = 1355;
},
{
anchors = (
{
name = bottom;
position = "{529, 0}";
},
{
name = ogonek;
position = "{1350, 10}";
},
{
name = top;
position = "{827, 1400}";
},
{
name = topleft;
position = "{122, 1400}";
}
);
layerId = "52369092-E1A4-4352-8107-384305BB14D9";
paths = (
{
closed = 1;
nodes = (
"1076 0 LINE",
"1136 283 LINE",
"730 283 LINE",
"908 1117 LINE",
"1314 1117 LINE",
"1374 1400 LINE",
"279 1400 LINE",
"219 1117 LINE",
"626 1117 LINE",
"448 283 LINE",
"41 283 LINE",
"-19 0 LINE"
);
},
{
closed = 1;
nodes = (
"137 142 LINE",
"559 142 LINE",
"797 1259 LINE",
"375 1259 LINE",
"375 1259 LINE",
"1219 1259 LINE",
"1219 1259 LINE",
"797 1259 LINE",
"559 142 LINE",
"981 142 LINE",
"981 142 LINE",
"137 142 LINE"
);
}
);
width = 1355;
},
{
anchors = (
{
name = bottom;
position = "{232, 0}";
},
{
name = ogonek;
position = "{395, 10}";
},
{
name = top;
position = "{530, 1400}";
},
{
name = topleft;
position = "{249, 1400}";
}
);
layerId = "688D45B5-F54A-49EF-A5DE-FF449873800E";
paths = (
{
closed = 1;
nodes = (
"513 0 LINE",
"573 283 LINE",
"433 283 LINE",
"611 1117 LINE",
"751 1117 LINE",
"811 1400 LINE",
"249 1400 LINE",
"189 1117 LINE",
"329 1117 LINE",
"151 283 LINE",
"11 283 LINE",
"-49 0 LINE"
);
},
{
closed = 1;
nodes = (
"33 256 LINE",
"173 256 LINE",
"361 1144 LINE",
"221 1144 LINE",
"270 1373 LINE",
"778 1373 LINE",
"729 1144 LINE",
"589 1144 LINE",
"401 256 LINE",
"541 256 LINE",
"492 27 LINE",
"-16 27 LINE"
);
}
);
width = 762;
},
{
anchors = (
{
name = bottom;
position = "{232, 0}";
},
{
name = ogonek;
position = "{395, 10}";
},
{
name = top;
position = "{530, 1400}";
},
{
name = topleft;
position = "{249, 1400}";
}
);
layerId = "890EBC54-9394-463B-B2A5-6ADD509C07AA";
paths = (
{
closed = 1;
nodes = (
"513 0 LINE",
"573 283 LINE",
"433 283 LINE",
"611 1117 LINE",
"751 1117 LINE",
"811 1400 LINE",
"249 1400 LINE",
"189 1117 LINE",
"329 1117 LINE",
"151 283 LINE",
"11 283 LINE",
"-49 0 LINE"
);
},
{
closed = 1;
nodes = (
"110 154 LINE",
"241 154 LINE",
"473 1248 LINE",
"342 1248 LINE",
"348 1276 LINE",
"659 1276 LINE",
"653 1248 LINE",
"501 1248 LINE",
"269 154 LINE",
"421 154 LINE",
"415 126 LINE",
"104 126 LINE"
);
}
);
width = 762;
},
{
anchors = (
{
name = bottom;
position = "{232, 0}";
},
{
name = ogonek;
position = "{395, 10}";
},
{
name = top;
position = "{530, 1400}";
},
{
name = topleft;
position = "{249, 1400}";
}
);
layerId = "E606EEE5-03C7-423E-87C5-22C033DDF210";
paths = (
{
closed = 1;
nodes = (
"513 0 LINE",
"573 283 LINE",
"433 283 LINE",
"611 1117 LINE",
"751 1117 LINE",
"811 1400 LINE",
"249 1400 LINE",
"189 1117 LINE",
"329 1117 LINE",
"151 283 LINE",
"11 283 LINE",
"-49 0 LINE"
);
},
{
closed = 1;
nodes = (
"107 142 LINE",
"262 142 LINE",
"500 1259 LINE",
"345 1259 LINE",
"345 1259 LINE",
"656 1259 LINE",
"656 1259 LINE",
"500 1259 LINE",
"262 142 LINE",
"418 142 LINE",
"418 142 LINE",
"107 142 LINE"
);
}
);
width = 762;
}
);
leftKerningGroup = H;
leftMetricsKey = O;
rightKerningGroup = H;
rightMetricsKey = O;
unicode = 0049;
},
{
color = 6;
glyphname = I.ss01;
lastChange = "2021-04-27 15:17:25 +0000";
layers = (
{
anchors = (
{
name = bottom;
position = "{160, 0}";
},
{
name = ogonek;
position = "{409, 10}";
},
{
name = top;
position = "{458, 1400}";
},
{
name = topleft;
position = "{219, 1400}";
}
);
layerId = "C350CEFC-842E-49B2-BD8E-B76FC625146E";
paths = (
{
closed = 1;
nodes = (
"301 0 LINE",
"599 1400 LINE",
"317 1400 LINE",
"19 0 LINE"
);
},
{
closed = 1;
nodes = (
"338 1373 LINE",
"566 1373 LINE",
"280 27 LINE",
"52 27 LINE"
);
}
);
width = 618;
},
{
anchors = (
{
name = bottom;
position = "{160, 0}";
},
{
name = ogonek;
position = "{409, 10}";
},
{
name = top;
position = "{458, 1400}";
},
{
name = topleft;
position = "{219, 1400}";
}
);
layerId = "D1E5EF0F-C706-422D-804F-EC15AC36D3BD";
paths = (
{
closed = 1;
nodes = (
"301 0 LINE",
"599 1400 LINE",
"317 1400 LINE",
"19 0 LINE"
);
},
{
closed = 1;
nodes = (
"424 1296 LINE",
"452 1296 LINE",
"200 112 LINE",
"172 112 LINE"
);
}
);
width = 618;
},
{
anchors = (
{
name = bottom;
position = "{160, 0}";
},
{
name = ogonek;
position = "{409, 10}";
},
{
name = top;
position = "{458, 1400}";
},
{
name = topleft;
position = "{219, 1400}";
}
);
layerId = "52369092-E1A4-4352-8107-384305BB14D9";
paths = (
{
closed = 1;
nodes = (
"301 0 LINE",
"599 1400 LINE",
"317 1400 LINE",
"19 0 LINE"
);
},
{
closed = 1;
nodes = (
"431 1259 LINE",
"430 1259 LINE",
"192 142 LINE",
"193 142 LINE"
);
}
);
width = 618;
},
{
anchors = (
{
name = bottom;
position = "{130, 0}";
},
{
name = ogonek;
position = "{379, 10}";
},
{
name = top;
position = "{428, 1400}";
},
{
name = topleft;
position = "{189, 1400}";
}
);
layerId = "688D45B5-F54A-49EF-A5DE-FF449873800E";
paths = (
{
closed = 1;
nodes = (
"271 0 LINE",
"569 1400 LINE",
"287 1400 LINE",
"-11 0 LINE"
);
},
{
closed = 1;
nodes = (
"308 1373 LINE",
"536 1373 LINE",
"250 27 LINE",
"22 27 LINE"
);
}
);
width = 558;
},
{
anchors = (
{
name = bottom;
position = "{130, 0}";
},
{
name = ogonek;
position = "{379, 10}";
},
{
name = top;
position = "{428, 1400}";
},
{
name = topleft;
position = "{189, 1400}";
}
);
layerId = "890EBC54-9394-463B-B2A5-6ADD509C07AA";
paths = (
{
closed = 1;
nodes = (
"271 0 LINE",
"569 1400 LINE",
"287 1400 LINE",
"-11 0 LINE"
);
},
{
closed = 1;
nodes = (
"394 1296 LINE",
"422 1296 LINE",
"170 112 LINE",
"142 112 LINE"
);
}
);
width = 558;
},
{
anchors = (
{
name = bottom;
position = "{130, 0}";
},
{
name = ogonek;
position = "{379, 10}";
},
{
name = top;
position = "{428, 1400}";
},
{
name = topleft;
position = "{189, 1400}";
}
);
layerId = "E606EEE5-03C7-423E-87C5-22C033DDF210";
paths = (
{
closed = 1;
nodes = (
"271 0 LINE",
"569 1400 LINE",
"287 1400 LINE",
"-11 0 LINE"
);
},
{
closed = 1;
nodes = (
"401 1259 LINE",
"400 1259 LINE",
"162 142 LINE",
"163 142 LINE"
);
}
);
width = 558;
}
);
leftKerningGroup = H;
rightKerningGroup = H;
},
{
color = 6;
glyphname = Iogonek;
lastChange = "2021-04-27 15:17:24 +0000";
layers = (
{
layerId = "C350CEFC-842E-49B2-BD8E-B76FC625146E";
paths = (
{
closed = 1;
nodes = (
"514 -368 LINE",
"547 -211 LINE",
"312 -211 LINE",
"289 -179 LINE",
"506 0 LINE",
"781 0 LINE",
"841 283 LINE",
"601 283 LINE",
"779 1117 LINE",
"1019 1117 LINE",
"1079 1400 LINE",
"317 1400 LINE",
"257 1117 LINE",
"497 1117 LINE",
"319 283 LINE",
"79 283 LINE",
"19 0 LINE",
"285 0 LINE",
"86 -179 LINE",
"209 -368 LINE"
);
},
{
closed = 1;
nodes = (
"123 -179 LINE",
"354 27 LINE",
"52 27 LINE",
"101 256 LINE",
"341 256 LINE",
"529 1144 LINE",
"289 1144 LINE",
"338 1373 LINE",
"1046 1373 LINE",
"997 1144 LINE",
"757 1144 LINE",
"569 256 LINE",
"809 256 LINE",
"760 27 LINE",
"501 27 LINE",
"249 -179 LINE",
"294 -238 LINE",
"516 -238 LINE",
"494 -341 LINE",
"231 -341 LINE"
);
}
);
width = 1020;
},
{
layerId = "D1E5EF0F-C706-422D-804F-EC15AC36D3BD";
paths = (
{
closed = 1;
nodes = (
"514 -368 LINE",
"547 -211 LINE",
"312 -211 LINE",
"289 -179 LINE",
"506 0 LINE",
"781 0 LINE",
"841 283 LINE",
"601 283 LINE",
"779 1117 LINE",
"1019 1117 LINE",
"1079 1400 LINE",
"317 1400 LINE",
"257 1117 LINE",
"497 1117 LINE",
"319 283 LINE",
"79 283 LINE",
"19 0 LINE",
"285 0 LINE",
"86 -179 LINE",
"209 -368 LINE"
);
},
{
closed = 1;
nodes = (
"173 -180 LINE",
"525 126 LINE",
"162 126 LINE",
"168 154 LINE",
"409 154 LINE",
"642 1248 LINE",
"401 1248 LINE",
"407 1276 LINE",
"938 1276 LINE",
"932 1248 LINE",
"670 1248 LINE",
"437 154 LINE",
"699 154 LINE",
"693 126 LINE",
"560 126 LINE",
"209 -180 LINE",
"275 -277 LINE",
"474 -277 LINE",
"469 -304 LINE",
"257 -304 LINE"
);
}
);
width = 1020;
},
{
layerId = "52369092-E1A4-4352-8107-384305BB14D9";
paths = (
{
closed = 1;
nodes = (
"514 -368 LINE",
"547 -211 LINE",
"312 -211 LINE",
"289 -179 LINE",
"506 0 LINE",
"781 0 LINE",
"841 283 LINE",
"601 283 LINE",
"779 1117 LINE",
"1019 1117 LINE",
"1079 1400 LINE",
"317 1400 LINE",
"257 1117 LINE",
"497 1117 LINE",
"319 283 LINE",
"79 283 LINE",
"19 0 LINE",
"285 0 LINE",
"86 -179 LINE",
"209 -368 LINE"
);
},
{
closed = 1;
nodes = (
"188 -180 LINE",
"559 142 LINE",
"187 142 LINE",
"186 142 LINE",
"420 142 LINE",
"657 1259 LINE",
"415 1259 LINE",
"414 1259 LINE",
"922 1259 LINE",
"923 1259 LINE",
"657 1259 LINE",
"420 142 LINE",
"676 142 LINE",
"677 142 LINE",
"559 142 LINE",
"188 -180 LINE",
"260 -289 LINE",
"451 -289 LINE",
"452 -289 LINE",
"260 -289 LINE"
);
}
);
width = 1020;
},
{
layerId = "688D45B5-F54A-49EF-A5DE-FF449873800E";
paths = (
{
closed = 1;
nodes = (
"484 -368 LINE",
"517 -211 LINE",
"282 -211 LINE",
"259 -179 LINE",
"476 0 LINE",
"751 0 LINE",
"811 283 LINE",
"571 283 LINE",
"749 1117 LINE",
"989 1117 LINE",
"1049 1400 LINE",
"287 1400 LINE",
"227 1117 LINE",
"467 1117 LINE",
"289 283 LINE",
"49 283 LINE",
"-11 0 LINE",
"255 0 LINE",
"56 -179 LINE",
"179 -368 LINE"
);
},
{
closed = 1;
nodes = (
"93 -179 LINE",
"324 27 LINE",
"22 27 LINE",
"71 256 LINE",
"311 256 LINE",
"499 1144 LINE",
"259 1144 LINE",
"308 1373 LINE",
"1016 1373 LINE",
"967 1144 LINE",
"727 1144 LINE",
"539 256 LINE",
"779 256 LINE",
"730 27 LINE",
"471 27 LINE",
"219 -179 LINE",
"264 -238 LINE",
"486 -238 LINE",
"464 -341 LINE",
"201 -341 LINE"
);
}
);
width = 960;
},
{
layerId = "890EBC54-9394-463B-B2A5-6ADD509C07AA";
paths = (
{
closed = 1;
nodes = (
"484 -368 LINE",
"517 -211 LINE",
"282 -211 LINE",
"259 -179 LINE",
"476 0 LINE",
"751 0 LINE",
"811 283 LINE",
"571 283 LINE",
"749 1117 LINE",
"989 1117 LINE",
"1049 1400 LINE",
"287 1400 LINE",
"227 1117 LINE",
"467 1117 LINE",
"289 283 LINE",
"49 283 LINE",
"-11 0 LINE",
"255 0 LINE",
"56 -179 LINE",
"179 -368 LINE"
);
},
{
closed = 1;
nodes = (
"143 -180 LINE",
"495 126 LINE",
"132 126 LINE",
"138 154 LINE",
"379 154 LINE",
"612 1248 LINE",
"371 1248 LINE",
"377 1276 LINE",
"908 1276 LINE",
"902 1248 LINE",
"640 1248 LINE",
"407 154 LINE",
"669 154 LINE",
"663 126 LINE",
"530 126 LINE",
"179 -180 LINE",
"245 -277 LINE",
"444 -277 LINE",
"439 -304 LINE",
"227 -304 LINE"
);
}
);
width = 960;
},
{
layerId = "E606EEE5-03C7-423E-87C5-22C033DDF210";
paths = (
{
closed = 1;
nodes = (
"484 -368 LINE",
"517 -211 LINE",
"282 -211 LINE",
"259 -179 LINE",
"476 0 LINE",
"751 0 LINE",
"811 283 LINE",
"571 283 LINE",
"749 1117 LINE",
"989 1117 LINE",
"1049 1400 LINE",
"287 1400 LINE",
"227 1117 LINE",
"467 1117 LINE",
"289 283 LINE",
"49 283 LINE",
"-11 0 LINE",
"255 0 LINE",
"56 -179 LINE",
"179 -368 LINE"
);
},
{
closed = 1;
nodes = (
"158 -180 LINE",
"529 142 LINE",
"157 142 LINE",
"156 142 LINE",
"390 142 LINE",
"627 1259 LINE",
"385 1259 LINE",
"384 1259 LINE",
"892 1259 LINE",
"893 1259 LINE",
"627 1259 LINE",
"390 142 LINE",
"646 142 LINE",
"647 142 LINE",
"529 142 LINE",
"158 -180 LINE",
"230 -289 LINE",
"421 -289 LINE",
"422 -289 LINE",
"230 -289 LINE"
);
}
);
width = 960;
}
);
unicode = 012E;
},
{
color = 6;
glyphname = J;
lastChange = "2021-04-27 15:17:24 +0000";
layers = (
{
anchors = (
{
name = bottom;
position = "{640, 0}";
},
{
name = top;
position = "{1018, 1400}";
}
);
layerId = "C350CEFC-842E-49B2-BD8E-B76FC625146E";
paths = (
{
closed = 1;
nodes = (
"1013 0 LINE",
"1264 206 LINE",
"1518 1400 LINE",
"470 1400 LINE",
"410 1117 LINE",
"1175 1117 LINE",
"1010 344 LINE",
"936 283 LINE",
"385 283 LINE",
"337 344 LINE",
"384 563 LINE",
"101 563 LINE",
"25 206 LINE",
"188 0 LINE"
);
},
{
closed = 1;
nodes = (
"54 217 LINE",
"122 537 LINE",
"351 537 LINE",
"308 333 LINE",
"369 256 LINE",
"942 256 LINE",
"1035 333 LINE",
"1207 1144 LINE",
"442 1144 LINE",
"491 1373 LINE",
"1485 1373 LINE",
"1239 217 LINE",
"1008 27 LINE",
"205 27 LINE"
);
}
);
width = 1499;
},
{
anchors = (
{
name = bottom;
position = "{640, 0}";
},
{
name = top;
position = "{1018, 1400}";
}
);
layerId = "D1E5EF0F-C706-422D-804F-EC15AC36D3BD";
paths = (
{
closed = 1;
nodes = (
"1013 0 LINE",
"1264 206 LINE",
"1518 1400 LINE",
"470 1400 LINE",
"410 1117 LINE",
"1175 1117 LINE",
"1010 344 LINE",
"936 283 LINE",
"385 283 LINE",
"337 344 LINE",
"384 563 LINE",
"101 563 LINE",
"25 206 LINE",
"188 0 LINE"
);
},
{
closed = 1;
nodes = (
"168 278 LINE",
"202 438 LINE",
"230 438 LINE",
"198 287 LINE",
"298 162 LINE",
"979 162 LINE",
"1131 287 LINE",
"1335 1248 LINE",
"558 1248 LINE",
"564 1276 LINE",
"1369 1276 LINE",
"1157 278 LINE",
"983 134 LINE",
"282 134 LINE"
);
}
);
width = 1499;
},
{
anchors = (
{
name = bottom;
position = "{640, 0}";
},
{
name = top;
position = "{1018, 1400}";
}
);
layerId = "52369092-E1A4-4352-8107-384305BB14D9";
paths = (
{
closed = 1;
nodes = (
"1013 0 LINE",
"1264 206 LINE",
"1518 1400 LINE",
"470 1400 LINE",
"410 1117 LINE",
"1175 1117 LINE",
"1010 344 LINE",
"936 283 LINE",
"385 283 LINE",
"337 344 LINE",
"384 563 LINE",
"101 563 LINE",
"25 206 LINE",
"188 0 LINE"
);
},
{
closed = 1;
nodes = (
"182 283 LINE",
"214 432 LINE",
"214 432 LINE",
"182 283 LINE",
"289 147 LINE",
"976 147 LINE",
"1146 286 LINE",
"1353 1259 LINE",
"583 1259 LINE",
"583 1259 LINE",
"1353 1259 LINE",
"1146 286 LINE",
"976 147 LINE",
"289 147 LINE"
);
}
);
width = 1499;
},
{
anchors = (
{
name = bottom;
position = "{317, 0}";
},
{
name = top;
position = "{695, 1400}";
}
);
layerId = "688D45B5-F54A-49EF-A5DE-FF449873800E";
paths = (
{
closed = 1;
nodes = (
"476 0 LINE",
"727 206 LINE",
"981 1400 LINE",
"440 1400 LINE",
"380 1117 LINE",
"638 1117 LINE",
"473 344 LINE",
"399 283 LINE",
"355 283 LINE",
"307 344 LINE",
"354 563 LINE",
"71 563 LINE",
"-5 206 LINE",
"158 0 LINE"
);
},
{
closed = 1;
nodes = (
"24 217 LINE",
"92 537 LINE",
"321 537 LINE",
"278 333 LINE",
"339 256 LINE",
"405 256 LINE",
"498 333 LINE",
"670 1144 LINE",
"412 1144 LINE",
"461 1373 LINE",
"948 1373 LINE",
"702 217 LINE",
"471 27 LINE",
"175 27 LINE"
);
}
);
width = 932;
},
{
anchors = (
{
name = bottom;
position = "{317, 0}";
},
{
name = top;
position = "{695, 1400}";
}
);
layerId = "890EBC54-9394-463B-B2A5-6ADD509C07AA";
paths = (
{
closed = 1;
nodes = (
"476 0 LINE",
"727 206 LINE",
"981 1400 LINE",
"440 1400 LINE",
"380 1117 LINE",
"638 1117 LINE",
"473 344 LINE",
"399 283 LINE",
"355 283 LINE",
"307 344 LINE",
"354 563 LINE",
"71 563 LINE",
"-5 206 LINE",
"158 0 LINE"
);
},
{
closed = 1;
nodes = (
"138 278 LINE",
"172 438 LINE",
"200 438 LINE",
"168 287 LINE",
"268 162 LINE",
"442 162 LINE",
"594 287 LINE",
"798 1248 LINE",
"528 1248 LINE",
"534 1276 LINE",
"832 1276 LINE",
"620 278 LINE",
"446 134 LINE",
"252 134 LINE"
);
}
);
width = 932;
},
{
anchors = (
{
name = bottom;
position = "{317, 0}";
},
{
name = top;
position = "{695, 1400}";
}
);
layerId = "E606EEE5-03C7-423E-87C5-22C033DDF210";
paths = (
{
closed = 1;
nodes = (
"476 0 LINE",
"727 206 LINE",
"981 1400 LINE",
"440 1400 LINE",
"380 1117 LINE",
"638 1117 LINE",
"473 344 LINE",
"399 283 LINE",
"355 283 LINE",
"307 344 LINE",
"354 563 LINE",
"71 563 LINE",
"-5 206 LINE",
"158 0 LINE"
);
},
{
closed = 1;
nodes = (
"152 283 LINE",
"184 432 LINE",
"184 432 LINE",
"152 283 LINE",
"259 147 LINE",
"439 147 LINE",
"609 286 LINE",
"816 1259 LINE",
"553 1259 LINE",
"553 1259 LINE",
"816 1259 LINE",
"609 286 LINE",
"439 147 LINE",
"259 147 LINE"
);
}
);
width = 932;
}
);
leftKerningGroup = J;
leftMetricsKey = O;
rightKerningGroup = J;
rightMetricsKey = O;
unicode = 004A;
},
{
color = 6;
glyphname = K;
lastChange = "2021-04-27 15:17:24 +0000";
layers = (
{
anchors = (
{
name = bottom;
position = "{655, 0}";
},
{
name = top;
position = "{953, 1400}";
}
);
layerId = "C350CEFC-842E-49B2-BD8E-B76FC625146E";
paths = (
{
closed = 1;
nodes = (
"274 0 LINE",
"394 565 LINE",
"1036 565 LINE",
"1130 447 LINE",
"1035 0 LINE",
"1318 0 LINE",
"1438 565 LINE",
"1328 708 LINE",
"1498 848 LINE",
"1616 1400 LINE",
"1333 1400 LINE",
"1241 967 LINE",
"1096 848 LINE",
"454 848 LINE",
"572 1400 LINE",
"289 1400 LINE",
"-9 0 LINE"
);
},
{
closed = 1;
nodes = (
"310 1373 LINE",
"539 1373 LINE",
"422 821 LINE",
"1102 821 LINE",
"1265 956 LINE",
"1354 1373 LINE",
"1583 1373 LINE",
"1474 860 LINE",
"1290 708 LINE",
"1409 554 LINE",
"1297 27 LINE",
"1068 27 LINE",
"1160 458 LINE",
"1053 592 LINE",
"373 592 LINE",
"253 27 LINE",
"24 27 LINE"
);
}
);
width = 1625;
},
{
anchors = (
{
name = bottom;
position = "{655, 0}";
},
{
name = top;
position = "{953, 1400}";
}
);
layerId = "D1E5EF0F-C706-422D-804F-EC15AC36D3BD";
paths = (
{
closed = 1;
nodes = (
"274 0 LINE",
"394 565 LINE",
"1036 565 LINE",
"1130 447 LINE",
"1035 0 LINE",
"1318 0 LINE",
"1438 565 LINE",
"1328 708 LINE",
"1498 848 LINE",
"1616 1400 LINE",
"1333 1400 LINE",
"1241 967 LINE",
"1096 848 LINE",
"454 848 LINE",
"572 1400 LINE",
"289 1400 LINE",
"-9 0 LINE"
);
},
{
closed = 1;
nodes = (
"389 1276 LINE",
"417 1276 LINE",
"302 732 LINE",
"1143 732 LINE",
"1356 906 LINE",
"1434 1276 LINE",
"1462 1276 LINE",
"1382 898 LINE",
"1161 716 LINE",
"1303 526 LINE",
"1218 128 LINE",
"1190 128 LINE",
"1273 518 LINE",
"1133 704 LINE",
"296 704 LINE",
"173 128 LINE",
"145 128 LINE"
);
}
);
width = 1625;
},
{
anchors = (
{
name = bottom;
position = "{655, 0}";
},
{
name = top;
position = "{953, 1400}";
}
);
layerId = "52369092-E1A4-4352-8107-384305BB14D9";
paths = (
{
closed = 1;
nodes = (
"274 0 LINE",
"394 565 LINE",
"1036 565 LINE",
"1130 447 LINE",
"1035 0 LINE",
"1318 0 LINE",
"1438 565 LINE",
"1328 708 LINE",
"1498 848 LINE",
"1616 1400 LINE",
"1333 1400 LINE",
"1241 967 LINE",
"1096 848 LINE",
"454 848 LINE",
"572 1400 LINE",
"289 1400 LINE",
"-9 0 LINE"
);
},
{
closed = 1;
nodes = (
"402 1259 LINE",
"401 1259 LINE",
"285 716 LINE",
"1144 716 LINE",
"1370 902 LINE",
"1446 1259 LINE",
"1446 1259 LINE",
"1370 902 LINE",
"1144 716 LINE",
"1289 522 LINE",
"1208 142 LINE",
"1208 142 LINE",
"1289 522 LINE",
"1144 716 LINE",
"285 716 LINE",
"163 142 LINE",
"164 142 LINE"
);
}
);
width = 1625;
},
{
anchors = (
{
name = bottom;
position = "{332, 0}";
},
{
name = top;
position = "{630, 1400}";
}
);
layerId = "688D45B5-F54A-49EF-A5DE-FF449873800E";
paths = (
{
closed = 1;
nodes = (
"244 0 LINE",
"364 565 LINE",
"419 565 LINE",
"513 447 LINE",
"418 0 LINE",
"701 0 LINE",
"821 565 LINE",
"711 708 LINE",
"881 848 LINE",
"999 1400 LINE",
"716 1400 LINE",
"624 967 LINE",
"479 848 LINE",
"424 848 LINE",
"542 1400 LINE",
"259 1400 LINE",
"-39 0 LINE"
);
},
{
closed = 1;
nodes = (
"280 1373 LINE",
"509 1373 LINE",
"392 821 LINE",
"485 821 LINE",
"648 956 LINE",
"737 1373 LINE",
"966 1373 LINE",
"857 860 LINE",
"673 708 LINE",
"792 554 LINE",
"680 27 LINE",
"451 27 LINE",
"543 458 LINE",
"436 592 LINE",
"343 592 LINE",
"223 27 LINE",
"-6 27 LINE"
);
}
);
width = 970;
},
{
anchors = (
{
name = bottom;
position = "{332, 0}";
},
{
name = top;
position = "{630, 1400}";
}
);
layerId = "890EBC54-9394-463B-B2A5-6ADD509C07AA";
paths = (
{
closed = 1;
nodes = (
"244 0 LINE",
"364 565 LINE",
"419 565 LINE",
"513 447 LINE",
"418 0 LINE",
"701 0 LINE",
"821 565 LINE",
"711 708 LINE",
"881 848 LINE",
"999 1400 LINE",
"716 1400 LINE",
"624 967 LINE",
"479 848 LINE",
"424 848 LINE",
"542 1400 LINE",
"259 1400 LINE",
"-39 0 LINE"
);
},
{
closed = 1;
nodes = (
"359 1276 LINE",
"387 1276 LINE",
"272 732 LINE",
"526 732 LINE",
"739 906 LINE",
"817 1276 LINE",
"845 1276 LINE",
"765 898 LINE",
"544 716 LINE",
"686 526 LINE",
"601 128 LINE",
"573 128 LINE",
"656 518 LINE",
"516 704 LINE",
"266 704 LINE",
"143 128 LINE",
"115 128 LINE"
);
}
);
width = 970;
},
{
anchors = (
{
name = bottom;
position = "{332, 0}";
},
{
name = top;
position = "{630, 1400}";
}
);
layerId = "E606EEE5-03C7-423E-87C5-22C033DDF210";
paths = (
{
closed = 1;
nodes = (
"244 0 LINE",
"364 565 LINE",
"419 565 LINE",
"513 447 LINE",
"418 0 LINE",
"701 0 LINE",
"821 565 LINE",
"711 708 LINE",
"881 848 LINE",
"999 1400 LINE",
"716 1400 LINE",
"624 967 LINE",
"479 848 LINE",
"424 848 LINE",
"542 1400 LINE",
"259 1400 LINE",
"-39 0 LINE"
);
},
{
closed = 1;
nodes = (
"372 1259 LINE",
"371 1259 LINE",
"255 716 LINE",
"527 716 LINE",
"753 902 LINE",
"829 1259 LINE",
"829 1259 LINE",
"753 902 LINE",
"527 716 LINE",
"672 522 LINE",
"591 142 LINE",
"591 142 LINE",
"672 522 LINE",
"527 716 LINE",
"255 716 LINE",
"133 142 LINE",
"134 142 LINE"
);
}
);
width = 970;
}
);
leftKerningGroup = H;
leftMetricsKey = D;
rightKerningGroup = K;
unicode = 004B;
},
{
color = 6;
glyphname = L;
lastChange = "2021-04-27 15:17:23 +0000";
layers = (
{
anchors = (
{
name = bottom;
position = "{514, 0}";
},
{
name = center;
position = "{952, 1867}";
},
{
name = top;
position = "{416, 1400}";
},
{
name = topright;
position = "{1232, 932}";
}
);
layerId = "C350CEFC-842E-49B2-BD8E-B76FC625146E";
paths = (
{
closed = 1;
nodes = (
"1188 0 LINE",
"1248 283 LINE",
"334 283 LINE",
"572 1400 LINE",
"289 1400 LINE",
"-9 0 LINE"
);
},
{
closed = 1;
nodes = (
"310 1373 LINE",
"539 1373 LINE",
"302 256 LINE",
"1216 256 LINE",
"1167 27 LINE",
"24 27 LINE"
);
}
);
width = 1427;
},
{
anchors = (
{
name = bottom;
position = "{514, 0}";
},
{
name = center;
position = "{952, 1867}";
},
{
name = top;
position = "{416, 1400}";
},
{
name = topright;
position = "{1232, 932}";
}
);
layerId = "D1E5EF0F-C706-422D-804F-EC15AC36D3BD";
paths = (
{
closed = 1;
nodes = (
"1188 0 LINE",
"1248 283 LINE",
"334 283 LINE",
"572 1400 LINE",
"289 1400 LINE",
"-9 0 LINE"
);
},
{
closed = 1;
nodes = (
"390 1276 LINE",
"418 1276 LINE",
"180 153 LINE",
"1095 153 LINE",
"1089 125 LINE",
"146 125 LINE"
);
}
);
width = 1427;
},
{
anchors = (
{
name = bottom;
position = "{514, 0}";
},
{
name = center;
position = "{952, 1867}";
},
{
name = top;
position = "{416, 1400}";
},
{
name = topright;
position = "{1232, 932}";
}
);
layerId = "52369092-E1A4-4352-8107-384305BB14D9";
paths = (
{
closed = 1;
nodes = (
"1188 0 LINE",
"1248 283 LINE",
"334 283 LINE",
"572 1400 LINE",
"289 1400 LINE",
"-9 0 LINE"
);
},
{
closed = 1;
nodes = (
"401 1259 LINE",
"401 1259 LINE",
"163 142 LINE",
"1082 142 LINE",
"1082 142 LINE",
"163 142 LINE"
);
}
);
width = 1427;
},
{
anchors = (
{
name = bottom;
position = "{258, 0}";
},
{
name = center;
position = "{407, 700}";
},
{
name = top;
position = "{393, 1400}";
},
{
name = topright;
position = "{612, 932}";
}
);
layerId = "688D45B5-F54A-49EF-A5DE-FF449873800E";
paths = (
{
closed = 1;
nodes = (
"545 0 LINE",
"605 283 LINE",
"304 283 LINE",
"542 1400 LINE",
"259 1400 LINE",
"-39 0 LINE"
);
},
{
closed = 1;
nodes = (
"280 1373 LINE",
"509 1373 LINE",
"272 256 LINE",
"573 256 LINE",
"524 27 LINE",
"-6 27 LINE"
);
}
);
width = 754;
},
{
anchors = (
{
name = bottom;
position = "{258, 0}";
},
{
name = center;
position = "{407, 700}";
},
{
name = top;
position = "{393, 1400}";
},
{
name = topright;
position = "{612, 932}";
}
);
layerId = "890EBC54-9394-463B-B2A5-6ADD509C07AA";
paths = (
{
closed = 1;
nodes = (
"545 0 LINE",
"605 283 LINE",
"304 283 LINE",
"542 1400 LINE",
"259 1400 LINE",
"-39 0 LINE"
);
},
{
closed = 1;
nodes = (
"360 1276 LINE",
"388 1276 LINE",
"150 153 LINE",
"452 153 LINE",
"446 125 LINE",
"116 125 LINE"
);
}
);
width = 754;
},
{
anchors = (
{
name = bottom;
position = "{258, 0}";
},
{
name = center;
position = "{407, 700}";
},
{
name = top;
position = "{393, 1400}";
},
{
name = topright;
position = "{612, 932}";
}
);
layerId = "E606EEE5-03C7-423E-87C5-22C033DDF210";
paths = (
{
closed = 1;
nodes = (
"545 0 LINE",
"605 283 LINE",
"304 283 LINE",
"542 1400 LINE",
"259 1400 LINE",
"-39 0 LINE"
);
},
{
closed = 1;
nodes = (
"371 1259 LINE",
"371 1259 LINE",
"133 142 LINE",
"439 142 LINE",
"439 142 LINE",
"133 142 LINE"
);
}
);
width = 754;
}
);
leftKerningGroup = H;
leftMetricsKey = D;
rightKerningGroup = L;
rightMetricsKey = T;
unicode = 004C;
},
{
color = 6;
glyphname = Lslash;
lastChange = "2021-04-27 15:17:24 +0000";
layers = (
{
layerId = "C350CEFC-842E-49B2-BD8E-B76FC625146E";
paths = (
{
closed = 1;
nodes = (
"860 0 LINE",
"920 283 LINE",
"390 283 LINE",
"457 597 LINE",
"828 732 LINE",
"881 982 LINE",
"510 847 LINE",
"628 1400 LINE",
"345 1400 LINE",
"204 738 LINE",
"77 691 LINE",
"24 441 LINE",
"151 488 LINE",
"47 0 LINE"
);
},
{
closed = 1;
nodes = (
"186 527 LINE",
"59 481 LINE",
"100 673 LINE",
"227 719 LINE",
"366 1373 LINE",
"595 1373 LINE",
"475 808 LINE",
"845 942 LINE",
"805 750 LINE",
"434 615 LINE",
"358 256 LINE",
"888 256 LINE",
"839 27 LINE",
"80 27 LINE"
);
}
);
width = 1130;
},
{
layerId = "D1E5EF0F-C706-422D-804F-EC15AC36D3BD";
paths = (
{
closed = 1;
nodes = (
"860 0 LINE",
"920 283 LINE",
"390 283 LINE",
"457 597 LINE",
"828 732 LINE",
"881 982 LINE",
"510 847 LINE",
"628 1400 LINE",
"345 1400 LINE",
"204 738 LINE",
"77 691 LINE",
"24 441 LINE",
"151 488 LINE",
"47 0 LINE"
);
},
{
closed = 1;
nodes = (
"309 644 LINE",
"161 592 LINE",
"167 620 LINE",
"315 672 LINE",
"448 1296 LINE",
"476 1296 LINE",
"345 683 LINE",
"720 820 LINE",
"714 792 LINE",
"339 655 LINE",
"233 154 LINE",
"800 154 LINE",
"794 126 LINE",
"199 126 LINE"
);
}
);
width = 1130;
},
{
layerId = "52369092-E1A4-4352-8107-384305BB14D9";
paths = (
{
closed = 1;
nodes = (
"860 0 LINE",
"920 283 LINE",
"390 283 LINE",
"457 597 LINE",
"828 732 LINE",
"881 982 LINE",
"510 847 LINE",
"628 1400 LINE",
"345 1400 LINE",
"204 738 LINE",
"77 691 LINE",
"24 441 LINE",
"151 488 LINE",
"47 0 LINE"
);
},
{
closed = 1;
nodes = (
"326 663 LINE",
"693 797 LINE",
"693 797 LINE",
"326 663 LINE",
"453 1262 LINE",
"453 1262 LINE",
"326 663 LINE",
"194 614 LINE",
"194 614 LINE",
"326 663 LINE",
"215 142 LINE",
"797 142 LINE",
"797 142 LINE",
"215 142 LINE"
);
}
);
width = 1130;
},
{
layerId = "688D45B5-F54A-49EF-A5DE-FF449873800E";
paths = (
{
closed = 1;
nodes = (
"830 0 LINE",
"890 283 LINE",
"360 283 LINE",
"427 597 LINE",
"798 732 LINE",
"851 982 LINE",
"480 847 LINE",
"598 1400 LINE",
"315 1400 LINE",
"174 738 LINE",
"47 691 LINE",
"-6 441 LINE",
"121 488 LINE",
"17 0 LINE"
);
},
{
closed = 1;
nodes = (
"156 527 LINE",
"29 481 LINE",
"70 673 LINE",
"197 719 LINE",
"336 1373 LINE",
"565 1373 LINE",
"445 808 LINE",
"815 942 LINE",
"775 750 LINE",
"404 615 LINE",
"328 256 LINE",
"858 256 LINE",
"809 27 LINE",
"50 27 LINE"
);
}
);
width = 1070;
},
{
layerId = "890EBC54-9394-463B-B2A5-6ADD509C07AA";
paths = (
{
closed = 1;
nodes = (
"830 0 LINE",
"890 283 LINE",
"360 283 LINE",
"427 597 LINE",
"798 732 LINE",
"851 982 LINE",
"480 847 LINE",
"598 1400 LINE",
"315 1400 LINE",
"174 738 LINE",
"47 691 LINE",
"-6 441 LINE",
"121 488 LINE",
"17 0 LINE"
);
},
{
closed = 1;
nodes = (
"279 644 LINE",
"131 592 LINE",
"137 620 LINE",
"285 672 LINE",
"418 1296 LINE",
"446 1296 LINE",
"315 683 LINE",
"690 820 LINE",
"684 792 LINE",
"309 655 LINE",
"203 154 LINE",
"770 154 LINE",
"764 126 LINE",
"169 126 LINE"
);
}
);
width = 1070;
},
{
layerId = "E606EEE5-03C7-423E-87C5-22C033DDF210";
paths = (
{
closed = 1;
nodes = (
"830 0 LINE",
"890 283 LINE",
"360 283 LINE",
"427 597 LINE",
"798 732 LINE",
"851 982 LINE",
"480 847 LINE",
"598 1400 LINE",
"315 1400 LINE",
"174 738 LINE",
"47 691 LINE",
"-6 441 LINE",
"121 488 LINE",
"17 0 LINE"
);
},
{
closed = 1;
nodes = (
"296 663 LINE",
"663 797 LINE",
"663 797 LINE",
"296 663 LINE",
"423 1262 LINE",
"423 1262 LINE",
"296 663 LINE",
"164 614 LINE",
"164 614 LINE",
"296 663 LINE",
"185 142 LINE",
"767 142 LINE",
"767 142 LINE",
"185 142 LINE"
);
}
);
width = 1070;
}
);
leftKerningGroup = H;
rightKerningGroup = L;
unicode = 0141;
},
{
color = 6;
glyphname = M;
lastChange = "2021-04-27 15:17:24 +0000";
layers = (
{
anchors = (
{
name = bottom;
position = "{838, 0}";
},
{
name = top;
position = "{1116, 1400}";
}
);
layerId = "C350CEFC-842E-49B2-BD8E-B76FC625146E";
paths = (
{
closed = 1;
nodes = (
"274 0 LINE",
"511 1116 LINE",
"565 1116 LINE",
"628 120 LINE",
"1157 120 LINE",
"1643 1116 LINE",
"1696 1116 LINE",
"1459 0 LINE",
"1742 0 LINE",
"2040 1400 LINE",
"1464 1400 LINE",
"981 407 LINE",
"906 407 LINE",
"845 1400 LINE",
"289 1400 LINE",
"-9 0 LINE"
);
},
{
closed = 1;
nodes = (
"310 1373 LINE",
"818 1373 LINE",
"880 379 LINE",
"1000 379 LINE",
"1483 1373 LINE",
"2007 1373 LINE",
"1721 27 LINE",
"1492 27 LINE",
"1730 1145 LINE",
"1626 1145 LINE",
"1139 147 LINE",
"654 147 LINE",
"593 1145 LINE",
"491 1145 LINE",
"253 27 LINE",
"24 27 LINE"
);
}
);
width = 2031;
},
{
anchors = (
{
name = bottom;
position = "{838, 0}";
},
{
name = top;
position = "{1116, 1400}";
}
);
layerId = "D1E5EF0F-C706-422D-804F-EC15AC36D3BD";
paths = (
{
closed = 1;
nodes = (
"274 0 LINE",
"511 1116 LINE",
"565 1116 LINE",
"628 120 LINE",
"1157 120 LINE",
"1643 1116 LINE",
"1696 1116 LINE",
"1459 0 LINE",
"1742 0 LINE",
"2040 1400 LINE",
"1464 1400 LINE",
"981 407 LINE",
"906 407 LINE",
"845 1400 LINE",
"289 1400 LINE",
"-9 0 LINE"
);
},
{
closed = 1;
nodes = (
"388 1274 LINE",
"717 1274 LINE",
"789 292 LINE",
"1046 292 LINE",
"1556 1274 LINE",
"1885 1274 LINE",
"1641 126 LINE",
"1613 126 LINE",
"1850 1242 LINE",
"1576 1242 LINE",
"1067 262 LINE",
"760 262 LINE",
"687 1242 LINE",
"409 1242 LINE",
"172 126 LINE",
"144 126 LINE"
);
}
);
width = 2031;
},
{
anchors = (
{
name = bottom;
position = "{838, 0}";
},
{
name = top;
position = "{1116, 1400}";
}
);
layerId = "52369092-E1A4-4352-8107-384305BB14D9";
paths = (
{
closed = 1;
nodes = (
"274 0 LINE",
"511 1116 LINE",
"565 1116 LINE",
"628 120 LINE",
"1157 120 LINE",
"1643 1116 LINE",
"1696 1116 LINE",
"1459 0 LINE",
"1742 0 LINE",
"2040 1400 LINE",
"1464 1400 LINE",
"981 407 LINE",
"906 407 LINE",
"845 1400 LINE",
"289 1400 LINE",
"-9 0 LINE"
);
},
{
closed = 1;
nodes = (
"399 1259 LINE",
"703 1259 LINE",
"776 277 LINE",
"1061 277 LINE",
"1564 1259 LINE",
"1867 1259 LINE",
"1629 142 LINE",
"1630 142 LINE",
"1868 1259 LINE",
"1564 1259 LINE",
"1061 277 LINE",
"776 277 LINE",
"703 1259 LINE",
"398 1259 LINE",
"160 142 LINE",
"161 142 LINE"
);
}
);
width = 2031;
},
{
anchors = (
{
name = bottom;
position = "{577, 0}";
},
{
name = top;
position = "{875, 1400}";
}
);
layerId = "688D45B5-F54A-49EF-A5DE-FF449873800E";
paths = (
{
closed = 1;
nodes = (
"244 0 LINE",
"481 1116 LINE",
"508 1116 LINE",
"365 120 LINE",
"840 120 LINE",
"1120 1116 LINE",
"1146 1116 LINE",
"909 0 LINE",
"1192 0 LINE",
"1490 1400 LINE",
"951 1400 LINE",
"674 407 LINE",
"653 407 LINE",
"798 1400 LINE",
"259 1400 LINE",
"-39 0 LINE"
);
},
{
closed = 1;
nodes = (
"280 1373 LINE",
"766 1373 LINE",
"625 379 LINE",
"691 379 LINE",
"971 1373 LINE",
"1457 1373 LINE",
"1171 27 LINE",
"942 27 LINE",
"1180 1145 LINE",
"1104 1145 LINE",
"819 147 LINE",
"396 147 LINE",
"537 1145 LINE",
"461 1145 LINE",
"223 27 LINE",
"-6 27 LINE"
);
}
);
width = 1451;
},
{
anchors = (
{
name = bottom;
position = "{578, 0}";
},
{
name = top;
position = "{876, 1400}";
}
);
layerId = "890EBC54-9394-463B-B2A5-6ADD509C07AA";
paths = (
{
closed = 1;
nodes = (
"244 0 LINE",
"481 1116 LINE",
"508 1116 LINE",
"365 120 LINE",
"840 120 LINE",
"1120 1116 LINE",
"1146 1116 LINE",
"909 0 LINE",
"1192 0 LINE",
"1490 1400 LINE",
"951 1400 LINE",
"674 407 LINE",
"653 407 LINE",
"798 1400 LINE",
"259 1400 LINE",
"-39 0 LINE"
);
},
{
closed = 1;
nodes = (
"358 1274 LINE",
"660 1274 LINE",
"536 292 LINE",
"739 292 LINE",
"1033 1274 LINE",
"1335 1274 LINE",
"1091 126 LINE",
"1063 126 LINE",
"1300 1242 LINE",
"1054 1242 LINE",
"761 262 LINE",
"502 262 LINE",
"625 1242 LINE",
"379 1242 LINE",
"142 126 LINE",
"114 126 LINE"
);
}
);
width = 1451;
},
{
anchors = (
{
name = bottom;
position = "{578, 0}";
},
{
name = top;
position = "{876, 1400}";
}
);
layerId = "E606EEE5-03C7-423E-87C5-22C033DDF210";
paths = (
{
closed = 1;
nodes = (
"244 0 LINE",
"481 1116 LINE",
"508 1116 LINE",
"365 120 LINE",
"840 120 LINE",
"1120 1116 LINE",
"1146 1116 LINE",
"909 0 LINE",
"1192 0 LINE",
"1490 1400 LINE",
"951 1400 LINE",
"674 407 LINE",
"653 407 LINE",
"798 1400 LINE",
"259 1400 LINE",
"-39 0 LINE"
);
},
{
closed = 1;
nodes = (
"369 1259 LINE",
"646 1259 LINE",
"518 277 LINE",
"751 277 LINE",
"1041 1259 LINE",
"1317 1259 LINE",
"1079 142 LINE",
"1080 142 LINE",
"1318 1259 LINE",
"1041 1259 LINE",
"751 277 LINE",
"518 277 LINE",
"646 1259 LINE",
"368 1259 LINE",
"130 142 LINE",
"131 142 LINE"
);
}
);
width = 1451;
}
);
leftKerningGroup = H;
leftMetricsKey = H;
rightKerningGroup = H;
rightMetricsKey = H;
unicode = 004D;
},
{
color = 6;
glyphname = N;
lastChange = "2021-04-27 15:17:24 +0000";
layers = (
{
anchors = (
{
name = bottom;
position = "{798, 0}";
},
{
name = top;
position = "{1096, 1400}";
}
);
layerId = "C350CEFC-842E-49B2-BD8E-B76FC625146E";
paths = (
{
closed = 1;
nodes = (
"310 1373 LINE",
"825 1373 LINE",
"1160 259 LINE",
"1288 259 LINE",
"1525 1373 LINE",
"1754 1373 LINE",
"1468 27 LINE",
"953 27 LINE",
"615 1145 LINE",
"491 1145 LINE",
"253 27 LINE",
"24 27 LINE"
);
},
{
closed = 1;
nodes = (
"274 0 LINE",
"511 1116 LINE",
"595 1116 LINE",
"933 0 LINE",
"1489 0 LINE",
"1787 1400 LINE",
"1504 1400 LINE",
"1267 287 LINE",
"1181 287 LINE",
"845 1400 LINE",
"289 1400 LINE",
"-9 0 LINE"
);
}
);
width = 1778;
},
{
anchors = (
{
name = bottom;
position = "{798, 0}";
},
{
name = top;
position = "{1096, 1400}";
}
);
layerId = "D1E5EF0F-C706-422D-804F-EC15AC36D3BD";
paths = (
{
closed = 1;
nodes = (
"387 1271 LINE",
"725 1271 LINE",
"1080 157 LINE",
"1370 157 LINE",
"1607 1276 LINE",
"1635 1276 LINE",
"1391 127 LINE",
"1058 127 LINE",
"703 1239 LINE",
"409 1239 LINE",
"171 122 LINE",
"143 122 LINE"
);
},
{
closed = 1;
nodes = (
"274 0 LINE",
"511 1116 LINE",
"595 1116 LINE",
"933 0 LINE",
"1489 0 LINE",
"1787 1400 LINE",
"1504 1400 LINE",
"1267 287 LINE",
"1181 287 LINE",
"845 1400 LINE",
"289 1400 LINE",
"-9 0 LINE"
);
}
);
width = 1778;
},
{
anchors = (
{
name = bottom;
position = "{798, 0}";
},
{
name = top;
position = "{1096, 1400}";
}
);
layerId = "52369092-E1A4-4352-8107-384305BB14D9";
paths = (
{
closed = 1;
nodes = (
"400 1259 LINE",
"710 1259 LINE",
"1066 142 LINE",
"1378 142 LINE",
"1616 1259 LINE",
"1615 1259 LINE",
"1377 142 LINE",
"1066 142 LINE",
"710 1259 LINE",
"399 1259 LINE",
"161 142 LINE",
"162 142 LINE"
);
},
{
closed = 1;
nodes = (
"274 0 LINE",
"511 1116 LINE",
"595 1116 LINE",
"933 0 LINE",
"1489 0 LINE",
"1787 1400 LINE",
"1504 1400 LINE",
"1267 287 LINE",
"1181 287 LINE",
"845 1400 LINE",
"289 1400 LINE",
"-9 0 LINE"
);
}
);
width = 1778;
},
{
anchors = (
{
name = bottom;
position = "{430, 0}";
},
{
name = top;
position = "{728, 1400}";
}
);
layerId = "688D45B5-F54A-49EF-A5DE-FF449873800E";
paths = (
{
closed = 1;
nodes = (
"280 1373 LINE",
"756 1373 LINE",
"623 259 LINE",
"691 259 LINE",
"928 1373 LINE",
"1157 1373 LINE",
"871 27 LINE",
"395 27 LINE",
"525 1145 LINE",
"461 1145 LINE",
"223 27 LINE",
"-6 27 LINE"
);
},
{
closed = 1;
nodes = (
"244 0 LINE",
"481 1116 LINE",
"498 1116 LINE",
"363 0 LINE",
"892 0 LINE",
"1190 1400 LINE",
"907 1400 LINE",
"670 287 LINE",
"651 287 LINE",
"788 1400 LINE",
"259 1400 LINE",
"-39 0 LINE"
);
}
);
width = 1151;
},
{
anchors = (
{
name = bottom;
position = "{430, 0}";
},
{
name = top;
position = "{728, 1400}";
}
);
layerId = "890EBC54-9394-463B-B2A5-6ADD509C07AA";
paths = (
{
closed = 1;
nodes = (
"357 1271 LINE",
"648 1271 LINE",
"535 157 LINE",
"773 157 LINE",
"1010 1276 LINE",
"1038 1276 LINE",
"794 127 LINE",
"504 127 LINE",
"618 1239 LINE",
"379 1239 LINE",
"141 122 LINE",
"113 122 LINE"
);
},
{
closed = 1;
nodes = (
"244 0 LINE",
"481 1116 LINE",
"498 1116 LINE",
"363 0 LINE",
"892 0 LINE",
"1190 1400 LINE",
"907 1400 LINE",
"670 287 LINE",
"651 287 LINE",
"788 1400 LINE",
"259 1400 LINE",
"-39 0 LINE"
);
}
);
width = 1151;
},
{
anchors = (
{
name = bottom;
position = "{430, 0}";
},
{
name = top;
position = "{728, 1400}";
}
);
layerId = "E606EEE5-03C7-423E-87C5-22C033DDF210";
paths = (
{
closed = 1;
nodes = (
"370 1259 LINE",
"646 1259 LINE",
"507 142 LINE",
"781 142 LINE",
"1019 1259 LINE",
"1018 1259 LINE",
"780 142 LINE",
"507 142 LINE",
"646 1259 LINE",
"369 1259 LINE",
"131 142 LINE",
"132 142 LINE"
);
},
{
closed = 1;
nodes = (
"244 0 LINE",
"481 1116 LINE",
"498 1116 LINE",
"363 0 LINE",
"892 0 LINE",
"1190 1400 LINE",
"907 1400 LINE",
"670 287 LINE",
"651 287 LINE",
"788 1400 LINE",
"259 1400 LINE",
"-39 0 LINE"
);
}
);
width = 1151;
}
);
leftKerningGroup = H;
leftMetricsKey = H;
rightKerningGroup = H;
rightMetricsKey = H;
unicode = 004E;
},
{
color = 6;
glyphname = Eng;
lastChange = "2021-04-27 15:17:23 +0000";
layers = (
{
layerId = "C350CEFC-842E-49B2-BD8E-B76FC625146E";
paths = (
{
closed = 1;
nodes = (
"758 -400 LINE",
"1007 -194 LINE",
"1346 1400 LINE",
"1063 1400 LINE",
"891 590 LINE",
"592 1400 LINE",
"315 1400 LINE",
"18 0 LINE",
"301 0 LINE",
"473 810 LINE",
"768 10 LINE",
"758 -37 LINE",
"661 -118 LINE",
"480 -118 LINE",
"420 -400 LINE"
);
},
{
closed = 1;
nodes = (
"501 -145 LINE",
"666 -145 LINE",
"783 -48 LINE",
"797 18 LINE",
"468 913 LINE",
"468 913 LINE",
"279 27 LINE",
"50 27 LINE",
"337 1373 LINE",
"571 1373 LINE",
"896 487 LINE",
"1085 1373 LINE",
"1314 1373 LINE",
"983 -183 LINE",
"751 -373 LINE",
"452 -373 LINE"
);
}
);
width = 1279;
},
{
layerId = "D1E5EF0F-C706-422D-804F-EC15AC36D3BD";
paths = (
{
closed = 1;
nodes = (
"758 -400 LINE",
"1007 -194 LINE",
"1346 1400 LINE",
"1063 1400 LINE",
"891 590 LINE",
"592 1400 LINE",
"315 1400 LINE",
"18 0 LINE",
"301 0 LINE",
"473 810 LINE",
"768 10 LINE",
"758 -37 LINE",
"661 -118 LINE",
"480 -118 LINE",
"420 -400 LINE"
);
},
{
closed = 1;
nodes = (
"619 -238 LINE",
"721 -238 LINE",
"872 -110 LINE",
"909 61 LINE",
"456 1264 LINE",
"440 1264 LINE",
"196 112 LINE",
"168 112 LINE",
"419 1296 LINE",
"479 1296 LINE",
"921 117 LINE",
"1171 1296 LINE",
"1199 1296 LINE",
"899 -118 LINE",
"725 -266 LINE",
"613 -266 LINE"
);
}
);
width = 1279;
},
{
layerId = "52369092-E1A4-4352-8107-384305BB14D9";
paths = (
{
closed = 1;
nodes = (
"758 -400 LINE",
"1007 -194 LINE",
"1346 1400 LINE",
"1063 1400 LINE",
"891 590 LINE",
"592 1400 LINE",
"315 1400 LINE",
"18 0 LINE",
"301 0 LINE",
"473 810 LINE",
"768 10 LINE",
"758 -37 LINE",
"661 -118 LINE",
"480 -118 LINE",
"420 -400 LINE"
);
},
{
closed = 1;
nodes = (
"630 -252 LINE",
"728 -252 LINE",
"885 -118 LINE",
"923 61 LINE",
"477 1259 LINE",
"425 1259 LINE",
"188 142 LINE",
"188 142 LINE",
"425 1259 LINE",
"477 1259 LINE",
"923 61 LINE",
"1177 1259 LINE",
"1177 1259 LINE",
"885 -118 LINE",
"728 -252 LINE",
"630 -252 LINE"
);
}
);
width = 1279;
},
{
layerId = "688D45B5-F54A-49EF-A5DE-FF449873800E";
paths = (
{
closed = 1;
nodes = (
"728 -400 LINE",
"977 -194 LINE",
"1316 1400 LINE",
"1033 1400 LINE",
"861 590 LINE",
"562 1400 LINE",
"285 1400 LINE",
"-12 0 LINE",
"271 0 LINE",
"443 810 LINE",
"738 10 LINE",
"728 -37 LINE",
"631 -118 LINE",
"450 -118 LINE",
"390 -400 LINE"
);
},
{
closed = 1;
nodes = (
"471 -145 LINE",
"636 -145 LINE",
"753 -48 LINE",
"767 18 LINE",
"438 913 LINE",
"438 913 LINE",
"249 27 LINE",
"20 27 LINE",
"307 1373 LINE",
"541 1373 LINE",
"866 487 LINE",
"1055 1373 LINE",
"1284 1373 LINE",
"953 -183 LINE",
"721 -373 LINE",
"422 -373 LINE"
);
}
);
width = 1219;
},
{
layerId = "890EBC54-9394-463B-B2A5-6ADD509C07AA";
paths = (
{
closed = 1;
nodes = (
"728 -400 LINE",
"977 -194 LINE",
"1316 1400 LINE",
"1033 1400 LINE",
"861 590 LINE",
"562 1400 LINE",
"285 1400 LINE",
"-12 0 LINE",
"271 0 LINE",
"443 810 LINE",
"738 10 LINE",
"728 -37 LINE",
"631 -118 LINE",
"450 -118 LINE",
"390 -400 LINE"
);
},
{
closed = 1;
nodes = (
"589 -238 LINE",
"691 -238 LINE",
"842 -110 LINE",
"879 61 LINE",
"426 1264 LINE",
"410 1264 LINE",
"166 112 LINE",
"138 112 LINE",
"389 1296 LINE",
"449 1296 LINE",
"891 117 LINE",
"1141 1296 LINE",
"1169 1296 LINE",
"869 -118 LINE",
"695 -266 LINE",
"583 -266 LINE"
);
}
);
width = 1219;
},
{
layerId = "E606EEE5-03C7-423E-87C5-22C033DDF210";
paths = (
{
closed = 1;
nodes = (
"728 -400 LINE",
"977 -194 LINE",
"1316 1400 LINE",
"1033 1400 LINE",
"861 590 LINE",
"562 1400 LINE",
"285 1400 LINE",
"-12 0 LINE",
"271 0 LINE",
"443 810 LINE",
"738 10 LINE",
"728 -37 LINE",
"631 -118 LINE",
"450 -118 LINE",
"390 -400 LINE"
);
},
{
closed = 1;
nodes = (
"600 -252 LINE",
"698 -252 LINE",
"855 -118 LINE",
"893 61 LINE",
"447 1259 LINE",
"395 1259 LINE",
"158 142 LINE",
"158 142 LINE",
"395 1259 LINE",
"447 1259 LINE",
"893 61 LINE",
"1147 1259 LINE",
"1147 1259 LINE",
"855 -118 LINE",
"698 -252 LINE",
"600 -252 LINE"
);
}
);
width = 1219;
}
);
unicode = 014A;
},
{
color = 6;
glyphname = O;
lastChange = "2021-04-27 15:17:23 +0000";
layers = (
{
anchors = (
{
name = bottom;
position = "{682, 0}";
},
{
name = center;
position = "{1038, 1867}";
},
{
name = ogonek;
position = "{685, 10}";
},
{
name = top;
position = "{963, 1400}";
},
{
name = topleft;
position = "{-52, 1400}";
},
{
name = topright;
position = "{1302, 969}";
}
);
layerId = "C350CEFC-842E-49B2-BD8E-B76FC625146E";
paths = (
{
closed = 1;
nodes = (
"1144 0 LINE",
"1394 206 LINE",
"1604 1194 LINE",
"1442 1400 LINE",
"485 1400 LINE",
"235 1194 LINE",
"25 206 LINE",
"187 0 LINE"
);
},
{
closed = 1;
nodes = (
"337 344 LINE",
"489 1056 LINE",
"563 1117 LINE",
"1244 1117 LINE",
"1292 1056 LINE",
"1140 344 LINE",
"1066 283 LINE",
"385 283 LINE"
);
},
{
closed = 1;
nodes = (
"54 217 LINE",
"260 1183 LINE",
"490 1373 LINE",
"1424 1373 LINE",
"1575 1183 LINE",
"1369 217 LINE",
"1138 27 LINE",
"204 27 LINE"
);
},
{
closed = 1;
nodes = (
"1072 256 LINE",
"1165 333 LINE",
"1321 1067 LINE",
"1260 1144 LINE",
"557 1144 LINE",
"464 1067 LINE",
"308 333 LINE",
"369 256 LINE"
);
}
);
width = 1629;
},
{
anchors = (
{
name = bottom;
position = "{682, 0}";
},
{
name = center;
position = "{1038, 1867}";
},
{
name = ogonek;
position = "{685, 10}";
},
{
name = top;
position = "{963, 1400}";
},
{
name = topleft;
position = "{-52, 1400}";
},
{
name = topright;
position = "{1302, 969}";
}
);
layerId = "D1E5EF0F-C706-422D-804F-EC15AC36D3BD";
paths = (
{
closed = 1;
nodes = (
"1144 0 LINE",
"1394 206 LINE",
"1604 1194 LINE",
"1442 1400 LINE",
"485 1400 LINE",
"235 1194 LINE",
"25 206 LINE",
"187 0 LINE"
);
},
{
closed = 1;
nodes = (
"337 344 LINE",
"489 1056 LINE",
"563 1117 LINE",
"1244 1117 LINE",
"1292 1056 LINE",
"1140 344 LINE",
"1066 283 LINE",
"385 283 LINE"
);
},
{
closed = 1;
nodes = (
"170 276 LINE",
"352 1132 LINE",
"526 1276 LINE",
"1349 1276 LINE",
"1463 1132 LINE",
"1281 276 LINE",
"1106 132 LINE",
"283 132 LINE"
);
},
{
closed = 1;
nodes = (
"1102 160 LINE",
"1255 284 LINE",
"1433 1124 LINE",
"1333 1248 LINE",
"530 1248 LINE",
"378 1124 LINE",
"200 284 LINE",
"299 160 LINE"
);
}
);
width = 1629;
},
{
anchors = (
{
name = bottom;
position = "{682, 0}";
},
{
name = center;
position = "{1038, 1867}";
},
{
name = ogonek;
position = "{685, 10}";
},
{
name = top;
position = "{963, 1400}";
},
{
name = topleft;
position = "{-36, 1400}";
},
{
name = topright;
position = "{1387, 969}";
}
);
layerId = "52369092-E1A4-4352-8107-384305BB14D9";
paths = (
{
closed = 1;
nodes = (
"1144 0 LINE",
"1394 206 LINE",
"1604 1194 LINE",
"1442 1400 LINE",
"485 1400 LINE",
"235 1194 LINE",
"25 206 LINE",
"187 0 LINE"
);
},
{
closed = 1;
nodes = (
"337 344 LINE",
"489 1056 LINE",
"563 1117 LINE",
"1244 1117 LINE",
"1292 1056 LINE",
"1140 344 LINE",
"1066 283 LINE",
"385 283 LINE"
);
},
{
closed = 1;
nodes = (
"185 276 LINE",
"365 1125 LINE",
"528 1259 LINE",
"1342 1259 LINE",
"1447 1125 LINE",
"1267 276 LINE",
"1104 142 LINE",
"290 142 LINE"
);
},
{
closed = 1;
nodes = (
"1104 142 LINE",
"1267 276 LINE",
"1447 1125 LINE",
"1342 1259 LINE",
"528 1259 LINE",
"365 1125 LINE",
"185 276 LINE",
"290 142 LINE"
);
}
);
width = 1629;
},
{
anchors = (
{
name = bottom;
position = "{342, 0}";
},
{
name = center;
position = "{482, 700}";
},
{
name = ogonek;
position = "{362, 10}";
},
{
name = top;
position = "{640, 1400}";
},
{
name = topleft;
position = "{259, 1400}";
},
{
name = topright;
position = "{979, 969}";
}
);
layerId = "688D45B5-F54A-49EF-A5DE-FF449873800E";
paths = (
{
closed = 1;
nodes = (
"527 0 LINE",
"777 206 LINE",
"987 1194 LINE",
"825 1400 LINE",
"455 1400 LINE",
"205 1194 LINE",
"-5 206 LINE",
"157 0 LINE"
);
},
{
closed = 1;
nodes = (
"307 344 LINE",
"459 1056 LINE",
"533 1117 LINE",
"627 1117 LINE",
"675 1056 LINE",
"523 344 LINE",
"449 283 LINE",
"355 283 LINE"
);
},
{
closed = 1;
nodes = (
"24 217 LINE",
"230 1183 LINE",
"460 1373 LINE",
"807 1373 LINE",
"958 1183 LINE",
"752 217 LINE",
"521 27 LINE",
"174 27 LINE"
);
},
{
closed = 1;
nodes = (
"455 256 LINE",
"548 333 LINE",
"704 1067 LINE",
"643 1144 LINE",
"527 1144 LINE",
"434 1067 LINE",
"278 333 LINE",
"339 256 LINE"
);
}
);
width = 982;
},
{
anchors = (
{
name = bottom;
position = "{342, 0}";
},
{
name = center;
position = "{482, 700}";
},
{
name = ogonek;
position = "{362, 10}";
},
{
name = top;
position = "{640, 1400}";
},
{
name = topleft;
position = "{259, 1400}";
},
{
name = topright;
position = "{979, 969}";
}
);
layerId = "890EBC54-9394-463B-B2A5-6ADD509C07AA";
paths = (
{
closed = 1;
nodes = (
"527 0 LINE",
"777 206 LINE",
"987 1194 LINE",
"825 1400 LINE",
"455 1400 LINE",
"205 1194 LINE",
"-5 206 LINE",
"157 0 LINE"
);
},
{
closed = 1;
nodes = (
"307 344 LINE",
"459 1056 LINE",
"533 1117 LINE",
"627 1117 LINE",
"675 1056 LINE",
"523 344 LINE",
"449 283 LINE",
"355 283 LINE"
);
},
{
closed = 1;
nodes = (
"140 276 LINE",
"322 1132 LINE",
"496 1276 LINE",
"732 1276 LINE",
"846 1132 LINE",
"664 276 LINE",
"489 132 LINE",
"253 132 LINE"
);
},
{
closed = 1;
nodes = (
"485 160 LINE",
"638 284 LINE",
"816 1124 LINE",
"716 1248 LINE",
"500 1248 LINE",
"348 1124 LINE",
"170 284 LINE",
"269 160 LINE"
);
}
);
width = 982;
},
{
anchors = (
{
name = bottom;
position = "{342, 0}";
},
{
name = center;
position = "{482, 700}";
},
{
name = ogonek;
position = "{362, 10}";
},
{
name = top;
position = "{640, 1400}";
},
{
name = topleft;
position = "{249, 1400}";
},
{
name = topright;
position = "{928, 969}";
}
);
layerId = "E606EEE5-03C7-423E-87C5-22C033DDF210";
paths = (
{
closed = 1;
nodes = (
"527 0 LINE",
"777 206 LINE",
"987 1194 LINE",
"825 1400 LINE",
"455 1400 LINE",
"205 1194 LINE",
"-5 206 LINE",
"157 0 LINE"
);
},
{
closed = 1;
nodes = (
"307 344 LINE",
"459 1056 LINE",
"533 1117 LINE",
"627 1117 LINE",
"675 1056 LINE",
"523 344 LINE",
"449 283 LINE",
"355 283 LINE"
);
},
{
closed = 1;
nodes = (
"155 276 LINE",
"335 1125 LINE",
"498 1259 LINE",
"725 1259 LINE",
"830 1125 LINE",
"650 276 LINE",
"487 142 LINE",
"260 142 LINE"
);
},
{
closed = 1;
nodes = (
"487 142 LINE",
"650 276 LINE",
"830 1125 LINE",
"725 1259 LINE",
"498 1259 LINE",
"335 1125 LINE",
"155 276 LINE",
"260 142 LINE"
);
}
);
width = 982;
}
);
leftKerningGroup = O;
rightKerningGroup = O;
unicode = 004F;
},
{
color = 6;
glyphname = Ohorn;
lastChange = "2021-04-27 15:17:24 +0000";
layers = (
{
anchors = (
{
name = bottom;
position = "{482, 0}";
},
{
name = center;
position = "{622, 700}";
},
{
name = ogonek;
position = "{989, 10}";
},
{
name = top;
position = "{780, 1400}";
},
{
name = topleft;
position = "{161, 1400}";
},
{
name = topright;
position = "{1628, 1355}";
}
);
layerId = "C350CEFC-842E-49B2-BD8E-B76FC625146E";
paths = (
{
closed = 1;
nodes = (
"337 344 LINE",
"489 1056 LINE",
"563 1117 LINE",
"877 1117 LINE",
"925 1056 LINE",
"773 344 LINE",
"699 283 LINE",
"385 283 LINE"
);
},
{
closed = 1;
nodes = (
"54 217 LINE",
"260 1183 LINE",
"490 1373 LINE",
"1057 1373 LINE",
"1208 1183 LINE",
"1002 217 LINE",
"771 27 LINE",
"204 27 LINE"
);
},
{
closed = 1;
nodes = (
"705 256 LINE",
"798 333 LINE",
"954 1067 LINE",
"893 1144 LINE",
"557 1144 LINE",
"464 1067 LINE",
"308 333 LINE",
"369 256 LINE"
);
},
{
closed = 1;
nodes = (
"1575 1328 LINE",
"1541 1164 LINE",
"1357 996 LINE",
"1168 996 LINE",
"1190 1099 LINE",
"1295 1099 LINE",
"1366 1159 LINE",
"1401 1328 LINE"
);
},
{
closed = 1;
nodes = (
"1341 1171 LINE",
"1287 1126 LINE",
"1223 1126 LINE",
"1237 1194 LINE",
"1075 1400 LINE",
"485 1400 LINE",
"235 1194 LINE",
"25 206 LINE",
"187 0 LINE",
"777 0 LINE",
"1027 206 LINE",
"1189 969 LINE",
"1363 969 LINE",
"1566 1156 LINE",
"1608 1355 LINE",
"1380 1355 LINE"
);
}
);
width = 1469;
},
{
anchors = (
{
name = bottom;
position = "{482, 0}";
},
{
name = center;
position = "{622, 700}";
},
{
name = ogonek;
position = "{989, 10}";
},
{
name = top;
position = "{780, 1400}";
},
{
name = topleft;
position = "{161, 1400}";
},
{
name = topright;
position = "{1628, 1355}";
}
);
layerId = "D1E5EF0F-C706-422D-804F-EC15AC36D3BD";
paths = (
{
closed = 1;
nodes = (
"337 344 LINE",
"489 1056 LINE",
"563 1117 LINE",
"877 1117 LINE",
"925 1056 LINE",
"773 344 LINE",
"699 283 LINE",
"385 283 LINE"
);
},
{
closed = 1;
nodes = (
"170 276 LINE",
"352 1132 LINE",
"526 1276 LINE",
"982 1276 LINE",
"1096 1132 LINE",
"914 276 LINE",
"739 132 LINE",
"283 132 LINE"
);
},
{
closed = 1;
nodes = (
"735 160 LINE",
"888 284 LINE",
"1066 1124 LINE",
"966 1248 LINE",
"530 1248 LINE",
"378 1124 LINE",
"200 284 LINE",
"299 160 LINE"
);
},
{
closed = 1;
nodes = (
"1492 1280 LINE",
"1466 1156 LINE",
"1330 1034 LINE",
"1075 1034 LINE",
"1081 1061 LINE",
"1323 1061 LINE",
"1441 1166 LINE",
"1465 1280 LINE"
);
},
{
closed = 1;
nodes = (
"1341 1171 LINE",
"1287 1126 LINE",
"1223 1126 LINE",
"1237 1194 LINE",
"1075 1400 LINE",
"485 1400 LINE",
"235 1194 LINE",
"25 206 LINE",
"187 0 LINE",
"777 0 LINE",
"1027 206 LINE",
"1189 969 LINE",
"1363 969 LINE",
"1566 1156 LINE",
"1608 1355 LINE",
"1380 1355 LINE"
);
}
);
width = 1469;
},
{
anchors = (
{
name = bottom;
position = "{482, 0}";
},
{
name = center;
position = "{622, 700}";
},
{
name = ogonek;
position = "{989, 10}";
},
{
name = top;
position = "{780, 1400}";
},
{
name = topleft;
position = "{161, 1400}";
},
{
name = topright;
position = "{1628, 1355}";
}
);
layerId = "52369092-E1A4-4352-8107-384305BB14D9";
paths = (
{
closed = 1;
nodes = (
"337 344 LINE",
"489 1056 LINE",
"563 1117 LINE",
"877 1117 LINE",
"925 1056 LINE",
"773 344 LINE",
"699 283 LINE",
"385 283 LINE"
);
},
{
closed = 1;
nodes = (
"185 276 LINE",
"365 1125 LINE",
"528 1259 LINE",
"975 1259 LINE",
"1080 1125 LINE",
"900 276 LINE",
"737 142 LINE",
"290 142 LINE"
);
},
{
closed = 1;
nodes = (
"737 142 LINE",
"900 276 LINE",
"1080 1125 LINE",
"975 1259 LINE",
"528 1259 LINE",
"365 1125 LINE",
"185 276 LINE",
"290 142 LINE"
);
},
{
closed = 1;
nodes = (
"1478 1280 LINE",
"1453 1159 LINE",
"1325 1047 LINE",
"1064 1047 LINE",
"1064 1047 LINE",
"1325 1047 LINE",
"1453 1159 LINE",
"1478 1280 LINE"
);
},
{
closed = 1;
nodes = (
"1341 1171 LINE",
"1287 1126 LINE",
"1223 1126 LINE",
"1237 1194 LINE",
"1075 1400 LINE",
"485 1400 LINE",
"235 1194 LINE",
"25 206 LINE",
"187 0 LINE",
"777 0 LINE",
"1027 206 LINE",
"1189 969 LINE",
"1363 969 LINE",
"1566 1156 LINE",
"1608 1355 LINE",
"1380 1355 LINE"
);
}
);
width = 1469;
},
{
anchors = (
{
name = bottom;
position = "{342, 0}";
},
{
name = center;
position = "{482, 700}";
},
{
name = ogonek;
position = "{849, 10}";
},
{
name = top;
position = "{640, 1400}";
},
{
name = topleft;
position = "{21, 1400}";
},
{
name = topright;
position = "{1488, 1355}";
}
);
layerId = "688D45B5-F54A-49EF-A5DE-FF449873800E";
paths = (
{
closed = 1;
nodes = (
"307 344 LINE",
"459 1056 LINE",
"533 1117 LINE",
"627 1117 LINE",
"675 1056 LINE",
"523 344 LINE",
"449 283 LINE",
"355 283 LINE"
);
},
{
closed = 1;
nodes = (
"24 217 LINE",
"230 1183 LINE",
"460 1373 LINE",
"807 1373 LINE",
"958 1183 LINE",
"752 217 LINE",
"521 27 LINE",
"174 27 LINE"
);
},
{
closed = 1;
nodes = (
"455 256 LINE",
"548 333 LINE",
"704 1067 LINE",
"643 1144 LINE",
"527 1144 LINE",
"434 1067 LINE",
"278 333 LINE",
"339 256 LINE"
);
},
{
closed = 1;
nodes = (
"1325 1328 LINE",
"1291 1164 LINE",
"1107 996 LINE",
"918 996 LINE",
"940 1099 LINE",
"1045 1099 LINE",
"1116 1159 LINE",
"1151 1328 LINE"
);
},
{
closed = 1;
nodes = (
"1091 1171 LINE",
"1037 1126 LINE",
"973 1126 LINE",
"987 1194 LINE",
"825 1400 LINE",
"455 1400 LINE",
"205 1194 LINE",
"-5 206 LINE",
"157 0 LINE",
"527 0 LINE",
"777 206 LINE",
"939 969 LINE",
"1113 969 LINE",
"1316 1156 LINE",
"1358 1355 LINE",
"1130 1355 LINE"
);
}
);
width = 1189;
},
{
anchors = (
{
name = bottom;
position = "{342, 0}";
},
{
name = center;
position = "{482, 700}";
},
{
name = ogonek;
position = "{849, 10}";
},
{
name = top;
position = "{640, 1400}";
},
{
name = topleft;
position = "{21, 1400}";
},
{
name = topright;
position = "{1488, 1355}";
}
);
layerId = "890EBC54-9394-463B-B2A5-6ADD509C07AA";
paths = (
{
closed = 1;
nodes = (
"307 344 LINE",
"459 1056 LINE",
"533 1117 LINE",
"627 1117 LINE",
"675 1056 LINE",
"523 344 LINE",
"449 283 LINE",
"355 283 LINE"
);
},
{
closed = 1;
nodes = (
"140 276 LINE",
"322 1132 LINE",
"496 1276 LINE",
"732 1276 LINE",
"846 1132 LINE",
"664 276 LINE",
"489 132 LINE",
"253 132 LINE"
);
},
{
closed = 1;
nodes = (
"485 160 LINE",
"638 284 LINE",
"816 1124 LINE",
"716 1248 LINE",
"500 1248 LINE",
"348 1124 LINE",
"170 284 LINE",
"269 160 LINE"
);
},
{
closed = 1;
nodes = (
"1242 1280 LINE",
"1216 1156 LINE",
"1080 1034 LINE",
"825 1034 LINE",
"831 1061 LINE",
"1073 1061 LINE",
"1191 1166 LINE",
"1215 1280 LINE"
);
},
{
closed = 1;
nodes = (
"1091 1171 LINE",
"1037 1126 LINE",
"973 1126 LINE",
"987 1194 LINE",
"825 1400 LINE",
"455 1400 LINE",
"205 1194 LINE",
"-5 206 LINE",
"157 0 LINE",
"527 0 LINE",
"777 206 LINE",
"939 969 LINE",
"1113 969 LINE",
"1316 1156 LINE",
"1358 1355 LINE",
"1130 1355 LINE"
);
}
);
width = 1189;
},
{
anchors = (
{
name = bottom;
position = "{342, 0}";
},
{
name = center;
position = "{482, 700}";
},
{
name = ogonek;
position = "{849, 10}";
},
{
name = top;
position = "{640, 1400}";
},
{
name = topleft;
position = "{21, 1400}";
},
{
name = topright;
position = "{1488, 1355}";
}
);
layerId = "E606EEE5-03C7-423E-87C5-22C033DDF210";
paths = (
{
closed = 1;
nodes = (
"307 344 LINE",
"459 1056 LINE",
"533 1117 LINE",
"627 1117 LINE",
"675 1056 LINE",
"523 344 LINE",
"449 283 LINE",
"355 283 LINE"
);
},
{
closed = 1;
nodes = (
"155 276 LINE",
"335 1125 LINE",
"498 1259 LINE",
"725 1259 LINE",
"830 1125 LINE",
"650 276 LINE",
"487 142 LINE",
"260 142 LINE"
);
},
{
closed = 1;
nodes = (
"487 142 LINE",
"650 276 LINE",
"830 1125 LINE",
"725 1259 LINE",
"498 1259 LINE",
"335 1125 LINE",
"155 276 LINE",
"260 142 LINE"
);
},
{
closed = 1;
nodes = (
"1228 1280 LINE",
"1203 1159 LINE",
"1075 1047 LINE",
"814 1047 LINE",
"814 1047 LINE",
"1075 1047 LINE",
"1203 1159 LINE",
"1228 1280 LINE"
);
},
{
closed = 1;
nodes = (
"1091 1171 LINE",
"1037 1126 LINE",
"973 1126 LINE",
"987 1194 LINE",
"825 1400 LINE",
"455 1400 LINE",
"205 1194 LINE",
"-5 206 LINE",
"157 0 LINE",
"527 0 LINE",
"777 206 LINE",
"939 969 LINE",
"1113 969 LINE",
"1316 1156 LINE",
"1358 1355 LINE",
"1130 1355 LINE"
);
}
);
width = 1189;
}
);
rightKerningGroup = T;
unicode = 01A0;
},
{
color = 6;
glyphname = Oogonek;
lastChange = "2021-04-27 15:17:24 +0000";
layers = (
{
anchors = (
{
name = bottom;
position = "{521, 0}";
},
{
name = center;
position = "{661, 700}";
},
{
name = top;
position = "{819, 1400}";
},
{
name = topleft;
position = "{200, 1400}";
},
{
name = topright;
position = "{1158, 969}";
}
);
layerId = "C350CEFC-842E-49B2-BD8E-B76FC625146E";
paths = (
{
closed = 1;
nodes = (
"377 344 LINE",
"528 1056 LINE",
"602 1117 LINE",
"916 1117 LINE",
"964 1056 LINE",
"813 344 LINE",
"739 283 LINE",
"425 283 LINE"
);
},
{
closed = 1;
nodes = (
"94 217 LINE",
"299 1183 LINE",
"529 1373 LINE",
"1096 1373 LINE",
"1247 1183 LINE",
"1042 217 LINE",
"810 27 LINE",
"243 27 LINE"
);
},
{
closed = 1;
nodes = (
"744 256 LINE",
"837 333 LINE",
"993 1067 LINE",
"933 1144 LINE",
"597 1144 LINE",
"503 1067 LINE",
"347 333 LINE",
"408 256 LINE"
);
},
{
closed = 1;
nodes = (
"655 27 LINE",
"402 -180 LINE",
"447 -239 LINE",
"669 -239 LINE",
"647 -342 LINE",
"384 -342 LINE",
"276 -180 LINE",
"513 27 LINE"
);
},
{
closed = 1;
nodes = (
"524 1400 LINE",
"274 1194 LINE",
"64 206 LINE",
"226 0 LINE",
"439 0 LINE",
"239 -180 LINE",
"362 -369 LINE",
"667 -369 LINE",
"700 -212 LINE",
"465 -212 LINE",
"442 -180 LINE",
"660 0 LINE",
"816 0 LINE",
"1066 206 LINE",
"1276 1194 LINE",
"1114 1400 LINE"
);
}
);
width = 1262;
},
{
anchors = (
{
name = bottom;
position = "{521, 0}";
},
{
name = center;
position = "{661, 700}";
},
{
name = top;
position = "{819, 1400}";
},
{
name = topleft;
position = "{200, 1400}";
},
{
name = topright;
position = "{1158, 969}";
}
);
layerId = "D1E5EF0F-C706-422D-804F-EC15AC36D3BD";
paths = (
{
closed = 1;
nodes = (
"377 344 LINE",
"528 1056 LINE",
"602 1117 LINE",
"916 1117 LINE",
"964 1056 LINE",
"813 344 LINE",
"739 283 LINE",
"425 283 LINE"
);
},
{
closed = 1;
nodes = (
"209 276 LINE",
"391 1132 LINE",
"566 1276 LINE",
"1022 1276 LINE",
"1135 1132 LINE",
"953 276 LINE",
"778 132 LINE",
"322 132 LINE"
);
},
{
closed = 1;
nodes = (
"774 160 LINE",
"927 284 LINE",
"1105 1124 LINE",
"1006 1248 LINE",
"570 1248 LINE",
"417 1124 LINE",
"239 284 LINE",
"338 160 LINE"
);
},
{
closed = 1;
nodes = (
"715 132 LINE",
"355 -180 LINE",
"422 -277 LINE",
"621 -277 LINE",
"615 -304 LINE",
"403 -304 LINE",
"319 -180 LINE",
"680 132 LINE"
);
},
{
closed = 1;
nodes = (
"524 1400 LINE",
"274 1194 LINE",
"64 206 LINE",
"226 0 LINE",
"436 0 LINE",
"239 -180 LINE",
"362 -369 LINE",
"667 -369 LINE",
"700 -212 LINE",
"465 -212 LINE",
"442 -180 LINE",
"660 0 LINE",
"816 0 LINE",
"1066 206 LINE",
"1276 1194 LINE",
"1114 1400 LINE"
);
}
);
width = 1262;
},
{
anchors = (
{
name = bottom;
position = "{521, 0}";
},
{
name = center;
position = "{661, 700}";
},
{
name = top;
position = "{819, 1400}";
},
{
name = topleft;
position = "{200, 1400}";
},
{
name = topright;
position = "{1158, 969}";
}
);
layerId = "52369092-E1A4-4352-8107-384305BB14D9";
paths = (
{
closed = 1;
nodes = (
"377 344 LINE",
"528 1056 LINE",
"602 1117 LINE",
"916 1117 LINE",
"964 1056 LINE",
"813 344 LINE",
"739 283 LINE",
"425 283 LINE"
);
},
{
closed = 1;
nodes = (
"224 276 LINE",
"405 1125 LINE",
"567 1259 LINE",
"1014 1259 LINE",
"1120 1125 LINE",
"939 276 LINE",
"777 142 LINE",
"330 142 LINE"
);
},
{
closed = 1;
nodes = (
"777 142 LINE",
"939 276 LINE",
"1120 1125 LINE",
"1014 1259 LINE",
"567 1259 LINE",
"405 1125 LINE",
"224 276 LINE",
"330 142 LINE"
);
},
{
closed = 1;
nodes = (
"708 142 LINE",
"339 -180 LINE",
"410 -290 LINE",
"618 -290 LINE",
"618 -290 LINE",
"410 -290 LINE",
"339 -180 LINE",
"708 142 LINE"
);
},
{
closed = 1;
nodes = (
"524 1400 LINE",
"274 1194 LINE",
"64 206 LINE",
"226 0 LINE",
"436 0 LINE",
"239 -180 LINE",
"362 -369 LINE",
"667 -369 LINE",
"700 -212 LINE",
"465 -212 LINE",
"442 -180 LINE",
"660 0 LINE",
"816 0 LINE",
"1066 206 LINE",
"1276 1194 LINE",
"1114 1400 LINE"
);
}
);
width = 1262;
},
{
anchors = (
{
name = bottom;
position = "{491, 0}";
},
{
name = center;
position = "{631, 700}";
},
{
name = top;
position = "{789, 1400}";
},
{
name = topleft;
position = "{170, 1400}";
},
{
name = topright;
position = "{1128, 969}";
}
);
layerId = "688D45B5-F54A-49EF-A5DE-FF449873800E";
paths = (
{
closed = 1;
nodes = (
"347 344 LINE",
"498 1056 LINE",
"572 1117 LINE",
"886 1117 LINE",
"934 1056 LINE",
"783 344 LINE",
"709 283 LINE",
"395 283 LINE"
);
},
{
closed = 1;
nodes = (
"64 217 LINE",
"269 1183 LINE",
"499 1373 LINE",
"1066 1373 LINE",
"1217 1183 LINE",
"1012 217 LINE",
"780 27 LINE",
"213 27 LINE"
);
},
{
closed = 1;
nodes = (
"714 256 LINE",
"807 333 LINE",
"963 1067 LINE",
"903 1144 LINE",
"567 1144 LINE",
"473 1067 LINE",
"317 333 LINE",
"378 256 LINE"
);
},
{
closed = 1;
nodes = (
"625 27 LINE",
"372 -180 LINE",
"417 -239 LINE",
"639 -239 LINE",
"617 -342 LINE",
"354 -342 LINE",
"246 -180 LINE",
"483 27 LINE"
);
},
{
closed = 1;
nodes = (
"494 1400 LINE",
"244 1194 LINE",
"34 206 LINE",
"196 0 LINE",
"409 0 LINE",
"209 -180 LINE",
"332 -369 LINE",
"637 -369 LINE",
"670 -212 LINE",
"435 -212 LINE",
"412 -180 LINE",
"630 0 LINE",
"786 0 LINE",
"1036 206 LINE",
"1246 1194 LINE",
"1084 1400 LINE"
);
}
);
width = 1202;
},
{
anchors = (
{
name = bottom;
position = "{491, 0}";
},
{
name = center;
position = "{631, 700}";
},
{
name = top;
position = "{789, 1400}";
},
{
name = topleft;
position = "{170, 1400}";
},
{
name = topright;
position = "{1128, 969}";
}
);
layerId = "890EBC54-9394-463B-B2A5-6ADD509C07AA";
paths = (
{
closed = 1;
nodes = (
"347 344 LINE",
"498 1056 LINE",
"572 1117 LINE",
"886 1117 LINE",
"934 1056 LINE",
"783 344 LINE",
"709 283 LINE",
"395 283 LINE"
);
},
{
closed = 1;
nodes = (
"179 276 LINE",
"361 1132 LINE",
"536 1276 LINE",
"992 1276 LINE",
"1105 1132 LINE",
"923 276 LINE",
"748 132 LINE",
"292 132 LINE"
);
},
{
closed = 1;
nodes = (
"744 160 LINE",
"897 284 LINE",
"1075 1124 LINE",
"976 1248 LINE",
"540 1248 LINE",
"387 1124 LINE",
"209 284 LINE",
"308 160 LINE"
);
},
{
closed = 1;
nodes = (
"685 132 LINE",
"325 -180 LINE",
"392 -277 LINE",
"591 -277 LINE",
"585 -304 LINE",
"373 -304 LINE",
"289 -180 LINE",
"650 132 LINE"
);
},
{
closed = 1;
nodes = (
"494 1400 LINE",
"244 1194 LINE",
"34 206 LINE",
"196 0 LINE",
"406 0 LINE",
"209 -180 LINE",
"332 -369 LINE",
"637 -369 LINE",
"670 -212 LINE",
"435 -212 LINE",
"412 -180 LINE",
"630 0 LINE",
"786 0 LINE",
"1036 206 LINE",
"1246 1194 LINE",
"1084 1400 LINE"
);
}
);
width = 1202;
},
{
anchors = (
{
name = bottom;
position = "{491, 0}";
},
{
name = center;
position = "{631, 700}";
},
{
name = top;
position = "{789, 1400}";
},
{
name = topleft;
position = "{170, 1400}";
},
{
name = topright;
position = "{1128, 969}";
}
);
layerId = "E606EEE5-03C7-423E-87C5-22C033DDF210";
paths = (
{
closed = 1;
nodes = (
"347 344 LINE",
"498 1056 LINE",
"572 1117 LINE",
"886 1117 LINE",
"934 1056 LINE",
"783 344 LINE",
"709 283 LINE",
"395 283 LINE"
);
},
{
closed = 1;
nodes = (
"194 276 LINE",
"375 1125 LINE",
"537 1259 LINE",
"984 1259 LINE",
"1090 1125 LINE",
"909 276 LINE",
"747 142 LINE",
"300 142 LINE"
);
},
{
closed = 1;
nodes = (
"747 142 LINE",
"909 276 LINE",
"1090 1125 LINE",
"984 1259 LINE",
"537 1259 LINE",
"375 1125 LINE",
"194 276 LINE",
"300 142 LINE"
);
},
{
closed = 1;
nodes = (
"678 142 LINE",
"309 -180 LINE",
"380 -290 LINE",
"588 -290 LINE",
"588 -290 LINE",
"380 -290 LINE",
"309 -180 LINE",
"678 142 LINE"
);
},
{
closed = 1;
nodes = (
"494 1400 LINE",
"244 1194 LINE",
"34 206 LINE",
"196 0 LINE",
"406 0 LINE",
"209 -180 LINE",
"332 -369 LINE",
"637 -369 LINE",
"670 -212 LINE",
"435 -212 LINE",
"412 -180 LINE",
"630 0 LINE",
"786 0 LINE",
"1036 206 LINE",
"1246 1194 LINE",
"1084 1400 LINE"
);
}
);
width = 1202;
}
);
unicode = 01EA;
},
{
color = 6;
glyphname = Oslash;
lastChange = "2021-04-27 15:17:23 +0000";
layers = (
{
anchors = (
{
name = bottom;
position = "{545, 0}";
},
{
name = top;
position = "{843, 1400}";
}
);
layerId = "C350CEFC-842E-49B2-BD8E-B76FC625146E";
paths = (
{
closed = 1;
nodes = (
"221 15 LINE",
"232 0 LINE",
"876 0 LINE",
"1126 206 LINE",
"1336 1194 LINE",
"1322 1211 LINE",
"1429 1328 LINE",
"1261 1465 LINE",
"1187 1384 LINE",
"1174 1400 LINE",
"530 1400 LINE",
"280 1194 LINE",
"70 206 LINE",
"86 188 LINE",
"-9 86 LINE",
"158 -53 LINE"
);
},
{
closed = 1;
nodes = (
"977 837 LINE",
"872 344 LINE",
"798 283 LINE",
"467 283 LINE"
);
},
{
closed = 1;
nodes = (
"803 256 LINE",
"897 333 LINE",
"1013 879 LINE",
"1023 927 LINE",
"406 256 LINE",
"455 256 LINE"
);
},
{
closed = 1;
nodes = (
"31 93 LINE",
"121 191 LINE",
"99 218 LINE",
"304 1183 LINE",
"536 1373 LINE",
"1157 1373 LINE",
"1181 1341 LINE",
"1260 1427 LINE",
"1390 1321 LINE",
"1285 1208 LINE",
"1306 1183 LINE",
"1101 218 LINE",
"871 27 LINE",
"250 27 LINE",
"227 58 LINE",
"160 -15 LINE"
);
},
{
closed = 1;
nodes = (
"1002 1144 LINE",
"954 1144 LINE",
"602 1144 LINE",
"509 1068 LINE",
"392 520 LINE",
"382 469 LINE"
);
},
{
closed = 1;
nodes = (
"533 1056 LINE",
"609 1118 LINE",
"941 1118 LINE",
"428 560 LINE"
);
}
);
width = 1420;
},
{
anchors = (
{
name = bottom;
position = "{545, 0}";
},
{
name = top;
position = "{843, 1400}";
}
);
layerId = "D1E5EF0F-C706-422D-804F-EC15AC36D3BD";
paths = (
{
closed = 1;
nodes = (
"221 15 LINE",
"232 0 LINE",
"876 0 LINE",
"1126 206 LINE",
"1336 1194 LINE",
"1322 1211 LINE",
"1429 1328 LINE",
"1261 1465 LINE",
"1187 1384 LINE",
"1174 1400 LINE",
"530 1400 LINE",
"280 1194 LINE",
"70 206 LINE",
"86 188 LINE",
"-9 86 LINE",
"158 -53 LINE"
);
},
{
closed = 1;
nodes = (
"977 837 LINE",
"872 344 LINE",
"798 283 LINE",
"467 283 LINE"
);
},
{
closed = 1;
nodes = (
"847 140 LINE",
"999 264 LINE",
"1186 1144 LINE",
"1158 1179 LINE",
"267 209 LINE",
"323 140 LINE"
);
},
{
closed = 1;
nodes = (
"118 82 LINE",
"233 206 LINE",
"193 256 LINE",
"384 1152 LINE",
"558 1296 LINE",
"1102 1296 LINE",
"1164 1218 LINE",
"1273 1338 LINE",
"1290 1324 LINE",
"1177 1201 LINE",
"1216 1152 LINE",
"1025 256 LINE",
"851 112 LINE",
"307 112 LINE",
"248 187 LINE",
"137 66 LINE"
);
},
{
closed = 1;
nodes = (
"1143 1197 LINE",
"1086 1268 LINE",
"562 1268 LINE",
"410 1144 LINE",
"223 264 LINE",
"252 228 LINE"
);
},
{
closed = 1;
nodes = (
"533 1056 LINE",
"609 1118 LINE",
"941 1118 LINE",
"428 560 LINE"
);
}
);
width = 1420;
},
{
anchors = (
{
name = bottom;
position = "{545, 0}";
},
{
name = top;
position = "{843, 1400}";
}
);
layerId = "52369092-E1A4-4352-8107-384305BB14D9";
paths = (
{
closed = 1;
nodes = (
"221 15 LINE",
"232 0 LINE",
"876 0 LINE",
"1126 206 LINE",
"1336 1194 LINE",
"1322 1211 LINE",
"1429 1328 LINE",
"1261 1465 LINE",
"1187 1384 LINE",
"1174 1400 LINE",
"530 1400 LINE",
"280 1194 LINE",
"70 206 LINE",
"86 188 LINE",
"-9 86 LINE",
"158 -53 LINE"
);
},
{
closed = 1;
nodes = (
"977 837 LINE",
"872 344 LINE",
"798 283 LINE",
"467 283 LINE"
);
},
{
closed = 1;
nodes = (
"845 130 LINE",
"1013 264 LINE",
"1200 1144 LINE",
"1160 1197 LINE",
"253 210 LINE",
"321 130 LINE"
);
},
{
closed = 1;
nodes = (
"135 82 LINE",
"253 210 LINE",
"209 264 LINE",
"396 1144 LINE",
"565 1282 LINE",
"1089 1282 LINE",
"1160 1197 LINE",
"1271 1320 LINE",
"1271 1320 LINE",
"1160 1197 LINE",
"1200 1144 LINE",
"1013 264 LINE",
"845 130 LINE",
"321 130 LINE",
"253 210 LINE",
"135 82 LINE"
);
},
{
closed = 1;
nodes = (
"1160 1197 LINE",
"1089 1282 LINE",
"565 1282 LINE",
"396 1144 LINE",
"209 264 LINE",
"253 210 LINE"
);
},
{
closed = 1;
nodes = (
"533 1056 LINE",
"609 1118 LINE",
"941 1118 LINE",
"428 560 LINE"
);
}
);
width = 1420;
},
{
anchors = (
{
name = bottom;
position = "{515, 0}";
},
{
name = top;
position = "{813, 1400}";
}
);
layerId = "688D45B5-F54A-49EF-A5DE-FF449873800E";
paths = (
{
closed = 1;
nodes = (
"191 15 LINE",
"202 0 LINE",
"846 0 LINE",
"1096 206 LINE",
"1306 1194 LINE",
"1292 1211 LINE",
"1399 1328 LINE",
"1231 1465 LINE",
"1157 1384 LINE",
"1144 1400 LINE",
"500 1400 LINE",
"250 1194 LINE",
"40 206 LINE",
"56 188 LINE",
"-39 86 LINE",
"128 -53 LINE"
);
},
{
closed = 1;
nodes = (
"947 837 LINE",
"842 344 LINE",
"768 283 LINE",
"437 283 LINE"
);
},
{
closed = 1;
nodes = (
"773 256 LINE",
"867 333 LINE",
"983 879 LINE",
"993 927 LINE",
"376 256 LINE",
"425 256 LINE"
);
},
{
closed = 1;
nodes = (
"1 93 LINE",
"91 191 LINE",
"69 218 LINE",
"274 1183 LINE",
"506 1373 LINE",
"1127 1373 LINE",
"1151 1341 LINE",
"1230 1427 LINE",
"1360 1321 LINE",
"1255 1208 LINE",
"1276 1183 LINE",
"1071 218 LINE",
"841 27 LINE",
"220 27 LINE",
"197 58 LINE",
"130 -15 LINE"
);
},
{
closed = 1;
nodes = (
"972 1144 LINE",
"924 1144 LINE",
"572 1144 LINE",
"479 1068 LINE",
"362 520 LINE",
"352 469 LINE"
);
},
{
closed = 1;
nodes = (
"503 1056 LINE",
"579 1118 LINE",
"911 1118 LINE",
"398 560 LINE"
);
}
);
width = 1360;
},
{
anchors = (
{
name = bottom;
position = "{515, 0}";
},
{
name = top;
position = "{813, 1400}";
}
);
layerId = "890EBC54-9394-463B-B2A5-6ADD509C07AA";
paths = (
{
closed = 1;
nodes = (
"191 15 LINE",
"202 0 LINE",
"846 0 LINE",
"1096 206 LINE",
"1306 1194 LINE",
"1292 1211 LINE",
"1399 1328 LINE",
"1231 1465 LINE",
"1157 1384 LINE",
"1144 1400 LINE",
"500 1400 LINE",
"250 1194 LINE",
"40 206 LINE",
"56 188 LINE",
"-39 86 LINE",
"128 -53 LINE"
);
},
{
closed = 1;
nodes = (
"947 837 LINE",
"842 344 LINE",
"768 283 LINE",
"437 283 LINE"
);
},
{
closed = 1;
nodes = (
"817 140 LINE",
"969 264 LINE",
"1156 1144 LINE",
"1128 1179 LINE",
"237 209 LINE",
"293 140 LINE"
);
},
{
closed = 1;
nodes = (
"88 82 LINE",
"203 206 LINE",
"163 256 LINE",
"354 1152 LINE",
"528 1296 LINE",
"1072 1296 LINE",
"1134 1218 LINE",
"1243 1338 LINE",
"1260 1324 LINE",
"1147 1201 LINE",
"1186 1152 LINE",
"995 256 LINE",
"821 112 LINE",
"277 112 LINE",
"218 187 LINE",
"107 66 LINE"
);
},
{
closed = 1;
nodes = (
"1113 1197 LINE",
"1056 1268 LINE",
"532 1268 LINE",
"380 1144 LINE",
"193 264 LINE",
"222 228 LINE"
);
},
{
closed = 1;
nodes = (
"503 1056 LINE",
"579 1118 LINE",
"911 1118 LINE",
"398 560 LINE"
);
}
);
width = 1360;
},
{
anchors = (
{
name = bottom;
position = "{515, 0}";
},
{
name = top;
position = "{813, 1400}";
}
);
layerId = "E606EEE5-03C7-423E-87C5-22C033DDF210";
paths = (
{
closed = 1;
nodes = (
"191 15 LINE",
"202 0 LINE",
"846 0 LINE",
"1096 206 LINE",
"1306 1194 LINE",
"1292 1211 LINE",
"1399 1328 LINE",
"1231 1465 LINE",
"1157 1384 LINE",
"1144 1400 LINE",
"500 1400 LINE",
"250 1194 LINE",
"40 206 LINE",
"56 188 LINE",
"-39 86 LINE",
"128 -53 LINE"
);
},
{
closed = 1;
nodes = (
"947 837 LINE",
"842 344 LINE",
"768 283 LINE",
"437 283 LINE"
);
},
{
closed = 1;
nodes = (
"815 130 LINE",
"983 264 LINE",
"1170 1144 LINE",
"1130 1197 LINE",
"223 210 LINE",
"291 130 LINE"
);
},
{
closed = 1;
nodes = (
"105 82 LINE",
"223 210 LINE",
"179 264 LINE",
"366 1144 LINE",
"535 1282 LINE",
"1059 1282 LINE",
"1130 1197 LINE",
"1241 1320 LINE",
"1241 1320 LINE",
"1130 1197 LINE",
"1170 1144 LINE",
"983 264 LINE",
"815 130 LINE",
"291 130 LINE",
"223 210 LINE",
"105 82 LINE"
);
},
{
closed = 1;
nodes = (
"1130 1197 LINE",
"1059 1282 LINE",
"535 1282 LINE",
"366 1144 LINE",
"179 264 LINE",
"223 210 LINE"
);
},
{
closed = 1;
nodes = (
"503 1056 LINE",
"579 1118 LINE",
"911 1118 LINE",
"398 560 LINE"
);
}
);
width = 1360;
}
);
leftKerningGroup = O;
rightKerningGroup = O;
unicode = 00D8;
},
{
color = 6;
glyphname = OE;
lastChange = "2021-04-27 15:17:23 +0000";
layers = (
{
anchors = (
{
name = bottom;
position = "{827, 0}";
},
{
name = top;
position = "{1125, 1400}";
}
);
layerId = "C350CEFC-842E-49B2-BD8E-B76FC625146E";
paths = (
{
closed = 1;
nodes = (
"1629 0 LINE",
"1689 283 LINE",
"1139 283 LINE",
"1199 565 LINE",
"1710 565 LINE",
"1770 848 LINE",
"1259 848 LINE",
"1317 1117 LINE",
"1867 1117 LINE",
"1927 1400 LINE",
"527 1400 LINE",
"277 1194 LINE",
"67 206 LINE",
"229 0 LINE"
);
},
{
closed = 1;
nodes = (
"801 256 LINE",
"894 333 LINE",
"1050 1067 LINE",
"989 1144 LINE",
"599 1144 LINE",
"506 1067 LINE",
"350 333 LINE",
"411 256 LINE"
);
},
{
closed = 1;
nodes = (
"379 344 LINE",
"531 1056 LINE",
"605 1117 LINE",
"973 1117 LINE",
"1021 1056 LINE",
"869 344 LINE",
"795 283 LINE",
"427 283 LINE"
);
},
{
closed = 1;
nodes = (
"96 217 LINE",
"302 1183 LINE",
"532 1373 LINE",
"1161 1373 LINE",
"1171 1373 LINE",
"1181 1373 LINE",
"1894 1373 LINE",
"1845 1144 LINE",
"1295 1144 LINE",
"1227 821 LINE",
"1739 821 LINE",
"1690 592 LINE",
"1178 592 LINE",
"1107 256 LINE",
"1657 256 LINE",
"1608 27 LINE",
"895 27 LINE",
"885 27 LINE",
"875 27 LINE",
"246 27 LINE"
);
}
);
width = 1952;
},
{
anchors = (
{
name = bottom;
position = "{827, 0}";
},
{
name = top;
position = "{1125, 1400}";
}
);
layerId = "D1E5EF0F-C706-422D-804F-EC15AC36D3BD";
paths = (
{
closed = 1;
nodes = (
"1629 0 LINE",
"1689 283 LINE",
"1139 283 LINE",
"1199 565 LINE",
"1710 565 LINE",
"1770 848 LINE",
"1259 848 LINE",
"1317 1117 LINE",
"1867 1117 LINE",
"1927 1400 LINE",
"527 1400 LINE",
"277 1194 LINE",
"67 206 LINE",
"229 0 LINE"
);
},
{
closed = 1;
nodes = (
"833 140 LINE",
"985 264 LINE",
"1172 1144 LINE",
"1073 1268 LINE",
"574 1268 LINE",
"421 1144 LINE",
"234 264 LINE",
"334 140 LINE"
);
},
{
closed = 1;
nodes = (
"379 344 LINE",
"531 1056 LINE",
"605 1117 LINE",
"973 1117 LINE",
"1021 1056 LINE",
"869 344 LINE",
"795 283 LINE",
"427 283 LINE"
);
},
{
closed = 1;
nodes = (
"205 256 LINE",
"395 1152 LINE",
"570 1296 LINE",
"1089 1296 LINE",
"1180 1180 LINE",
"1205 1296 LINE",
"1801 1296 LINE",
"1795 1268 LINE",
"1227 1268 LINE",
"1111 724 LINE",
"1639 724 LINE",
"1633 696 LINE",
"1105 696 LINE",
"987 140 LINE",
"1555 140 LINE",
"1549 112 LINE",
"953 112 LINE",
"978 228 LINE",
"837 112 LINE",
"318 112 LINE"
);
}
);
width = 1952;
},
{
anchors = (
{
name = bottom;
position = "{827, 0}";
},
{
name = top;
position = "{1125, 1400}";
}
);
layerId = "52369092-E1A4-4352-8107-384305BB14D9";
paths = (
{
closed = 1;
nodes = (
"1629 0 LINE",
"1689 283 LINE",
"1139 283 LINE",
"1199 565 LINE",
"1710 565 LINE",
"1770 848 LINE",
"1259 848 LINE",
"1317 1117 LINE",
"1867 1117 LINE",
"1927 1400 LINE",
"527 1400 LINE",
"277 1194 LINE",
"67 206 LINE",
"229 0 LINE"
);
},
{
closed = 1;
nodes = (
"840 126 LINE",
"998 256 LINE",
"1188 1152 LINE",
"1086 1282 LINE",
"580 1282 LINE",
"405 1138 LINE",
"221 270 LINE",
"334 126 LINE"
);
},
{
closed = 1;
nodes = (
"379 344 LINE",
"531 1056 LINE",
"605 1117 LINE",
"973 1117 LINE",
"1021 1056 LINE",
"869 344 LINE",
"795 283 LINE",
"427 283 LINE"
);
},
{
closed = 1;
nodes = (
"221 270 LINE",
"405 1138 LINE",
"580 1282 LINE",
"1086 1282 LINE",
"1188 1152 LINE",
"1216 1282 LINE",
"1778 1282 LINE",
"1778 1282 LINE",
"1216 1282 LINE",
"1094 710 LINE",
"1616 710 LINE",
"1616 710 LINE",
"1094 710 LINE",
"970 126 LINE",
"1532 126 LINE",
"1532 126 LINE",
"970 126 LINE",
"998 256 LINE",
"840 126 LINE",
"334 126 LINE"
);
}
);
width = 1952;
},
{
anchors = (
{
name = bottom;
position = "{797, 0}";
},
{
name = top;
position = "{1095, 1400}";
}
);
layerId = "688D45B5-F54A-49EF-A5DE-FF449873800E";
paths = (
{
closed = 1;
nodes = (
"1599 0 LINE",
"1659 283 LINE",
"1109 283 LINE",
"1169 565 LINE",
"1680 565 LINE",
"1740 848 LINE",
"1229 848 LINE",
"1287 1117 LINE",
"1837 1117 LINE",
"1897 1400 LINE",
"497 1400 LINE",
"247 1194 LINE",
"37 206 LINE",
"199 0 LINE"
);
},
{
closed = 1;
nodes = (
"771 256 LINE",
"864 333 LINE",
"1020 1067 LINE",
"959 1144 LINE",
"569 1144 LINE",
"476 1067 LINE",
"320 333 LINE",
"381 256 LINE"
);
},
{
closed = 1;
nodes = (
"349 344 LINE",
"501 1056 LINE",
"575 1117 LINE",
"943 1117 LINE",
"991 1056 LINE",
"839 344 LINE",
"765 283 LINE",
"397 283 LINE"
);
},
{
closed = 1;
nodes = (
"66 217 LINE",
"272 1183 LINE",
"502 1373 LINE",
"1131 1373 LINE",
"1141 1373 LINE",
"1151 1373 LINE",
"1864 1373 LINE",
"1815 1144 LINE",
"1265 1144 LINE",
"1197 821 LINE",
"1709 821 LINE",
"1660 592 LINE",
"1148 592 LINE",
"1077 256 LINE",
"1627 256 LINE",
"1578 27 LINE",
"865 27 LINE",
"855 27 LINE",
"845 27 LINE",
"216 27 LINE"
);
}
);
width = 1892;
},
{
anchors = (
{
name = bottom;
position = "{797, 0}";
},
{
name = top;
position = "{1095, 1400}";
}
);
layerId = "890EBC54-9394-463B-B2A5-6ADD509C07AA";
paths = (
{
closed = 1;
nodes = (
"1599 0 LINE",
"1659 283 LINE",
"1109 283 LINE",
"1169 565 LINE",
"1680 565 LINE",
"1740 848 LINE",
"1229 848 LINE",
"1287 1117 LINE",
"1837 1117 LINE",
"1897 1400 LINE",
"497 1400 LINE",
"247 1194 LINE",
"37 206 LINE",
"199 0 LINE"
);
},
{
closed = 1;
nodes = (
"803 140 LINE",
"955 264 LINE",
"1142 1144 LINE",
"1043 1268 LINE",
"544 1268 LINE",
"391 1144 LINE",
"204 264 LINE",
"304 140 LINE"
);
},
{
closed = 1;
nodes = (
"349 344 LINE",
"501 1056 LINE",
"575 1117 LINE",
"943 1117 LINE",
"991 1056 LINE",
"839 344 LINE",
"765 283 LINE",
"397 283 LINE"
);
},
{
closed = 1;
nodes = (
"175 256 LINE",
"365 1152 LINE",
"540 1296 LINE",
"1059 1296 LINE",
"1150 1180 LINE",
"1175 1296 LINE",
"1771 1296 LINE",
"1765 1268 LINE",
"1197 1268 LINE",
"1081 724 LINE",
"1609 724 LINE",
"1603 696 LINE",
"1075 696 LINE",
"957 140 LINE",
"1525 140 LINE",
"1519 112 LINE",
"923 112 LINE",
"948 228 LINE",
"807 112 LINE",
"288 112 LINE"
);
}
);
width = 1892;
},
{
anchors = (
{
name = bottom;
position = "{797, 0}";
},
{
name = top;
position = "{1095, 1400}";
}
);
layerId = "E606EEE5-03C7-423E-87C5-22C033DDF210";
paths = (
{
closed = 1;
nodes = (
"1599 0 LINE",
"1659 283 LINE",
"1109 283 LINE",
"1169 565 LINE",
"1680 565 LINE",
"1740 848 LINE",
"1229 848 LINE",
"1287 1117 LINE",
"1837 1117 LINE",
"1897 1400 LINE",
"497 1400 LINE",
"247 1194 LINE",
"37 206 LINE",
"199 0 LINE"
);
},
{
closed = 1;
nodes = (
"810 126 LINE",
"968 256 LINE",
"1158 1152 LINE",
"1056 1282 LINE",
"550 1282 LINE",
"375 1138 LINE",
"191 270 LINE",
"304 126 LINE"
);
},
{
closed = 1;
nodes = (
"349 344 LINE",
"501 1056 LINE",
"575 1117 LINE",
"943 1117 LINE",
"991 1056 LINE",
"839 344 LINE",
"765 283 LINE",
"397 283 LINE"
);
},
{
closed = 1;
nodes = (
"191 270 LINE",
"375 1138 LINE",
"550 1282 LINE",
"1056 1282 LINE",
"1158 1152 LINE",
"1186 1282 LINE",
"1748 1282 LINE",
"1748 1282 LINE",
"1186 1282 LINE",
"1064 710 LINE",
"1586 710 LINE",
"1586 710 LINE",
"1064 710 LINE",
"940 126 LINE",
"1502 126 LINE",
"1502 126 LINE",
"940 126 LINE",
"968 256 LINE",
"810 126 LINE",
"304 126 LINE"
);
}
);
width = 1892;
}
);
leftKerningGroup = O;
rightKerningGroup = E;
unicode = 0152;
},
{
color = 6;
glyphname = P;
lastChange = "2021-04-27 15:17:25 +0000";
layers = (
{
anchors = (
{
name = bottom;
position = "{640, 0}";
},
{
name = top;
position = "{938, 1400}";
}
);
layerId = "C350CEFC-842E-49B2-BD8E-B76FC625146E";
paths = (
{
closed = 1;
nodes = (
"274 0 LINE",
"363 418 LINE",
"1198 418 LINE",
"1471 643 LINE",
"1588 1194 LINE",
"1426 1400 LINE",
"289 1400 LINE",
"-9 0 LINE"
);
},
{
closed = 1;
nodes = (
"310 1373 LINE",
"1409 1373 LINE",
"1559 1183 LINE",
"1446 655 LINE",
"1193 445 LINE",
"342 445 LINE",
"253 27 LINE",
"24 27 LINE"
);
},
{
closed = 1;
nodes = (
"512 1117 LINE",
"1229 1117 LINE",
"1277 1056 LINE",
"1218 781 LINE",
"1120 701 LINE",
"423 701 LINE"
);
},
{
closed = 1;
nodes = (
"1125 674 LINE",
"1243 770 LINE",
"1306 1067 LINE",
"1245 1144 LINE",
"490 1144 LINE",
"390 674 LINE"
);
}
);
width = 1594;
},
{
anchors = (
{
name = bottom;
position = "{640, 0}";
},
{
name = top;
position = "{938, 1400}";
}
);
layerId = "D1E5EF0F-C706-422D-804F-EC15AC36D3BD";
paths = (
{
closed = 1;
nodes = (
"274 0 LINE",
"363 418 LINE",
"1198 418 LINE",
"1471 643 LINE",
"1588 1194 LINE",
"1426 1400 LINE",
"289 1400 LINE",
"-9 0 LINE"
);
},
{
closed = 1;
nodes = (
"387 1276 LINE",
"1340 1276 LINE",
"1454 1132 LINE",
"1365 712 LINE",
"1168 550 LINE",
"261 550 LINE",
"167 108 LINE",
"139 108 LINE"
);
},
{
closed = 1;
nodes = (
"512 1117 LINE",
"1229 1117 LINE",
"1277 1056 LINE",
"1218 781 LINE",
"1120 701 LINE",
"423 701 LINE"
);
},
{
closed = 1;
nodes = (
"1164 578 LINE",
"1338 720 LINE",
"1424 1124 LINE",
"1324 1248 LINE",
"409 1248 LINE",
"267 578 LINE"
);
}
);
width = 1594;
},
{
anchors = (
{
name = bottom;
position = "{640, 0}";
},
{
name = top;
position = "{938, 1400}";
}
);
layerId = "52369092-E1A4-4352-8107-384305BB14D9";
paths = (
{
closed = 1;
nodes = (
"274 0 LINE",
"363 418 LINE",
"1198 418 LINE",
"1471 643 LINE",
"1588 1194 LINE",
"1426 1400 LINE",
"289 1400 LINE",
"-9 0 LINE"
);
},
{
closed = 1;
nodes = (
"400 1259 LINE",
"1335 1259 LINE",
"1440 1125 LINE",
"1354 717 LINE",
"1169 565 LINE",
"251 565 LINE",
"161 142 LINE",
"162 142 LINE"
);
},
{
closed = 1;
nodes = (
"512 1117 LINE",
"1229 1117 LINE",
"1277 1056 LINE",
"1218 781 LINE",
"1120 701 LINE",
"423 701 LINE"
);
},
{
closed = 1;
nodes = (
"1169 565 LINE",
"1354 717 LINE",
"1440 1125 LINE",
"1335 1259 LINE",
"399 1259 LINE",
"251 565 LINE"
);
}
);
width = 1594;
},
{
anchors = (
{
name = bottom;
position = "{317, 0}";
},
{
name = top;
position = "{615, 1400}";
}
);
layerId = "688D45B5-F54A-49EF-A5DE-FF449873800E";
paths = (
{
closed = 1;
nodes = (
"244 0 LINE",
"333 418 LINE",
"555 418 LINE",
"828 643 LINE",
"945 1194 LINE",
"783 1400 LINE",
"259 1400 LINE",
"-39 0 LINE"
);
},
{
closed = 1;
nodes = (
"280 1373 LINE",
"766 1373 LINE",
"916 1183 LINE",
"803 655 LINE",
"550 445 LINE",
"312 445 LINE",
"223 27 LINE",
"-6 27 LINE"
);
},
{
closed = 1;
nodes = (
"482 1117 LINE",
"586 1117 LINE",
"634 1056 LINE",
"575 781 LINE",
"477 701 LINE",
"393 701 LINE"
);
},
{
closed = 1;
nodes = (
"482 674 LINE",
"600 770 LINE",
"663 1067 LINE",
"602 1144 LINE",
"460 1144 LINE",
"360 674 LINE"
);
}
);
width = 921;
},
{
anchors = (
{
name = bottom;
position = "{317, 0}";
},
{
name = top;
position = "{615, 1400}";
}
);
layerId = "890EBC54-9394-463B-B2A5-6ADD509C07AA";
paths = (
{
closed = 1;
nodes = (
"244 0 LINE",
"333 418 LINE",
"555 418 LINE",
"828 643 LINE",
"945 1194 LINE",
"783 1400 LINE",
"259 1400 LINE",
"-39 0 LINE"
);
},
{
closed = 1;
nodes = (
"357 1276 LINE",
"697 1276 LINE",
"811 1132 LINE",
"722 712 LINE",
"525 550 LINE",
"231 550 LINE",
"137 108 LINE",
"109 108 LINE"
);
},
{
closed = 1;
nodes = (
"482 1117 LINE",
"586 1117 LINE",
"634 1056 LINE",
"575 781 LINE",
"477 701 LINE",
"393 701 LINE"
);
},
{
closed = 1;
nodes = (
"521 578 LINE",
"695 720 LINE",
"781 1124 LINE",
"681 1248 LINE",
"379 1248 LINE",
"237 578 LINE"
);
}
);
width = 921;
},
{
anchors = (
{
name = bottom;
position = "{317, 0}";
},
{
name = top;
position = "{615, 1400}";
}
);
layerId = "E606EEE5-03C7-423E-87C5-22C033DDF210";
paths = (
{
closed = 1;
nodes = (
"244 0 LINE",
"333 418 LINE",
"555 418 LINE",
"828 643 LINE",
"945 1194 LINE",
"783 1400 LINE",
"259 1400 LINE",
"-39 0 LINE"
);
},
{
closed = 1;
nodes = (
"370 1259 LINE",
"692 1259 LINE",
"797 1125 LINE",
"711 717 LINE",
"526 565 LINE",
"221 565 LINE",
"131 142 LINE",
"132 142 LINE"
);
},
{
closed = 1;
nodes = (
"482 1117 LINE",
"586 1117 LINE",
"634 1056 LINE",
"575 781 LINE",
"477 701 LINE",
"393 701 LINE"
);
},
{
closed = 1;
nodes = (
"526 565 LINE",
"711 717 LINE",
"797 1125 LINE",
"692 1259 LINE",
"369 1259 LINE",
"221 565 LINE"
);
}
);
width = 921;
}
);
leftKerningGroup = H;
leftMetricsKey = D;
rightKerningGroup = P;
unicode = 0050;
},
{
color = 6;
glyphname = Thorn;
lastChange = "2021-04-27 15:17:24 +0000";
layers = (
{
layerId = "C350CEFC-842E-49B2-BD8E-B76FC625146E";
paths = (
{
closed = 1;
nodes = (
"254 0 LINE",
"322 320 LINE",
"754 320 LINE",
"1005 526 LINE",
"1079 874 LINE",
"916 1080 LINE",
"484 1080 LINE",
"552 1400 LINE",
"269 1400 LINE",
"-29 0 LINE"
);
},
{
closed = 1;
nodes = (
"290 1373 LINE",
"519 1373 LINE",
"451 1053 LINE",
"899 1053 LINE",
"1050 863 LINE",
"980 537 LINE",
"749 347 LINE",
"301 347 LINE",
"233 27 LINE",
"4 27 LINE"
);
},
{
closed = 1;
nodes = (
"683 576 LINE",
"776 653 LINE",
"796 748 LINE",
"735 824 LINE",
"402 824 LINE",
"350 576 LINE"
);
},
{
closed = 1;
nodes = (
"424 798 LINE",
"719 798 LINE",
"767 736 LINE",
"751 664 LINE",
"677 603 LINE",
"382 603 LINE"
);
}
);
width = 1162;
},
{
layerId = "D1E5EF0F-C706-422D-804F-EC15AC36D3BD";
paths = (
{
closed = 1;
nodes = (
"254 0 LINE",
"322 320 LINE",
"754 320 LINE",
"1005 526 LINE",
"1079 874 LINE",
"916 1080 LINE",
"484 1080 LINE",
"552 1400 LINE",
"269 1400 LINE",
"-29 0 LINE"
);
},
{
closed = 1;
nodes = (
"370 1282 LINE",
"398 1282 LINE",
"329 960 LINE",
"830 960 LINE",
"937 824 LINE",
"891 606 LINE",
"702 450 LINE",
"221 450 LINE",
"151 123 LINE",
"123 123 LINE"
);
},
{
closed = 1;
nodes = (
"698 478 LINE",
"865 614 LINE",
"908 816 LINE",
"814 932 LINE",
"323 932 LINE",
"227 478 LINE"
);
},
{
closed = 1;
nodes = (
"424 798 LINE",
"719 798 LINE",
"767 736 LINE",
"751 664 LINE",
"677 603 LINE",
"382 603 LINE"
);
}
);
width = 1162;
},
{
layerId = "52369092-E1A4-4352-8107-384305BB14D9";
paths = (
{
closed = 1;
nodes = (
"254 0 LINE",
"322 320 LINE",
"754 320 LINE",
"1005 526 LINE",
"1079 874 LINE",
"916 1080 LINE",
"484 1080 LINE",
"552 1400 LINE",
"269 1400 LINE",
"-29 0 LINE"
);
},
{
closed = 1;
nodes = (
"386 1282 LINE",
"385 1282 LINE",
"313 944 LINE",
"817 944 LINE",
"922 816 LINE",
"879 614 LINE",
"695 466 LINE",
"211 466 LINE",
"138 123 LINE",
"139 123 LINE"
);
},
{
closed = 1;
nodes = (
"695 465 LINE",
"880 614 LINE",
"923 816 LINE",
"817 945 LINE",
"313 945 LINE",
"211 465 LINE"
);
},
{
closed = 1;
nodes = (
"424 798 LINE",
"719 798 LINE",
"767 736 LINE",
"751 664 LINE",
"677 603 LINE",
"382 603 LINE"
);
}
);
width = 1162;
},
{
layerId = "688D45B5-F54A-49EF-A5DE-FF449873800E";
paths = (
{
closed = 1;
nodes = (
"224 0 LINE",
"292 320 LINE",
"724 320 LINE",
"975 526 LINE",
"1049 874 LINE",
"886 1080 LINE",
"454 1080 LINE",
"522 1400 LINE",
"239 1400 LINE",
"-59 0 LINE"
);
},
{
closed = 1;
nodes = (
"260 1373 LINE",
"489 1373 LINE",
"421 1053 LINE",
"869 1053 LINE",
"1020 863 LINE",
"950 537 LINE",
"719 347 LINE",
"271 347 LINE",
"203 27 LINE",
"-26 27 LINE"
);
},
{
closed = 1;
nodes = (
"653 576 LINE",
"746 653 LINE",
"766 748 LINE",
"705 824 LINE",
"372 824 LINE",
"320 576 LINE"
);
},
{
closed = 1;
nodes = (
"394 798 LINE",
"689 798 LINE",
"737 736 LINE",
"721 664 LINE",
"647 603 LINE",
"352 603 LINE"
);
}
);
width = 1102;
},
{
layerId = "890EBC54-9394-463B-B2A5-6ADD509C07AA";
paths = (
{
closed = 1;
nodes = (
"224 0 LINE",
"292 320 LINE",
"724 320 LINE",
"975 526 LINE",
"1049 874 LINE",
"886 1080 LINE",
"454 1080 LINE",
"522 1400 LINE",
"239 1400 LINE",
"-59 0 LINE"
);
},
{
closed = 1;
nodes = (
"340 1282 LINE",
"368 1282 LINE",
"299 960 LINE",
"800 960 LINE",
"907 824 LINE",
"861 606 LINE",
"672 450 LINE",
"191 450 LINE",
"121 123 LINE",
"93 123 LINE"
);
},
{
closed = 1;
nodes = (
"668 478 LINE",
"835 614 LINE",
"878 816 LINE",
"784 932 LINE",
"293 932 LINE",
"197 478 LINE"
);
},
{
closed = 1;
nodes = (
"394 798 LINE",
"689 798 LINE",
"737 736 LINE",
"721 664 LINE",
"647 603 LINE",
"352 603 LINE"
);
}
);
width = 1102;
},
{
layerId = "E606EEE5-03C7-423E-87C5-22C033DDF210";
paths = (
{
closed = 1;
nodes = (
"224 0 LINE",
"292 320 LINE",
"724 320 LINE",
"975 526 LINE",
"1049 874 LINE",
"886 1080 LINE",
"454 1080 LINE",
"522 1400 LINE",
"239 1400 LINE",
"-59 0 LINE"
);
},
{
closed = 1;
nodes = (
"356 1282 LINE",
"355 1282 LINE",
"283 944 LINE",
"787 944 LINE",
"892 816 LINE",
"849 614 LINE",
"665 466 LINE",
"181 466 LINE",
"108 123 LINE",
"109 123 LINE"
);
},
{
closed = 1;
nodes = (
"665 465 LINE",
"850 614 LINE",
"893 816 LINE",
"787 945 LINE",
"283 945 LINE",
"181 465 LINE"
);
},
{
closed = 1;
nodes = (
"394 798 LINE",
"689 798 LINE",
"737 736 LINE",
"721 664 LINE",
"647 603 LINE",
"352 603 LINE"
);
}
);
width = 1102;
}
);
unicode = 00DE;
},
{
color = 6;
glyphname = Q;
lastChange = "2021-04-27 15:17:24 +0000";
layers = (
{
anchors = (
{
name = bottom;
position = "{689, 0}";
},
{
name = top;
position = "{987, 1400}";
}
);
layerId = "C350CEFC-842E-49B2-BD8E-B76FC625146E";
paths = (
{
closed = 1;
nodes = (
"1376 -50 LINE",
"1273 85 LINE",
"1420 206 LINE",
"1630 1194 LINE",
"1468 1400 LINE",
"485 1400 LINE",
"235 1194 LINE",
"25 206 LINE",
"187 0 LINE",
"953 0 LINE",
"1143 -242 LINE"
);
},
{
closed = 1;
nodes = (
"970 27 LINE",
"204 27 LINE",
"54 217 LINE",
"259 1183 LINE",
"490 1373 LINE",
"1451 1373 LINE",
"1600 1183 LINE",
"1395 217 LINE",
"1233 83 LINE",
"1233 83 LINE",
"1338 -50 LINE",
"1152 -204 LINE"
);
},
{
closed = 1;
nodes = (
"337 344 LINE",
"488 1056 LINE",
"562 1117 LINE",
"1269 1117 LINE",
"1318 1056 LINE",
"1167 344 LINE",
"1092 283 LINE",
"385 283 LINE"
);
},
{
closed = 1;
nodes = (
"1098 256 LINE",
"1191 333 LINE",
"1347 1067 LINE",
"1287 1144 LINE",
"557 1144 LINE",
"464 1067 LINE",
"308 333 LINE",
"368 256 LINE"
);
}
);
width = 1665;
},
{
anchors = (
{
name = bottom;
position = "{701, 0}";
},
{
name = top;
position = "{999, 1400}";
}
);
layerId = "D1E5EF0F-C706-422D-804F-EC15AC36D3BD";
paths = (
{
closed = 1;
nodes = (
"1376 -50 LINE",
"1273 85 LINE",
"1420 206 LINE",
"1630 1194 LINE",
"1468 1400 LINE",
"485 1400 LINE",
"235 1194 LINE",
"25 206 LINE",
"187 0 LINE",
"954 0 LINE",
"1143 -242 LINE"
);
},
{
closed = 1;
nodes = (
"1030 132 LINE",
"283 132 LINE",
"170 276 LINE",
"352 1132 LINE",
"526 1276 LINE",
"1377 1276 LINE",
"1491 1132 LINE",
"1309 276 LINE",
"1134 132 LINE",
"1070 132 LINE",
"1223 -70 LINE",
"1199 -90 LINE"
);
},
{
closed = 1;
nodes = (
"337 344 LINE",
"488 1056 LINE",
"562 1117 LINE",
"1269 1117 LINE",
"1318 1056 LINE",
"1167 344 LINE",
"1092 283 LINE",
"385 283 LINE"
);
},
{
closed = 1;
nodes = (
"1130 160 LINE",
"1282 284 LINE",
"1461 1124 LINE",
"1361 1248 LINE",
"530 1248 LINE",
"378 1124 LINE",
"199 284 LINE",
"299 160 LINE"
);
}
);
width = 1665;
},
{
anchors = (
{
name = bottom;
position = "{701, 0}";
},
{
name = top;
position = "{999, 1400}";
}
);
layerId = "52369092-E1A4-4352-8107-384305BB14D9";
paths = (
{
closed = 1;
nodes = (
"1376 -50 LINE",
"1273 85 LINE",
"1420 206 LINE",
"1630 1194 LINE",
"1468 1400 LINE",
"485 1400 LINE",
"235 1194 LINE",
"25 206 LINE",
"187 0 LINE",
"954 0 LINE",
"1143 -242 LINE"
);
},
{
closed = 1;
nodes = (
"1044 142 LINE",
"295 142 LINE",
"186 280 LINE",
"367 1128 LINE",
"523 1259 LINE",
"1374 1259 LINE",
"1477 1128 LINE",
"1296 280 LINE",
"1126 142 LINE",
"1043 142 LINE",
"1201 -67 LINE",
"1202 -67 LINE"
);
},
{
closed = 1;
nodes = (
"337 344 LINE",
"488 1056 LINE",
"562 1117 LINE",
"1269 1117 LINE",
"1318 1056 LINE",
"1167 344 LINE",
"1092 283 LINE",
"385 283 LINE"
);
},
{
closed = 1;
nodes = (
"1126 142 LINE",
"1297 280 LINE",
"1478 1128 LINE",
"1374 1260 LINE",
"523 1260 LINE",
"366 1128 LINE",
"185 280 LINE",
"295 142 LINE"
);
}
);
width = 1665;
},
{
anchors = (
{
name = bottom;
position = "{358, 0}";
},
{
name = top;
position = "{656, 1400}";
}
);
layerId = "688D45B5-F54A-49EF-A5DE-FF449873800E";
paths = (
{
closed = 1;
nodes = (
"759 -50 LINE",
"656 85 LINE",
"803 206 LINE",
"1013 1194 LINE",
"851 1400 LINE",
"455 1400 LINE",
"205 1194 LINE",
"-5 206 LINE",
"157 0 LINE",
"336 0 LINE",
"526 -242 LINE"
);
},
{
closed = 1;
nodes = (
"353 27 LINE",
"174 27 LINE",
"24 217 LINE",
"229 1183 LINE",
"460 1373 LINE",
"834 1373 LINE",
"983 1183 LINE",
"778 217 LINE",
"616 83 LINE",
"616 83 LINE",
"721 -50 LINE",
"535 -204 LINE"
);
},
{
closed = 1;
nodes = (
"307 344 LINE",
"458 1056 LINE",
"532 1117 LINE",
"652 1117 LINE",
"701 1056 LINE",
"550 344 LINE",
"475 283 LINE",
"355 283 LINE"
);
},
{
closed = 1;
nodes = (
"481 256 LINE",
"574 333 LINE",
"730 1067 LINE",
"670 1144 LINE",
"527 1144 LINE",
"434 1067 LINE",
"278 333 LINE",
"338 256 LINE"
);
}
);
width = 1018;
},
{
anchors = (
{
name = bottom;
position = "{351, 0}";
},
{
name = top;
position = "{649, 1400}";
}
);
layerId = "890EBC54-9394-463B-B2A5-6ADD509C07AA";
paths = (
{
closed = 1;
nodes = (
"759 -50 LINE",
"656 85 LINE",
"803 206 LINE",
"1013 1194 LINE",
"851 1400 LINE",
"455 1400 LINE",
"205 1194 LINE",
"-5 206 LINE",
"157 0 LINE",
"337 0 LINE",
"526 -242 LINE"
);
},
{
closed = 1;
nodes = (
"413 132 LINE",
"253 132 LINE",
"140 276 LINE",
"322 1132 LINE",
"496 1276 LINE",
"760 1276 LINE",
"874 1132 LINE",
"692 276 LINE",
"517 132 LINE",
"453 132 LINE",
"606 -70 LINE",
"582 -90 LINE"
);
},
{
closed = 1;
nodes = (
"307 344 LINE",
"458 1056 LINE",
"532 1117 LINE",
"652 1117 LINE",
"701 1056 LINE",
"550 344 LINE",
"475 283 LINE",
"355 283 LINE"
);
},
{
closed = 1;
nodes = (
"513 160 LINE",
"665 284 LINE",
"844 1124 LINE",
"744 1248 LINE",
"500 1248 LINE",
"348 1124 LINE",
"169 284 LINE",
"269 160 LINE"
);
}
);
width = 1018;
},
{
anchors = (
{
name = bottom;
position = "{351, 0}";
},
{
name = top;
position = "{649, 1400}";
}
);
layerId = "E606EEE5-03C7-423E-87C5-22C033DDF210";
paths = (
{
closed = 1;
nodes = (
"759 -50 LINE",
"656 85 LINE",
"803 206 LINE",
"1013 1194 LINE",
"851 1400 LINE",
"455 1400 LINE",
"205 1194 LINE",
"-5 206 LINE",
"157 0 LINE",
"337 0 LINE",
"526 -242 LINE"
);
},
{
closed = 1;
nodes = (
"427 142 LINE",
"265 142 LINE",
"156 280 LINE",
"337 1128 LINE",
"493 1259 LINE",
"757 1259 LINE",
"860 1128 LINE",
"679 280 LINE",
"509 142 LINE",
"426 142 LINE",
"584 -67 LINE",
"585 -67 LINE"
);
},
{
closed = 1;
nodes = (
"307 344 LINE",
"458 1056 LINE",
"532 1117 LINE",
"652 1117 LINE",
"701 1056 LINE",
"550 344 LINE",
"475 283 LINE",
"355 283 LINE"
);
},
{
closed = 1;
nodes = (
"509 142 LINE",
"680 280 LINE",
"861 1128 LINE",
"757 1260 LINE",
"493 1260 LINE",
"336 1128 LINE",
"155 280 LINE",
"265 142 LINE"
);
}
);
width = 1018;
}
);
leftKerningGroup = O;
leftMetricsKey = O;
rightKerningGroup = O;
rightMetricsKey = O;
unicode = 0051;
},
{
color = 6;
glyphname = R;
lastChange = "2021-04-27 15:17:23 +0000";
layers = (
{
anchors = (
{
name = bottom;
position = "{669, 0}";
},
{
name = top;
position = "{967, 1400}";
}
);
layerId = "C350CEFC-842E-49B2-BD8E-B76FC625146E";
paths = (
{
closed = 1;
nodes = (
"274 0 LINE",
"384 515 LINE",
"1107 515 LINE",
"1185 415 LINE",
"1097 0 LINE",
"1380 0 LINE",
"1490 515 LINE",
"1396 648 LINE",
"1542 760 LINE",
"1634 1194 LINE",
"1472 1400 LINE",
"289 1400 LINE",
"-9 0 LINE"
);
},
{
closed = 1;
nodes = (
"310 1373 LINE",
"1455 1373 LINE",
"1605 1183 LINE",
"1517 771 LINE",
"1359 648 LINE",
"1460 504 LINE",
"1359 27 LINE",
"1130 27 LINE",
"1215 427 LINE",
"1124 542 LINE",
"362 542 LINE",
"253 27 LINE",
"24 27 LINE"
);
},
{
closed = 1;
nodes = (
"512 1117 LINE",
"1274 1117 LINE",
"1322 1056 LINE",
"1280 860 LINE",
"1206 798 LINE",
"444 798 LINE"
);
},
{
closed = 1;
nodes = (
"1211 771 LINE",
"1304 848 LINE",
"1351 1067 LINE",
"1290 1144 LINE",
"490 1144 LINE",
"411 771 LINE"
);
}
);
width = 1659;
},
{
anchors = (
{
name = bottom;
position = "{669, 0}";
},
{
name = top;
position = "{967, 1400}";
}
);
layerId = "D1E5EF0F-C706-422D-804F-EC15AC36D3BD";
paths = (
{
closed = 1;
nodes = (
"274 0 LINE",
"384 515 LINE",
"1107 515 LINE",
"1185 415 LINE",
"1097 0 LINE",
"1380 0 LINE",
"1490 515 LINE",
"1396 648 LINE",
"1542 760 LINE",
"1634 1194 LINE",
"1472 1400 LINE",
"289 1400 LINE",
"-9 0 LINE"
);
},
{
closed = 1;
nodes = (
"390 1275 LINE",
"1375 1275 LINE",
"1489 1131 LINE",
"1420 809 LINE",
"1216 664 LINE",
"1355 466 LINE",
"1283 124 LINE",
"1255 124 LINE",
"1326 458 LINE",
"1189 650 LINE",
"285 650 LINE",
"174 124 LINE",
"146 124 LINE"
);
},
{
closed = 1;
nodes = (
"512 1117 LINE",
"1274 1117 LINE",
"1322 1056 LINE",
"1280 860 LINE",
"1206 798 LINE",
"444 798 LINE"
);
},
{
closed = 1;
nodes = (
"1195 678 LINE",
"1394 818 LINE",
"1459 1123 LINE",
"1359 1247 LINE",
"412 1247 LINE",
"291 678 LINE"
);
}
);
width = 1659;
},
{
anchors = (
{
name = bottom;
position = "{669, 0}";
},
{
name = top;
position = "{967, 1400}";
}
);
layerId = "52369092-E1A4-4352-8107-384305BB14D9";
paths = (
{
closed = 1;
nodes = (
"274 0 LINE",
"384 515 LINE",
"1107 515 LINE",
"1185 415 LINE",
"1097 0 LINE",
"1380 0 LINE",
"1490 515 LINE",
"1396 648 LINE",
"1542 760 LINE",
"1634 1194 LINE",
"1472 1400 LINE",
"289 1400 LINE",
"-9 0 LINE"
);
},
{
closed = 1;
nodes = (
"402 1259 LINE",
"1372 1259 LINE",
"1474 1131 LINE",
"1406 815 LINE",
"1207 663 LINE",
"1339 466 LINE",
"1270 142 LINE",
"1271 142 LINE",
"1340 466 LINE",
"1207 663 LINE",
"274 663 LINE",
"163 142 LINE",
"164 142 LINE"
);
},
{
closed = 1;
nodes = (
"512 1117 LINE",
"1274 1117 LINE",
"1322 1056 LINE",
"1280 860 LINE",
"1206 798 LINE",
"444 798 LINE"
);
},
{
closed = 1;
nodes = (
"1206 662 LINE",
"1407 815 LINE",
"1475 1131 LINE",
"1372 1260 LINE",
"401 1260 LINE",
"274 662 LINE"
);
}
);
width = 1659;
},
{
anchors = (
{
name = bottom;
position = "{346, 0}";
},
{
name = top;
position = "{644, 1400}";
}
);
layerId = "688D45B5-F54A-49EF-A5DE-FF449873800E";
paths = (
{
closed = 1;
nodes = (
"244 0 LINE",
"354 515 LINE",
"437 515 LINE",
"515 415 LINE",
"427 0 LINE",
"710 0 LINE",
"820 515 LINE",
"726 648 LINE",
"872 760 LINE",
"964 1194 LINE",
"802 1400 LINE",
"259 1400 LINE",
"-39 0 LINE"
);
},
{
closed = 1;
nodes = (
"280 1373 LINE",
"785 1373 LINE",
"935 1183 LINE",
"847 771 LINE",
"689 648 LINE",
"790 504 LINE",
"689 27 LINE",
"460 27 LINE",
"545 427 LINE",
"454 542 LINE",
"332 542 LINE",
"223 27 LINE",
"-6 27 LINE"
);
},
{
closed = 1;
nodes = (
"482 1117 LINE",
"604 1117 LINE",
"652 1056 LINE",
"610 860 LINE",
"536 798 LINE",
"414 798 LINE"
);
},
{
closed = 1;
nodes = (
"541 771 LINE",
"634 848 LINE",
"681 1067 LINE",
"620 1144 LINE",
"460 1144 LINE",
"381 771 LINE"
);
}
);
width = 959;
},
{
anchors = (
{
name = bottom;
position = "{346, 0}";
},
{
name = top;
position = "{644, 1400}";
}
);
layerId = "890EBC54-9394-463B-B2A5-6ADD509C07AA";
paths = (
{
closed = 1;
nodes = (
"244 0 LINE",
"354 515 LINE",
"437 515 LINE",
"515 415 LINE",
"427 0 LINE",
"710 0 LINE",
"820 515 LINE",
"726 648 LINE",
"872 760 LINE",
"964 1194 LINE",
"802 1400 LINE",
"259 1400 LINE",
"-39 0 LINE"
);
},
{
closed = 1;
nodes = (
"360 1275 LINE",
"705 1275 LINE",
"819 1131 LINE",
"750 809 LINE",
"546 664 LINE",
"685 466 LINE",
"613 124 LINE",
"585 124 LINE",
"656 458 LINE",
"519 650 LINE",
"255 650 LINE",
"144 124 LINE",
"116 124 LINE"
);
},
{
closed = 1;
nodes = (
"482 1117 LINE",
"604 1117 LINE",
"652 1056 LINE",
"610 860 LINE",
"536 798 LINE",
"414 798 LINE"
);
},
{
closed = 1;
nodes = (
"525 678 LINE",
"724 818 LINE",
"789 1123 LINE",
"689 1247 LINE",
"382 1247 LINE",
"261 678 LINE"
);
}
);
width = 959;
},
{
anchors = (
{
name = bottom;
position = "{346, 0}";
},
{
name = top;
position = "{644, 1400}";
}
);
layerId = "E606EEE5-03C7-423E-87C5-22C033DDF210";
paths = (
{
closed = 1;
nodes = (
"244 0 LINE",
"354 515 LINE",
"437 515 LINE",
"515 415 LINE",
"427 0 LINE",
"710 0 LINE",
"820 515 LINE",
"726 648 LINE",
"872 760 LINE",
"964 1194 LINE",
"802 1400 LINE",
"259 1400 LINE",
"-39 0 LINE"
);
},
{
closed = 1;
nodes = (
"372 1259 LINE",
"702 1259 LINE",
"804 1131 LINE",
"736 815 LINE",
"537 663 LINE",
"669 466 LINE",
"600 142 LINE",
"601 142 LINE",
"670 466 LINE",
"537 663 LINE",
"244 663 LINE",
"133 142 LINE",
"134 142 LINE"
);
},
{
closed = 1;
nodes = (
"482 1117 LINE",
"604 1117 LINE",
"652 1056 LINE",
"610 860 LINE",
"536 798 LINE",
"414 798 LINE"
);
},
{
closed = 1;
nodes = (
"536 662 LINE",
"737 815 LINE",
"805 1131 LINE",
"702 1260 LINE",
"371 1260 LINE",
"244 662 LINE"
);
}
);
width = 959;
}
);
leftKerningGroup = H;
leftMetricsKey = D;
rightKerningGroup = R;
rightMetricsKey = O;
unicode = 0052;
},
{
color = 6;
glyphname = S;
lastChange = "2021-04-27 15:17:24 +0000";
layers = (
{
anchors = (
{
name = bottom;
position = "{663, 0}";
},
{
name = top;
position = "{961, 1400}";
}
);
layerId = "C350CEFC-842E-49B2-BD8E-B76FC625146E";
paths = (
{
closed = 1;
nodes = (
"1140 0 LINE",
"1390 206 LINE",
"1481 636 LINE",
"1319 842 LINE",
"510 842 LINE",
"461 903 LINE",
"494 1056 LINE",
"569 1117 LINE",
"1221 1117 LINE",
"1269 1056 LINE",
"1244 942 LINE",
"1527 942 LINE",
"1581 1194 LINE",
"1419 1400 LINE",
"491 1400 LINE",
"241 1194 LINE",
"150 765 LINE",
"312 559 LINE",
"1121 559 LINE",
"1169 498 LINE",
"1136 344 LINE",
"1062 283 LINE",
"385 283 LINE",
"337 344 LINE",
"362 458 LINE",
"79 458 LINE",
"25 206 LINE",
"187 0 LINE"
);
},
{
closed = 1;
nodes = (
"54 217 LINE",
"100 431 LINE",
"329 431 LINE",
"308 333 LINE",
"369 256 LINE",
"1068 256 LINE",
"1161 333 LINE",
"1199 513 LINE",
"1138 585 LINE",
"329 585 LINE",
"179 776 LINE",
"266 1183 LINE",
"496 1373 LINE",
"1402 1373 LINE",
"1552 1183 LINE",
"1506 969 LINE",
"1277 969 LINE",
"1298 1067 LINE",
"1237 1144 LINE",
"562 1144 LINE",
"470 1067 LINE",
"433 891 LINE",
"493 817 LINE",
"1303 817 LINE",
"1452 625 LINE",
"1365 217 LINE",
"1135 27 LINE",
"204 27 LINE"
);
}
);
width = 1625;
},
{
anchors = (
{
name = bottom;
position = "{663, 0}";
},
{
name = top;
position = "{961, 1400}";
}
);
layerId = "D1E5EF0F-C706-422D-804F-EC15AC36D3BD";
paths = (
{
closed = 1;
nodes = (
"1140 0 LINE",
"1390 206 LINE",
"1481 636 LINE",
"1319 842 LINE",
"510 842 LINE",
"461 903 LINE",
"494 1056 LINE",
"569 1117 LINE",
"1221 1117 LINE",
"1269 1056 LINE",
"1244 942 LINE",
"1527 942 LINE",
"1581 1194 LINE",
"1419 1400 LINE",
"491 1400 LINE",
"241 1194 LINE",
"150 765 LINE",
"312 559 LINE",
"1121 559 LINE",
"1169 498 LINE",
"1136 344 LINE",
"1062 283 LINE",
"385 283 LINE",
"337 344 LINE",
"362 458 LINE",
"79 458 LINE",
"25 206 LINE",
"187 0 LINE"
);
},
{
closed = 1;
nodes = (
"169 260 LINE",
"187 343 LINE",
"215 343 LINE",
"199 268 LINE",
"291 154 LINE",
"1091 154 LINE",
"1243 278 LINE",
"1308 583 LINE",
"1224 687 LINE",
"408 687 LINE",
"292 835 LINE",
"354 1128 LINE",
"529 1272 LINE",
"1335 1272 LINE",
"1440 1138 LINE",
"1423 1057 LINE",
"1395 1057 LINE",
"1410 1130 LINE",
"1319 1244 LINE",
"533 1244 LINE",
"380 1120 LINE",
"321 843 LINE",
"422 715 LINE",
"1240 715 LINE",
"1338 591 LINE",
"1270 270 LINE",
"1095 126 LINE",
"275 126 LINE"
);
}
);
width = 1625;
},
{
anchors = (
{
name = bottom;
position = "{663, 0}";
},
{
name = top;
position = "{961, 1400}";
}
);
layerId = "52369092-E1A4-4352-8107-384305BB14D9";
paths = (
{
closed = 1;
nodes = (
"1140 0 LINE",
"1390 206 LINE",
"1481 636 LINE",
"1319 842 LINE",
"510 842 LINE",
"461 903 LINE",
"494 1056 LINE",
"569 1117 LINE",
"1221 1117 LINE",
"1269 1056 LINE",
"1244 942 LINE",
"1527 942 LINE",
"1581 1194 LINE",
"1419 1400 LINE",
"491 1400 LINE",
"241 1194 LINE",
"150 765 LINE",
"312 559 LINE",
"1121 559 LINE",
"1169 498 LINE",
"1136 344 LINE",
"1062 283 LINE",
"385 283 LINE",
"337 344 LINE",
"362 458 LINE",
"79 458 LINE",
"25 206 LINE",
"187 0 LINE"
);
},
{
closed = 1;
nodes = (
"184 260 LINE",
"199 328 LINE",
"199 328 LINE",
"184 260 LINE",
"283 142 LINE",
"1085 142 LINE",
"1259 280 LINE",
"1322 580 LINE",
"1234 699 LINE",
"420 699 LINE",
"310 845 LINE",
"370 1128 LINE",
"535 1259 LINE",
"1326 1259 LINE",
"1424 1128 LINE",
"1412 1072 LINE",
"1412 1072 LINE",
"1424 1128 LINE",
"1326 1259 LINE",
"535 1259 LINE",
"370 1128 LINE",
"310 845 LINE",
"420 699 LINE",
"1234 699 LINE",
"1322 580 LINE",
"1259 280 LINE",
"1085 142 LINE",
"283 142 LINE"
);
}
);
width = 1625;
},
{
anchors = (
{
name = bottom;
position = "{340, 0}";
},
{
name = top;
position = "{638, 1400}";
}
);
layerId = "688D45B5-F54A-49EF-A5DE-FF449873800E";
paths = (
{
closed = 1;
nodes = (
"523 0 LINE",
"773 206 LINE",
"864 636 LINE",
"702 842 LINE",
"480 842 LINE",
"431 903 LINE",
"464 1056 LINE",
"539 1117 LINE",
"604 1117 LINE",
"652 1056 LINE",
"627 942 LINE",
"910 942 LINE",
"964 1194 LINE",
"802 1400 LINE",
"461 1400 LINE",
"211 1194 LINE",
"120 765 LINE",
"282 559 LINE",
"504 559 LINE",
"552 498 LINE",
"519 344 LINE",
"445 283 LINE",
"355 283 LINE",
"307 344 LINE",
"332 458 LINE",
"49 458 LINE",
"-5 206 LINE",
"157 0 LINE"
);
},
{
closed = 1;
nodes = (
"24 217 LINE",
"70 431 LINE",
"299 431 LINE",
"278 333 LINE",
"339 256 LINE",
"451 256 LINE",
"544 333 LINE",
"582 513 LINE",
"521 585 LINE",
"299 585 LINE",
"149 776 LINE",
"236 1183 LINE",
"466 1373 LINE",
"785 1373 LINE",
"935 1183 LINE",
"889 969 LINE",
"660 969 LINE",
"681 1067 LINE",
"620 1144 LINE",
"532 1144 LINE",
"440 1067 LINE",
"403 891 LINE",
"463 817 LINE",
"686 817 LINE",
"835 625 LINE",
"748 217 LINE",
"518 27 LINE",
"174 27 LINE"
);
}
);
width = 978;
},
{
anchors = (
{
name = bottom;
position = "{340, 0}";
},
{
name = top;
position = "{638, 1400}";
}
);
layerId = "890EBC54-9394-463B-B2A5-6ADD509C07AA";
paths = (
{
closed = 1;
nodes = (
"523 0 LINE",
"773 206 LINE",
"864 636 LINE",
"702 842 LINE",
"480 842 LINE",
"431 903 LINE",
"464 1056 LINE",
"539 1117 LINE",
"604 1117 LINE",
"652 1056 LINE",
"627 942 LINE",
"910 942 LINE",
"964 1194 LINE",
"802 1400 LINE",
"461 1400 LINE",
"211 1194 LINE",
"120 765 LINE",
"282 559 LINE",
"504 559 LINE",
"552 498 LINE",
"519 344 LINE",
"445 283 LINE",
"355 283 LINE",
"307 344 LINE",
"332 458 LINE",
"49 458 LINE",
"-5 206 LINE",
"157 0 LINE"
);
},
{
closed = 1;
nodes = (
"139 260 LINE",
"157 343 LINE",
"185 343 LINE",
"169 268 LINE",
"261 154 LINE",
"474 154 LINE",
"626 278 LINE",
"691 583 LINE",
"607 687 LINE",
"378 687 LINE",
"262 835 LINE",
"324 1128 LINE",
"499 1272 LINE",
"718 1272 LINE",
"823 1138 LINE",
"806 1057 LINE",
"778 1057 LINE",
"793 1130 LINE",
"702 1244 LINE",
"503 1244 LINE",
"350 1120 LINE",
"291 843 LINE",
"392 715 LINE",
"623 715 LINE",
"721 591 LINE",
"653 270 LINE",
"478 126 LINE",
"245 126 LINE"
);
}
);
width = 978;
},
{
anchors = (
{
name = bottom;
position = "{340, 0}";
},
{
name = top;
position = "{638, 1400}";
}
);
layerId = "E606EEE5-03C7-423E-87C5-22C033DDF210";
paths = (
{
closed = 1;
nodes = (
"523 0 LINE",
"773 206 LINE",
"864 636 LINE",
"702 842 LINE",
"480 842 LINE",
"431 903 LINE",
"464 1056 LINE",
"539 1117 LINE",
"604 1117 LINE",
"652 1056 LINE",
"627 942 LINE",
"910 942 LINE",
"964 1194 LINE",
"802 1400 LINE",
"461 1400 LINE",
"211 1194 LINE",
"120 765 LINE",
"282 559 LINE",
"504 559 LINE",
"552 498 LINE",
"519 344 LINE",
"445 283 LINE",
"355 283 LINE",
"307 344 LINE",
"332 458 LINE",
"49 458 LINE",
"-5 206 LINE",
"157 0 LINE"
);
},
{
closed = 1;
nodes = (
"154 260 LINE",
"169 328 LINE",
"169 328 LINE",
"154 260 LINE",
"253 142 LINE",
"468 142 LINE",
"642 280 LINE",
"705 580 LINE",
"617 699 LINE",
"390 699 LINE",
"280 845 LINE",
"340 1128 LINE",
"505 1259 LINE",
"709 1259 LINE",
"807 1128 LINE",
"795 1072 LINE",
"795 1072 LINE",
"807 1128 LINE",
"709 1259 LINE",
"505 1259 LINE",
"340 1128 LINE",
"280 845 LINE",
"390 699 LINE",
"617 699 LINE",
"705 580 LINE",
"642 280 LINE",
"468 142 LINE",
"253 142 LINE"
);
}
);
width = 978;
}
);
leftKerningGroup = S;
leftMetricsKey = O;
rightKerningGroup = S;
rightMetricsKey = O;
unicode = 0053;
},
{
color = 6;
glyphname = Scedilla;
lastChange = "2021-04-27 15:17:23 +0000";
layers = (
{
layerId = "C350CEFC-842E-49B2-BD8E-B76FC625146E";
paths = (
{
closed = 1;
nodes = (
"571 -349 LINE",
"774 -160 LINE",
"669 0 LINE",
"812 0 LINE",
"1062 206 LINE",
"1145 596 LINE",
"983 802 LINE",
"560 892 LINE",
"511 953 LINE",
"533 1056 LINE",
"608 1117 LINE",
"893 1117 LINE",
"941 1056 LINE",
"917 942 LINE",
"1200 942 LINE",
"1253 1194 LINE",
"1091 1400 LINE",
"530 1400 LINE",
"280 1194 LINE",
"200 815 LINE",
"362 609 LINE",
"785 519 LINE",
"833 458 LINE",
"808 344 LINE",
"734 283 LINE",
"424 283 LINE",
"376 344 LINE",
"401 458 LINE",
"118 458 LINE",
"64 206 LINE",
"226 0 LINE",
"401 0 LINE",
"374 -130 LINE",
"508 -130 LINE",
"531 -160 LINE",
"494 -192 LINE",
"289 -192 LINE",
"256 -349 LINE"
);
},
{
closed = 1;
nodes = (
"310 -219 LINE",
"499 -219 LINE",
"564 -160 LINE",
"523 -103 LINE",
"406 -103 LINE",
"434 27 LINE",
"243 27 LINE",
"93 217 LINE",
"139 431 LINE",
"368 431 LINE",
"347 333 LINE",
"408 256 LINE",
"740 256 LINE",
"833 333 LINE",
"863 473 LINE",
"801 544 LINE",
"378 635 LINE",
"229 826 LINE",
"305 1183 LINE",
"535 1373 LINE",
"1074 1373 LINE",
"1224 1183 LINE",
"1178 969 LINE",
"949 969 LINE",
"970 1067 LINE",
"909 1144 LINE",
"601 1144 LINE",
"509 1067 LINE",
"482 941 LINE",
"543 867 LINE",
"966 777 LINE",
"1116 585 LINE",
"1037 217 LINE",
"807 27 LINE",
"634 27 LINE",
"628 0 LINE",
"628 0 LINE",
"737 -160 LINE",
"560 -322 LINE",
"288 -322 LINE"
);
}
);
width = 1262;
},
{
layerId = "D1E5EF0F-C706-422D-804F-EC15AC36D3BD";
paths = (
{
closed = 1;
nodes = (
"571 -349 LINE",
"774 -160 LINE",
"669 0 LINE",
"812 0 LINE",
"1062 206 LINE",
"1145 596 LINE",
"983 802 LINE",
"560 892 LINE",
"511 953 LINE",
"533 1056 LINE",
"608 1117 LINE",
"893 1117 LINE",
"941 1056 LINE",
"917 942 LINE",
"1200 942 LINE",
"1253 1194 LINE",
"1091 1400 LINE",
"530 1400 LINE",
"280 1194 LINE",
"200 815 LINE",
"362 609 LINE",
"785 519 LINE",
"833 458 LINE",
"808 344 LINE",
"734 283 LINE",
"424 283 LINE",
"376 344 LINE",
"401 458 LINE",
"118 458 LINE",
"64 206 LINE",
"226 0 LINE",
"401 0 LINE",
"374 -130 LINE",
"508 -130 LINE",
"531 -160 LINE",
"494 -192 LINE",
"289 -192 LINE",
"256 -349 LINE"
);
},
{
closed = 1;
nodes = (
"362 -257 LINE",
"531 -257 LINE",
"638 -160 LINE",
"571 -65 LINE",
"474 -65 LINE",
"515 126 LINE",
"314 126 LINE",
"209 260 LINE",
"228 353 LINE",
"256 353 LINE",
"238 268 LINE",
"330 154 LINE",
"763 154 LINE",
"915 278 LINE",
"972 543 LINE",
"888 647 LINE",
"458 737 LINE",
"341 885 LINE",
"393 1128 LINE",
"568 1272 LINE",
"1007 1272 LINE",
"1112 1138 LINE",
"1095 1057 LINE",
"1067 1057 LINE",
"1082 1130 LINE",
"991 1244 LINE",
"572 1244 LINE",
"419 1120 LINE",
"371 893 LINE",
"472 765 LINE",
"904 675 LINE",
"1001 551 LINE",
"942 270 LINE",
"767 126 LINE",
"543 126 LINE",
"508 -38 LINE",
"590 -38 LINE",
"674 -160 LINE",
"538 -284 LINE",
"356 -284 LINE"
);
}
);
width = 1262;
},
{
layerId = "52369092-E1A4-4352-8107-384305BB14D9";
paths = (
{
closed = 1;
nodes = (
"571 -349 LINE",
"774 -160 LINE",
"669 0 LINE",
"812 0 LINE",
"1062 206 LINE",
"1145 596 LINE",
"983 802 LINE",
"560 892 LINE",
"511 953 LINE",
"533 1056 LINE",
"608 1117 LINE",
"893 1117 LINE",
"941 1056 LINE",
"917 942 LINE",
"1200 942 LINE",
"1253 1194 LINE",
"1091 1400 LINE",
"530 1400 LINE",
"280 1194 LINE",
"200 815 LINE",
"362 609 LINE",
"785 519 LINE",
"833 458 LINE",
"808 344 LINE",
"734 283 LINE",
"424 283 LINE",
"376 344 LINE",
"401 458 LINE",
"118 458 LINE",
"64 206 LINE",
"226 0 LINE",
"401 0 LINE",
"374 -130 LINE",
"508 -130 LINE",
"531 -160 LINE",
"494 -192 LINE",
"289 -192 LINE",
"256 -349 LINE"
);
},
{
closed = 1;
nodes = (
"379 -271 LINE",
"541 -271 LINE",
"661 -160 LINE",
"587 -51 LINE",
"492 -51 LINE",
"533 140 LINE",
"317 140 LINE",
"223 260 LINE",
"238 333 LINE",
"238 333 LINE",
"223 260 LINE",
"317 140 LINE",
"770 140 LINE",
"928 270 LINE",
"987 551 LINE",
"901 662 LINE",
"461 750 LINE",
"355 885 LINE",
"407 1128 LINE",
"565 1258 LINE",
"1004 1258 LINE",
"1098 1138 LINE",
"1085 1077 LINE",
"1085 1077 LINE",
"1098 1138 LINE",
"1004 1258 LINE",
"565 1258 LINE",
"407 1128 LINE",
"355 885 LINE",
"461 750 LINE",
"901 662 LINE",
"987 551 LINE",
"928 270 LINE",
"770 140 LINE",
"533 140 LINE",
"492 -51 LINE",
"587 -51 LINE",
"661 -160 LINE",
"541 -271 LINE",
"379 -271 LINE"
);
}
);
width = 1262;
},
{
layerId = "688D45B5-F54A-49EF-A5DE-FF449873800E";
paths = (
{
closed = 1;
nodes = (
"541 -349 LINE",
"744 -160 LINE",
"639 0 LINE",
"782 0 LINE",
"1032 206 LINE",
"1115 596 LINE",
"953 802 LINE",
"530 892 LINE",
"481 953 LINE",
"503 1056 LINE",
"578 1117 LINE",
"863 1117 LINE",
"911 1056 LINE",
"887 942 LINE",
"1170 942 LINE",
"1223 1194 LINE",
"1061 1400 LINE",
"500 1400 LINE",
"250 1194 LINE",
"170 815 LINE",
"332 609 LINE",
"755 519 LINE",
"803 458 LINE",
"778 344 LINE",
"704 283 LINE",
"394 283 LINE",
"346 344 LINE",
"371 458 LINE",
"88 458 LINE",
"34 206 LINE",
"196 0 LINE",
"371 0 LINE",
"344 -130 LINE",
"478 -130 LINE",
"501 -160 LINE",
"464 -192 LINE",
"259 -192 LINE",
"226 -349 LINE"
);
},
{
closed = 1;
nodes = (
"280 -219 LINE",
"469 -219 LINE",
"534 -160 LINE",
"493 -103 LINE",
"376 -103 LINE",
"404 27 LINE",
"213 27 LINE",
"63 217 LINE",
"109 431 LINE",
"338 431 LINE",
"317 333 LINE",
"378 256 LINE",
"710 256 LINE",
"803 333 LINE",
"833 473 LINE",
"771 544 LINE",
"348 635 LINE",
"199 826 LINE",
"275 1183 LINE",
"505 1373 LINE",
"1044 1373 LINE",
"1194 1183 LINE",
"1148 969 LINE",
"919 969 LINE",
"940 1067 LINE",
"879 1144 LINE",
"571 1144 LINE",
"479 1067 LINE",
"452 941 LINE",
"513 867 LINE",
"936 777 LINE",
"1086 585 LINE",
"1007 217 LINE",
"777 27 LINE",
"604 27 LINE",
"598 0 LINE",
"598 0 LINE",
"707 -160 LINE",
"530 -322 LINE",
"258 -322 LINE"
);
}
);
width = 1202;
},
{
layerId = "890EBC54-9394-463B-B2A5-6ADD509C07AA";
paths = (
{
closed = 1;
nodes = (
"541 -349 LINE",
"744 -160 LINE",
"639 0 LINE",
"782 0 LINE",
"1032 206 LINE",
"1115 596 LINE",
"953 802 LINE",
"530 892 LINE",
"481 953 LINE",
"503 1056 LINE",
"578 1117 LINE",
"863 1117 LINE",
"911 1056 LINE",
"887 942 LINE",
"1170 942 LINE",
"1223 1194 LINE",
"1061 1400 LINE",
"500 1400 LINE",
"250 1194 LINE",
"170 815 LINE",
"332 609 LINE",
"755 519 LINE",
"803 458 LINE",
"778 344 LINE",
"704 283 LINE",
"394 283 LINE",
"346 344 LINE",
"371 458 LINE",
"88 458 LINE",
"34 206 LINE",
"196 0 LINE",
"371 0 LINE",
"344 -130 LINE",
"478 -130 LINE",
"501 -160 LINE",
"464 -192 LINE",
"259 -192 LINE",
"226 -349 LINE"
);
},
{
closed = 1;
nodes = (
"332 -257 LINE",
"501 -257 LINE",
"608 -160 LINE",
"541 -65 LINE",
"444 -65 LINE",
"485 126 LINE",
"284 126 LINE",
"179 260 LINE",
"198 353 LINE",
"226 353 LINE",
"208 268 LINE",
"300 154 LINE",
"733 154 LINE",
"885 278 LINE",
"942 543 LINE",
"858 647 LINE",
"428 737 LINE",
"311 885 LINE",
"363 1128 LINE",
"538 1272 LINE",
"977 1272 LINE",
"1082 1138 LINE",
"1065 1057 LINE",
"1037 1057 LINE",
"1052 1130 LINE",
"961 1244 LINE",
"542 1244 LINE",
"389 1120 LINE",
"341 893 LINE",
"442 765 LINE",
"874 675 LINE",
"971 551 LINE",
"912 270 LINE",
"737 126 LINE",
"513 126 LINE",
"478 -38 LINE",
"560 -38 LINE",
"644 -160 LINE",
"508 -284 LINE",
"326 -284 LINE"
);
}
);
width = 1202;
},
{
layerId = "E606EEE5-03C7-423E-87C5-22C033DDF210";
paths = (
{
closed = 1;
nodes = (
"541 -349 LINE",
"744 -160 LINE",
"639 0 LINE",
"782 0 LINE",
"1032 206 LINE",
"1115 596 LINE",
"953 802 LINE",
"530 892 LINE",
"481 953 LINE",
"503 1056 LINE",
"578 1117 LINE",
"863 1117 LINE",
"911 1056 LINE",
"887 942 LINE",
"1170 942 LINE",
"1223 1194 LINE",
"1061 1400 LINE",
"500 1400 LINE",
"250 1194 LINE",
"170 815 LINE",
"332 609 LINE",
"755 519 LINE",
"803 458 LINE",
"778 344 LINE",
"704 283 LINE",
"394 283 LINE",
"346 344 LINE",
"371 458 LINE",
"88 458 LINE",
"34 206 LINE",
"196 0 LINE",
"371 0 LINE",
"344 -130 LINE",
"478 -130 LINE",
"501 -160 LINE",
"464 -192 LINE",
"259 -192 LINE",
"226 -349 LINE"
);
},
{
closed = 1;
nodes = (
"349 -271 LINE",
"511 -271 LINE",
"631 -160 LINE",
"557 -51 LINE",
"462 -51 LINE",
"503 140 LINE",
"287 140 LINE",
"193 260 LINE",
"208 333 LINE",
"208 333 LINE",
"193 260 LINE",
"287 140 LINE",
"740 140 LINE",
"898 270 LINE",
"957 551 LINE",
"871 662 LINE",
"431 750 LINE",
"325 885 LINE",
"377 1128 LINE",
"535 1258 LINE",
"974 1258 LINE",
"1068 1138 LINE",
"1055 1077 LINE",
"1055 1077 LINE",
"1068 1138 LINE",
"974 1258 LINE",
"535 1258 LINE",
"377 1128 LINE",
"325 885 LINE",
"431 750 LINE",
"871 662 LINE",
"957 551 LINE",
"898 270 LINE",
"740 140 LINE",
"503 140 LINE",
"462 -51 LINE",
"557 -51 LINE",
"631 -160 LINE",
"511 -271 LINE",
"349 -271 LINE"
);
}
);
width = 1202;
}
);
unicode = 015E;
},
{
color = 6;
glyphname = Schwa;
lastChange = "2021-04-27 15:17:23 +0000";
layers = (
{
layerId = "C350CEFC-842E-49B2-BD8E-B76FC625146E";
paths = (
{
closed = 1;
nodes = (
"810 0 LINE",
"1060 206 LINE",
"1270 1194 LINE",
"1108 1400 LINE",
"299 1400 LINE",
"239 1117 LINE",
"910 1117 LINE",
"958 1056 LINE",
"922 887 LINE",
"382 887 LINE",
"132 681 LINE",
"31 206 LINE",
"193 0 LINE"
);
},
{
closed = 1;
nodes = (
"738 256 LINE",
"831 333 LINE",
"897 642 LINE",
"437 642 LINE",
"366 584 LINE",
"313 333 LINE",
"374 256 LINE"
);
},
{
closed = 1;
nodes = (
"60 217 LINE",
"157 670 LINE",
"387 861 LINE",
"943 861 LINE",
"987 1068 LINE",
"927 1145 LINE",
"273 1145 LINE",
"321 1374 LINE",
"1091 1374 LINE",
"1241 1184 LINE",
"1035 217 LINE",
"805 27 LINE",
"210 27 LINE"
);
},
{
closed = 1;
nodes = (
"342 344 LINE",
"391 572 LINE",
"442 614 LINE",
"864 614 LINE",
"806 344 LINE",
"732 283 LINE",
"391 283 LINE"
);
}
);
width = 1303;
},
{
layerId = "D1E5EF0F-C706-422D-804F-EC15AC36D3BD";
paths = (
{
closed = 1;
nodes = (
"810 0 LINE",
"1060 206 LINE",
"1270 1194 LINE",
"1108 1400 LINE",
"299 1400 LINE",
"239 1117 LINE",
"910 1117 LINE",
"958 1056 LINE",
"922 887 LINE",
"382 887 LINE",
"132 681 LINE",
"31 206 LINE",
"193 0 LINE"
);
},
{
closed = 1;
nodes = (
"767 154 LINE",
"934 290 LINE",
"1029 737 LINE",
"417 737 LINE",
"276 621 LINE",
"204 280 LINE",
"305 154 LINE"
);
},
{
closed = 1;
nodes = (
"174 272 LINE",
"250 631 LINE",
"415 765 LINE",
"1035 765 LINE",
"1110 1118 LINE",
"1007 1246 LINE",
"401 1246 LINE",
"407 1274 LINE",
"1023 1274 LINE",
"1140 1126 LINE",
"960 282 LINE",
"771 126 LINE",
"289 126 LINE"
);
},
{
closed = 1;
nodes = (
"342 344 LINE",
"391 572 LINE",
"442 614 LINE",
"864 614 LINE",
"806 344 LINE",
"732 283 LINE",
"391 283 LINE"
);
}
);
width = 1303;
},
{
layerId = "52369092-E1A4-4352-8107-384305BB14D9";
paths = (
{
closed = 1;
nodes = (
"810 0 LINE",
"1060 206 LINE",
"1270 1194 LINE",
"1108 1400 LINE",
"299 1400 LINE",
"239 1117 LINE",
"910 1117 LINE",
"958 1056 LINE",
"922 887 LINE",
"382 887 LINE",
"132 681 LINE",
"31 206 LINE",
"193 0 LINE"
);
},
{
closed = 1;
nodes = (
"769 138 LINE",
"935 274 LINE",
"1036 746 LINE",
"403 746 LINE",
"274 640 LINE",
"194 264 LINE",
"296 138 LINE"
);
},
{
closed = 1;
nodes = (
"194 264 LINE",
"274 640 LINE",
"403 746 LINE",
"1036 746 LINE",
"1117 1126 LINE",
"1014 1254 LINE",
"393 1254 LINE",
"393 1254 LINE",
"1014 1254 LINE",
"1117 1126 LINE",
"935 274 LINE",
"769 138 LINE",
"296 138 LINE"
);
},
{
closed = 1;
nodes = (
"342 344 LINE",
"391 572 LINE",
"442 614 LINE",
"864 614 LINE",
"806 344 LINE",
"732 283 LINE",
"391 283 LINE"
);
}
);
width = 1303;
},
{
layerId = "688D45B5-F54A-49EF-A5DE-FF449873800E";
paths = (
{
closed = 1;
nodes = (
"780 0 LINE",
"1030 206 LINE",
"1240 1194 LINE",
"1078 1400 LINE",
"269 1400 LINE",
"209 1117 LINE",
"880 1117 LINE",
"928 1056 LINE",
"892 887 LINE",
"352 887 LINE",
"102 681 LINE",
"1 206 LINE",
"163 0 LINE"
);
},
{
closed = 1;
nodes = (
"708 256 LINE",
"801 333 LINE",
"867 642 LINE",
"407 642 LINE",
"336 584 LINE",
"283 333 LINE",
"344 256 LINE"
);
},
{
closed = 1;
nodes = (
"30 217 LINE",
"127 670 LINE",
"357 861 LINE",
"913 861 LINE",
"957 1068 LINE",
"897 1145 LINE",
"243 1145 LINE",
"291 1374 LINE",
"1061 1374 LINE",
"1211 1184 LINE",
"1005 217 LINE",
"775 27 LINE",
"180 27 LINE"
);
},
{
closed = 1;
nodes = (
"312 344 LINE",
"361 572 LINE",
"412 614 LINE",
"834 614 LINE",
"776 344 LINE",
"702 283 LINE",
"361 283 LINE"
);
}
);
width = 1243;
},
{
layerId = "890EBC54-9394-463B-B2A5-6ADD509C07AA";
paths = (
{
closed = 1;
nodes = (
"780 0 LINE",
"1030 206 LINE",
"1240 1194 LINE",
"1078 1400 LINE",
"269 1400 LINE",
"209 1117 LINE",
"880 1117 LINE",
"928 1056 LINE",
"892 887 LINE",
"352 887 LINE",
"102 681 LINE",
"1 206 LINE",
"163 0 LINE"
);
},
{
closed = 1;
nodes = (
"737 154 LINE",
"904 290 LINE",
"999 737 LINE",
"387 737 LINE",
"246 621 LINE",
"174 280 LINE",
"275 154 LINE"
);
},
{
closed = 1;
nodes = (
"144 272 LINE",
"220 631 LINE",
"385 765 LINE",
"1005 765 LINE",
"1080 1118 LINE",
"977 1246 LINE",
"371 1246 LINE",
"377 1274 LINE",
"993 1274 LINE",
"1110 1126 LINE",
"930 282 LINE",
"741 126 LINE",
"259 126 LINE"
);
},
{
closed = 1;
nodes = (
"312 344 LINE",
"361 572 LINE",
"412 614 LINE",
"834 614 LINE",
"776 344 LINE",
"702 283 LINE",
"361 283 LINE"
);
}
);
width = 1243;
},
{
layerId = "E606EEE5-03C7-423E-87C5-22C033DDF210";
paths = (
{
closed = 1;
nodes = (
"780 0 LINE",
"1030 206 LINE",
"1240 1194 LINE",
"1078 1400 LINE",
"269 1400 LINE",
"209 1117 LINE",
"880 1117 LINE",
"928 1056 LINE",
"892 887 LINE",
"352 887 LINE",
"102 681 LINE",
"1 206 LINE",
"163 0 LINE"
);
},
{
closed = 1;
nodes = (
"739 138 LINE",
"905 274 LINE",
"1006 746 LINE",
"373 746 LINE",
"244 640 LINE",
"164 264 LINE",
"266 138 LINE"
);
},
{
closed = 1;
nodes = (
"164 264 LINE",
"244 640 LINE",
"373 746 LINE",
"1006 746 LINE",
"1087 1126 LINE",
"984 1254 LINE",
"363 1254 LINE",
"363 1254 LINE",
"984 1254 LINE",
"1087 1126 LINE",
"905 274 LINE",
"739 138 LINE",
"266 138 LINE"
);
},
{
closed = 1;
nodes = (
"312 344 LINE",
"361 572 LINE",
"412 614 LINE",
"834 614 LINE",
"776 344 LINE",
"702 283 LINE",
"361 283 LINE"
);
}
);
width = 1243;
}
);
unicode = 018F;
},
